<svg xmlns="http://www.w3.org/2000/svg" width="106.972" height="73.501" viewBox="0 0 106.972 73.501"><path d="M106.987,5.45c-1.775-1.775-8.5-1.28-8.5-1.28A17.743,17.743,0,0,0,91.67.743c-3.839-.867-5.862-1.073-8.5,1.28C79.078,5.615,72.1,9.7,69.128,12.262s-14.491,8.5-16.6,11.064c-2.147,2.56-26.835,31.5-26.835,31.5L.1,71.877,8.192,69.73l5.119,3.839s2.973.867,8.5-3.427S37.133,59.9,43.119,56.106c5.945-3.839,7.679-2.147,11.064-2.147,2.106,0,6.151.165,8.959.289L68.22,52.68s4.252-1.28,10.239-5.945c5.945-4.665,8.092-8.959,9.372-12.344S90.39,23.326,90.8,21.179s4.665-7.225,4.665-7.225h0s.867-1.28,2.147-3.427,4.252-2.147,4.252-2.147S107.854,6.317,106.987,5.45Z" transform="translate(-0.1 -0.141)" fill="#fff"/></svg>