<svg xmlns="http://www.w3.org/2000/svg" width="52.991" height="100.719" viewBox="0 0 52.991 100.719"><path d="M44.972,94.743c-.131.412-.225.805-.374,1.179-.468,1.236-1.273,1.4-2.209.505a2.337,2.337,0,0,1-.281-.356c-.131.543-.225.992-.356,1.423-.225.674-.468,1.329-.711,1.966a3.169,3.169,0,0,1-.318.543,1.189,1.189,0,0,1-1.985.225,13.407,13.407,0,0,1-1.067-1.217.058.058,0,0,0-.037.019c-.824.768-1.385.674-1.891-.374a12.908,12.908,0,0,1-.9-3.819,1.806,1.806,0,0,0-.037-.225c-.3.187-.58.393-.88.543-.955.506-1.554.225-1.722-.842a9.887,9.887,0,0,1,.243-3.557c.243-1.236.58-2.434.88-3.651.019-.094.037-.187.075-.356-.281.337-.505.637-.768.9-.6.58-1.161.468-1.367-.337a10.613,10.613,0,0,1-.356-2.434,42.441,42.441,0,0,1,.842-8.968c.917-5.036,1.928-10.072,2.883-15.109a2.335,2.335,0,0,0-.805-2.415c-.374.9-.655.936-1.292.206-.281-.318-.505-.655-.768-.992a.875.875,0,0,1-1.367.15,12.143,12.143,0,0,1-1.8-1.591,18.623,18.623,0,0,1-3.894-7.451,63.13,63.13,0,0,1-2.1-9.848,107.869,107.869,0,0,1-.955-10.99,9.319,9.319,0,0,1,2.378-6.478c.805-.974,1.629-1.928,2.378-2.921a4.992,4.992,0,0,0,.524-5.411.87.87,0,0,0-.936-.6c-4.812.094-9.623.15-14.453.206-1.516.019-3.014-.075-4.531-.056a12.081,12.081,0,0,0-3.838.58,4.077,4.077,0,0,0-2.434,1.8,9.731,9.731,0,0,1-.768-4.063,6.691,6.691,0,0,1,3.538-5.9,33.488,33.488,0,0,1,11.252-3.95,43.064,43.064,0,0,1,7.6-.6,40.674,40.674,0,0,1,7.058.6c.431.075.6-.056.655-.449.019-.206.094-.393.15-.674.15.206.262.337.356.468,0-.037.019-.075.019-.131.243,0,.487.019.73,0A1.277,1.277,0,0,0,31.848.1c.337-.206.637-.3.768.262A3.646,3.646,0,0,0,32.99.2c.075-.037.168-.112.243-.094.505.037,1.03.112,1.629.168-.3.3-.562.562-.88.9,1.067.3,2.134-.15,3.164.356-.3.131-.524.243-.861.393a2.8,2.8,0,0,0,.468.356,4.575,4.575,0,0,0,.861.262,3.163,3.163,0,0,1,2.041,1.292,16.764,16.764,0,0,1,3.613,8.537c.037.468.131.917.206,1.367a4.892,4.892,0,0,1,0,.524c-.037.019-.094.056-.131.075-.075-.15-.168-.318-.243-.468a1.045,1.045,0,0,0-.15.094c.037,1.292.749,2.49.637,3.875-.15-.094-.262-.15-.412-.262a5.732,5.732,0,0,0,2.041,3.482,8.2,8.2,0,0,1,2.4,3.183,61.047,61.047,0,0,1,3.857,8.425A29.916,29.916,0,0,1,52.929,43.8a43.519,43.519,0,0,1-2.322,11.027c-.318.955-.58,1.91-.88,2.864a7.027,7.027,0,0,1-.318.88c-.449.992-.861,1.1-1.8.543,0,.356.019.693,0,1.03a2.944,2.944,0,0,1-.15.917,1.029,1.029,0,0,1-.505.543c-.131.056-.374-.206-.655-.374,0,.58-.019,1.161,0,1.741.075,3.2.168,6.4.206,9.6.056,5,.075,10,.112,15,.019,1.367.112,2.715.112,4.081,0,.768-.131,1.535-.187,2.322a.547.547,0,0,1-.037.168C46.208,94.986,45.815,95.173,44.972,94.743Z" transform="translate(0.02 0.057)" fill="#fff"/></svg>