<svg xmlns="http://www.w3.org/2000/svg" width="147.15" height="186.19" viewBox="0 0 147.15 186.19"><path d="M70.683,149.24a158.16,158.16,0,0,1-7.874,22.317c-.9,2.09-1.269,2.09-2.575.261-.261-.373-.6-.746-.97-1.232a8.741,8.741,0,0,0-.709.97c-.784,1.53-1.493,3.1-2.314,4.628-1.232,2.351-2.5,2.8-5,2.015a1.386,1.386,0,0,0-1.045.261c-1.493,1.082-2.948,2.2-4.441,3.321a19.091,19.091,0,0,1-2.314,1.53c-.9.522-1.269.411-1.9-.411-.336-.448-.634-.933-1.008-1.381-.933-1.082-1.567-1.12-2.463,0-.709.858-1.306,1.754-1.978,2.65a10.778,10.778,0,0,1-1.306,1.567c-.858.784-1.642.523-1.866-.6-.112-.6-.149-1.232-.261-1.866-.261-1.493-.634-1.717-1.978-1.082-1.306.634-2.575,1.381-3.844,2.053-.933.485-1.9,1.008-2.874,1.418-1.269.522-1.941,0-2.015-1.343a10.685,10.685,0,0,0-.187-1.194c-.746.3-1.381.522-2.015.784-1.157.448-2.314.97-3.508,1.344-1.045.3-1.381-.149-.933-1.12a28.1,28.1,0,0,1,1.53-2.724c.821-1.306,1.717-2.575,2.575-3.881A13.066,13.066,0,0,0,20,176.3c-1.008-.037-1.791-.075-2.612-.149-1.679-.075-3.4-.112-5.075-.3a1.732,1.732,0,0,1-1.306-.858c-.112-.3.336-1.045.709-1.306,2.09-1.418,4.254-2.724,6.419-4.068.56-.373,1.157-.672,1.754-1.008v-.3c-2.314-.6-4.628-1.232-7.2-1.9a12.538,12.538,0,0,1,1.306-1.567c1.9-1.829,3.881-3.62,5.822-5.449.336-.3.6-.634,1.045-1.082-.672-.187-1.157-.3-1.642-.448-1.53-.411-1.978-1.418-.9-2.538,1.866-1.9,3.956-3.62,5.934-5.411a10.374,10.374,0,0,0,1.567-1.567c.746-1.008.56-1.381-.97-1.493a11.166,11.166,0,0,1,1.717-1.008c2.874-1.045,5.747-2.165,8.7-2.986a90.359,90.359,0,0,1,16.644-3.172c1.53-.149,3.1-.037,4.665-.112,4.292-.149,7.24-2.388,9.255-6.008.448-.821.3-1.082-.709-1.157-.634-.075-1.306-.075-1.978-.149-1.12-.112-1.53-.448-1.754-1.567-.224-1.082-.373-2.165-.522-3.247a1.793,1.793,0,0,0-1.343-1.6c-1.157-.336-2.314-.746-3.508-1.008a3.626,3.626,0,0,1-2.724-2.538,18.7,18.7,0,0,1-.784-2.724,4.219,4.219,0,0,0-1.679-2.762c-2.65-1.978-5.337-3.881-8.024-5.822a7.943,7.943,0,0,1-.97-.97c.411-.261.784-.6,1.194-.821.821-.411,1.717-.672,2.538-1.082.672-.3.746-.858.187-1.344a27.676,27.676,0,0,0-2.314-1.829c-.933-.672-1.941-1.269-2.874-1.978-1.306-.933-1.269-1.306.149-1.978.858-.411,1.791-.672,2.612-1.157.634-.373,1.493-.933,1.567-1.53.112-.858-.933-1.12-1.642-1.381-1.567-.56-3.172-1.082-4.777-1.53A2.859,2.859,0,0,1,36.237,93c-.3-1.418-.634-2.8-.858-4.18a2.441,2.441,0,0,0-1.567-2.053c-2.986-1.381-6.008-2.762-8.957-4.292A34.521,34.521,0,0,1,15,74.975c-.336-.373-.634-.784-.97-1.157a1.263,1.263,0,0,1-.112-.3c5.3,1.866,10.561,3.695,16.122,4.254a1.326,1.326,0,0,1,.149-.336c-.411-.261-.784-.56-1.194-.784-3.769-2.2-7.725-4.254-11.494-6.568A40.127,40.127,0,0,1,6.792,61.241a26.555,26.555,0,0,1-2.351-3.657,141.519,141.519,0,0,0,21.235,9.74l.224-.336a7.072,7.072,0,0,0-.709-.784c-2.911-2.2-5.822-4.366-8.7-6.568-4.4-3.359-8.733-6.755-12.315-11.009a13.9,13.9,0,0,1-2.724-4.366A94.467,94.467,0,0,0,23.81,55.307a6.1,6.1,0,0,0,.821.075c.075-.112.149-.187.224-.3a9.554,9.554,0,0,1-.97-.746C20.078,50.9,16.2,47.508,12.5,43.962A55.678,55.678,0,0,1,1.829,30.826C1.12,29.52.6,28.1,0,26.758c.075-.037.149-.112.224-.149.6.56,1.157,1.12,1.754,1.642A228.631,228.631,0,0,0,21.384,44.335a22.973,22.973,0,0,0,2.053,1.232,1.134,1.134,0,0,0,.187-.261,15.229,15.229,0,0,0-.933-1.232c-3.284-3.769-6.68-7.5-9.89-11.382A38.827,38.827,0,0,1,5.673,20.675a26.475,26.475,0,0,1-1.045-4.889,65.666,65.666,0,0,0,9.479,11.308c3.471,3.471,6.979,6.867,11.27,9.33.112-.075.187-.149.3-.224a7.331,7.331,0,0,0-.56-1.232c-1.306-2.015-2.65-4.03-3.956-6.046a65.577,65.577,0,0,1-7.65-14.592,21.041,21.041,0,0,1-1.269-7.277c0-.3.037-.6.075-1.045.784,1.829,1.418,3.545,2.2,5.187A39.522,39.522,0,0,0,24.705,24.631a20.594,20.594,0,0,0,2.463,1.493,1.724,1.724,0,0,0,.261-.261c-.075-.373-.112-.784-.224-1.157-.858-3.657-1.941-7.24-2.575-10.935A29.259,29.259,0,0,1,25.377.448,2.283,2.283,0,0,1,25.564,0C27.43,10.114,31.647,19.257,36.5,28.176a27.847,27.847,0,0,0,5.374,6.792,11.617,11.617,0,0,0,1.045.858c1.344.97,2.762,1.53,4.4.746,1.941,5.075,5.3,9.218,8.733,13.248C61.689,56.5,67.473,63.032,73.3,69.563a71.257,71.257,0,0,1,8.919,13.36c1.418,2.575,2.874,5.15,4.366,7.688a11.268,11.268,0,0,0,1.306,1.679c.112.149.485.3.6.224a.743.743,0,0,0,.3-.634,13.826,13.826,0,0,0-.6-2.127c-.485-1.194-1.045-2.351-1.6-3.508-.3-.634-.112-.97.485-1.157.634-.187,1.269-.3,1.9-.485,1.008-.3,1.12-.522.485-1.306-.858-1.12-1.829-2.127-2.687-3.209a10.912,10.912,0,0,1-.821-1.269c.97-.037,1.679-.112,2.388-.075,2.2.149,2.351-.075,1.455-2.09a19.7,19.7,0,0,0-1.008-1.978c-.373-.6-.784-1.194-1.306-1.941a9.943,9.943,0,0,1,1.418-.373,18.176,18.176,0,0,1,2.053-.224c.746-.037,1.082-.448.858-1.082a27.818,27.818,0,0,0-1.343-3.471c-.336-.672-.261-1.045.373-1.344.522-.261,1.008-.485,1.53-.709A.962.962,0,0,0,93,64.189c-.709-1.829-1.418-3.657-2.09-5.486-.075-.149-.112-.336-.261-.672.97-.112,1.829-.261,2.687-.336,2.09-.187,2.351-.522,1.567-2.538-.6-1.493-1.381-2.948-2.127-4.516.224-.037.56-.149.858-.187.821-.037,1.679,0,2.5.037.6,0,.821-.261.6-.821a11.876,11.876,0,0,0-.6-1.194c-.336-.672-.709-1.306-1.082-1.941a6.033,6.033,0,0,1-.746-3.956c.411-2.874.709-5.785,1.045-8.7a42.771,42.771,0,0,0,4.963,13.36c3.284,5.747,6.755,11.345,10.226,16.98a94.594,94.594,0,0,1,6.792,12.166c.97,2.276,1.829,4.628,1.493,7.165a7.718,7.718,0,0,1-1.157,3.247c-1.717,2.575-3.695,5-5.449,7.539a52.028,52.028,0,0,0-3.172,5.187,4.031,4.031,0,0,0-.261,3.471c.56,1.306,1.194,1.53,2.2.522,1.232-1.194,2.351-2.538,3.545-3.807a22.211,22.211,0,0,1,9.927-6.606,11.189,11.189,0,0,1,10.412,1.679c2.8,2.053,5.6,4.142,8.471,6.12,1.194.821,2.538,1.455,3.807,2.351a24.375,24.375,0,0,0-3.695.037c-3.769.485-6.606,2.575-8.994,5.411a40.369,40.369,0,0,0-6.158,10.636c-1.6,3.769-2.986,7.576-4.665,11.308-3.695,8.21-10.151,13.36-18.734,15.711a65.19,65.19,0,0,1-11.494,1.717c-6.643.56-13.323.9-19.966,1.306C72.549,149.315,71.616,149.24,70.683,149.24Z" fill="#fff"/></svg>