<svg xmlns="http://www.w3.org/2000/svg" width="54.941" height="86.656" viewBox="0 0 54.941 86.656"><path d="M42.859,60.961c1.06-3.278-.359-9.361-.7-10.894,1.288-4.795-8.268-28.034-12.411-32.552-.408-.44-.652-2.707-1.386-4.093-2.185-4.077-.359-3.115-2.9-7.747-.913-1.663-1.99-3.62-3.979-4.534.408-.049,0,0,.261-.31-1.174,0-1.729-.652-3.017-.473C18.8.245,18.95.212,18.787,0a8.613,8.613,0,0,1-2.039.44.55.55,0,0,0,.13-.326c-.554.049-2.12.522-2.365.522.147-.147.065-.457.114-.636-.408.6-4.371,1.37-5.953,3.767C5.855,2.887,1.875,2.446,0,3.653c1.761.522,6.556,2.153,7.029,3.082s3.05,7.029,2.218,7.959c-.815.93-6.083,18.853-.473,22.473-.179,3.343,3.066,12.46,6.915,17.091-.832.473-2.055,1.256-2.789,1.729-.261-.864-.734-.848-1.3.277-1.158-.326-3.148-.962-3.18,1.6,1.4-2.577,2.577.294,4.208.294a8.343,8.343,0,0,0,2.283-.049c.75-.212.913-.832,1.4-.359-.033-1.06-.995-.6-1.174-.652s-.685-1.125,1.239-2.039a6.581,6.581,0,0,0,2.805,1.892c5.153,1.4-.587-.93,1.99-.228s2.789.212,3.8.685.767-.114,1.6.245a53.944,53.944,0,0,0,6.328,8.432c3.278,3.05,4.681,18.494,6.214,19.913,1.517,1.4,7.029.228,7.257-.359a4.413,4.413,0,0,0,.228-1.99c.7.93,2.218,2.348,3.05,2.348.815,0,4.566.473,5.268-1.174C55.612,83.206,43.9,65.055,42.859,60.961Z" fill="#fff"/></svg>