<svg xmlns="http://www.w3.org/2000/svg" width="460.925" height="283.035" viewBox="0 0 460.925 283.035"><g transform="translate(0 0.152)"><path d="M429.327,260.7c-1.119.839-1.864,1.3-2.423,1.771l2.8,5.313a1.916,1.916,0,0,1-1.212,2.983c-1.957.652-4.008,1.025-6.245,1.585,1.957,1.771,4.1,3.728,6.431,5.779-2.144,2.051-4.754,1.585-7.364,1.678.186.839.28,1.678.559,3.076-2.237-.559-4.474-.652-6.152-1.585-6.8-3.542-13.8-7.084-20.227-11.278a549.149,549.149,0,0,1-54.528-40.36c-6.991-5.872-14.634-7.084-23.209-5.5-6.431,1.212-6.431,1.212-12.49-3.449.093.466.093.839.186,1.3-1.3-.373-2.517-.652-4.288-1.119,1.212,1.678,2.144,2.89,2.983,4.1-6.338-1.585-9.321-7.27-9.135-16.964-1.864,1.678-4.008,3.635-6.245,5.593-6.711,5.779-14.168,8.669-23.116,6.245-2.051-.559-3.822-1.864-5.779-2.7a51.665,51.665,0,0,0-6.338-2.33c-.559-.186-1.771.28-1.864.653-.559,2.237-2.983,4.474-.373,6.8-2.237,1.678-4.194,1.491-5.127-1.025-1.212-3.262-2.423-6.8-2.237-10.067.28-5.033-1.957-7.643-5.686-10.626-17.9-14.075-33-30.666-43.343-51.266a115.952,115.952,0,0,0-31.132-38.962c-11.092-8.948-19.854-20.133-28.243-31.505-6.8-9.321-13.7-18.549-20.32-28.056-6.711-9.507-15.939-15.753-26.192-20.6-15.38-7.364-31.785-11.838-48.469-14.82C28.709,13.226,16.871,11.921,4.94,10.243A40.6,40.6,0,0,1,.093,9.218c0-.28-.093-.559-.093-.839A13.631,13.631,0,0,1,3.076,7.26C8.948,6.794,14.82,5.955,20.6,6.235c18.549.839,36.538,5.033,54.435,9.694,13.143,3.449,26.192,7.457,39.242,11.278a13.37,13.37,0,0,0,9.135-.746c3.169-1.3,6.245-2.89,9.321-4.288,13.8-6.152,27.217-4.381,40.08,2.8,9.88,5.5,18.269,13.143,26.192,21.066,5.872,5.872,11.372,12.024,17.057,17.99.559.559,1.119,1.3,1.864,1.491,8.948,2.983,16.685,8.2,24.514,13.143.839.559,1.771,1.119,2.61,1.678,6.525-6.9,14.914-11.092,22.93-15.753,17.71-10.346,35.42-20.879,53.5-30.573A318.349,318.349,0,0,1,408.168,2.32C418.328.269,428.395-1.222,438.741.829A46.6,46.6,0,0,1,458.5,9.217c.839.652,1.585,1.3,2.423,2.051-1.4,2.144-2.8,4.1-4.008,6.152a2.608,2.608,0,0,0,0,2.051,30.716,30.716,0,0,0,2.8,4.008,2.872,2.872,0,0,1,0,4.381,82.247,82.247,0,0,1-7.736,7.364,13.543,13.543,0,0,0-4.194,5.22c-2.517,5.779-7.55,9.041-13.05,11.558a5.287,5.287,0,0,0-2.61,2.89,80.822,80.822,0,0,1-4.94,7.55,10.347,10.347,0,0,0-1.585,2.517c-2.051,6.338-5.686,10.906-12.583,12.211a1.814,1.814,0,0,0-1.119.932c-2.517,6.059-7.55,8.762-13.515,10.16a3.793,3.793,0,0,0-2.89,2.237c-2.7,5.5-7.55,8.389-13.236,10.253a4.189,4.189,0,0,0-2.144,1.3c-3.356,6.338-8.948,9.507-15.659,11.278a3.677,3.677,0,0,0-2.144,1.771c-2.7,6.8-7.643,10.44-14.82,11.278-.559.093-1.491.466-1.678,1.025-3.635,8.016-6.525,9.6-15.38,8.389a1.385,1.385,0,0,0-.559.093c-2.051,5.686-7.27,6.8-12.583,8.482a60.222,60.222,0,0,0,4.1,6.245c10.253,12.3,20.32,24.7,30.946,36.725,8.482,9.6,16.5,19.667,26.658,27.59,14.075,11.092,28.522,21.811,42.784,32.717.559.466,1.119.932,2.144,1.678-1.585-.186-2.8-.28-4.008-.373C422.989,252.963,426.158,256.784,429.327,260.7Z" transform="translate(0 0)" fill="#fff"/></g></svg>