<?xml version="1.0" encoding="UTF-8"?>
<!DOCTYPE svg  PUBLIC '-//W3C//DTD SVG 1.1//EN'  'http://www.w3.org/Graphics/SVG/1.1/DTD/svg11.dtd'>
<svg enable-background="new 0 0 2188.613 1723.071" version="1.1" viewBox="0 0 2188.613 1723.071" xml:space="preserve" xmlns="http://www.w3.org/2000/svg">
	<path d="m1704.6 473.71c-0.02 0.932-0.033 1.877-0.026 2.822-1.103 1.385-1.831 3.006-2.455 4.641 3.466-1.556 6.63-4.365 10.699-3.925-0.263 3.367-3.059 5.474-5.238 7.673 4.877-1.564 7.694-4.243 8.927-0.978-0.217 2.114-1.851 3.577-3.275 4.969 1.943 3.519 1.692 2.296-0.125 6.59-0.387-7e-3 -1.168-0.02-1.556-0.026 3.995 3.686 2.087 4.879-0.958 8.12 0.473 1.234 1.418 2.468 1.201 3.86-0.788 1.149-1.733 2.173-2.58 3.262 0.939 2.061 0.072 4.253-0.912 6.111-0.171 1.805 0.105 3.866-1.168 5.343-1.444 1.798-3.184 3.472-3.846 5.75 1.411 1.582 2.599 3.361 2.967 5.507 0.899 1.431 1.503 3.026 1.772 4.713 3.974 4.739 3.131 22.385 3.105 25.061 0.558 1.339 1.076 2.698 1.582 4.07 7.307 0.346 5.689-0.398 10.837-3.092 1.232-0.237 18.645-6.807 28.317-11.749 8.116-3.791 9.828-1.432 12.078 1.825 3.078 1.346 3.269 5.015 5.172 7.417 0.847 1.037 0.158 2.409 0.197 3.61 1.037 1.214 2.055 2.448 3.092 3.682-7e-3 0.998-0.013 2.002 0.033 3.019 1.247 1.739 2.068 3.735 2.823 5.743-0.341 0.643-0.67 1.287-0.971 1.943 0.545 1.063 1.122 2.14 1.693 3.216-0.768 2.199-1.766 4.358-2.022 6.702-1.575 1.766-1.93 3.991-1.569 6.282-0.492 0.407-0.965 0.814-1.418 1.227-0.243 1.464-0.473 2.934-0.676 4.404-2.068 0.88-2.061 3.275-3.275 4.818-6.23 4.512-28.109-5.327-35.8-5.356-0.328-0.217-0.985-0.656-1.313-0.873-2.652-0.361-5.172-1.674-7.87-1.378-2.79 0.617-5.258 2.402-8.172 2.455-0.886 0.394-1.805 0.748-2.606 1.234-0.696 1.09 0.138 2.376 0.302 3.525-0.23 1.259 0.788 15.026-1.286 19.009 1.247 3.761-1.766 6.938-1.72 10.614-0.066 3-2.363 5.356-2.507 8.356-0.217 2.435-1.569 4.496-3.65 5.743 0.873 2.35 1.438 4.811 1.608 7.325 3.308 2.987 5.179 8.067 2.809 12.196 0.945 2.245 1.549 4.674 1.135 7.128-1.166 4.538 4.522 5.151-0.046 12.412 5.042 8.448 2.625 8.823 1.096 11.776 0.921 2.115 5.505 7.977 0.236 11.329 2.166 3.479 3.531 7.765 1.904 11.763-1.628-0.532-3.065-1.418-4.405-2.435 1.293 3.216 2.698 6.925 1.267 10.332-4.037-1.969-6.479-5.881-9.885-8.638 1.378 3.564 3.105 7.174 2.744 11.106-10.884-2.307-50.419-65.658-58.464-91.107-5.23-13.309 8.558-25.574 4.877-35.478 0.144-1.221 0.243-2.448-0.414-3.531-0.676 0.282-1.333 0.578-1.963 0.873-19.511-6.605-30.259-11.564-39.351-3.334-0.085-1.51 0.479-2.908 0.952-4.306-0.952 0.729-1.871 1.49-2.776 2.245-0.564-3.21 1.936-5.382 3.242-7.988 1.464-2.612 2.317-5.514 3.814-8.113 4.652-4.272 17.051-7.43 20.696-7.325 4.162 0.125 7.726-2.534 10.719-5.146 4.529-3.866 4.824-10.391 4.995-15.911 0.4-6.203-3.715-11.251-6.314-16.515-1.504-9.99 13.996-25.92 21.759-31.192 2.899-3.415 35.85-33.226 41.962-33.405z"/>
	<path d="m1730.9 820.86c1.306-0.033 2.613-0.052 3.952-0.039-0.63 3.466-3.157 6.039-4.838 9.006 3.551-1.044 6.341-3.722 9.813-4.975 6.102 0.589-0.287 7.151-3.42 11.27 2.744-0.932 5.461-2.127 8.435-2.055 0.42 1.529 0.381 3.105-0.039 4.641-1.254 1.562-2.383 3.21-3.538 4.838 2.138 5.18 0.249 5.316-3.433 11.139 0.801 3.512-0.151 7.253-2.514 9.964-1.405 1.378 0.341 3.006 0.479 4.555 0.486 3.709-3.538 6.216-2.98 9.938 0.144 2.901-1.326 5.501-2.973 7.765 2.855 3.236 0.21 7.358-1.057 10.653 0.893 4.07-1.142 7.772-2.862 11.303 0.709 0.578 1.47 1.175 2.232 1.772 0.755 1.897 1.155 3.912 0.197 5.842 1.713 2.297 2.527 5.199 1.608 8.008 2.048 3.512 1.661 7.693 2.849 11.474 0.486 1.746-0.072 3.571 0.144 5.356 0.486 3.748 1.109 7.503 1.103 11.297-0.256 1.595-0.893 3.256 0.026 4.785-0.177 1.556-0.368 3.111-0.571 4.674 3.663 0.177 7.299 0.801 10.988 0.545 9.565-3.406 25.319-7.807 26.702-8.093 1.31-0.759 4.754-1.89 7.857-2.159 0.328-0.499 0.676-0.991 1.044-1.47 6.75 0.394 7.088-4.107 15.149 0.131 1.07 1.267 2.632 2.383 2.711 4.208-7e-3 1.037 0.637 1.812 1.418 2.468 0.394 1.444 0.466 2.947 0.637 4.444 2.26 6.017 1.497-1.014 1.602 10.837 1.365 1.306 2.822 2.678 3.334 4.588-0.085 2.002-1.254 3.82-1.28 5.829 0.788 2.232 2.547 4.68 0.86 6.977-0.079 0.361-0.23 1.083-0.302 1.444-1.687 2.14-1.319 5.021-2.672 7.319-0.61 3.105-1.359 6.19-2.074 9.288-2.291 2.238-4.995 4.654-8.468 4.214-14.995-2.47-32.883-12.981-45.265-14.578-2.212-0.269-3.787 1.844-5.94 1.923-5.803 1.096-3.788 0.53-4.595 9.708-0.361 2.041 1.175 3.827 0.978 5.862-0.775 3.991 0.013 8.192-1.857 11.953 1.49 3.013 0.433 6.328-1.011 9.13 1.733 4.168-1.201 8.074-4.457 10.41 2.711 1.982 4.746 4.798 5.592 8.073-0.171 1.333-1.464 2.389-1.293 3.787 1.234 2.494 3.302 4.91 3.032 7.87-0.033 1.017-1.116 1.49-1.654 2.225 1.825 2.573 3.177 5.665 2.343 8.874-1.011 3.269 2.809 5.31 2.77 8.533 0.709 2.035-1.057 3.459-2.304 4.739 1.536 2.888 3.505 5.638 3.938 8.979-1.85 6.907 2.86 6.486 3.288 12.019-0.262 1.162-0.991 2.146-1.411 3.249 1.529 3.019 3.531 5.855 4.207 9.255-0.886 0.63-1.766 1.26-2.639 1.884 0.814 2.035 1.51 4.148 1.464 6.387-4.496 0.243-7.325-3.886-11.237-5.356 1.155 3.039 3.689 5.658 3.682 9.052-4.071 0.915-19.185-12.161-21.956-15.53-0.315-0.052-0.939-0.144-1.254-0.197-1.175-2.291-2.882-4.201-4.897-5.763-3.249-2.56-4.674-6.702-8.028-9.144-66.765-86.24-27.883-74.884-35.393-105.59-27.688-7.717-44.053-11.457-53.082-2.888-0.348-0.722-1.431-1.293-1.09-2.159 0.742-1.438 1.713-2.757 2.258-4.293-1.575 1.116-2.855 2.553-4.214 3.899-0.976-4.626 5.355-11.39 6.984-15.412 5.009-13.44 26.173-7.298 32.898-9.616 5.321-0.127 13.67-7.186 13.942-12.005 2.831-34.516-24.506-32.193 13.2-81.57 3.125-3.55 16.307-24.263 22.599-29.229 0.743-1.003 14.417-17.297 30.283-26.265z"/>
	<path d="m2106.9 252.1c-2.009-2.402-2.435-5.586-3.525-8.428 0.066-0.591 0.545-1.149 0.44-1.779-0.177 0.216-0.545 0.656-0.722 0.88-2.816-3.065-2.75-7.745-6.085-10.41-3.566-0.417-6.405 0.306-18.661 6.098-4.746 2.127-9.872 3.131-14.723 4.91-0.414 0.013-1.24 0.039-1.654 0.052-0.308 0.177-0.926 0.532-1.234 0.709-14.716 3.147-4.216 5.049-29.373 4.838 3.24-3.557 3.606-3.981 1.792-14.454-0.374-1.982 0.394-3.938 0.486-5.914-0.21-2.219-1.418-4.26-1.26-6.524 0.134-5.523-0.952-2.088-1.437-10.936-0.525-1.621-1.379-3.17-2.599-4.352-2.146-1.529-1.188-4.588-2.698-6.557-0.571-2.278-4.621-1.687-3.761-4.45-7e-3 -1.818-0.164-3.728-0.919-5.396-1.753-1.91-4.319-2.678-6.597-3.702 0.558-0.532 1.142-1.037 1.766-1.549-0.479 0.125-1.431 0.381-1.903 0.512-0.164-1.28-0.289-2.547-0.427-3.82-0.926-0.486-1.818-0.971-2.685-1.477 0.236-1.142 0.519-2.278 0.794-3.42 0.361 0.092 1.083 0.282 1.444 0.374-0.256-1.707-0.354-3.446-0.118-5.166-2.631-5.823-0.325-4.62-5.389-7.785 0.199-0.88 0.46-1.757 0.619-2.65h3.726c-0.297-2.03-0.641-4.042-1.699-5.858 0.836-2.556 0.096-5.195-1.463-7.285 0.872-1.756 0.507-3.589-0.179-5.314-0.693-0.543-1.385-1.087-2.03-1.612 1.564-3.213 3.416-6.58 2.603-10.282 1.153-2.998 3.559-6.747 0.962-9.691 1.499-2.06 2.836-4.425 2.705-7.064-0.507-3.386 3.153-5.666 2.711-9.04-0.126-1.409-1.714-2.89-0.436-4.144 2.149-2.466 3.015-5.87 2.287-9.064 3.271-5.173 5.075-5.401 3.123-10.133 1.051-1.481 2.078-2.98 3.219-4.401 0.382-1.397 0.418-2.83 0.036-4.222-2.705-0.066-5.177 1.021-7.673 1.869 1.635-2.15 9.072-9.676 3.111-10.252-3.159 1.141-5.697 3.577-8.927 4.526 1.529-2.699 3.828-5.04 4.401-8.193-1.218-0.012-2.406 6e-3 -3.595 0.036-14.068 7.952-26.774 22.848-27.545 23.891-5.12 4.041-24.604 31.518-29.85 41.201-7.612 9.493-11.698 23.112-7.044 34.507-7e-3 17.282 1.632 50.134 10.732 64.896 3.676 6.236 5.927 13.331 6.459 20.545 0.98 5.268 4.961 10.9-7.608 17.519-6.744 3.346-11.724-0.677-22.088 2.868-4.986 0.288-8.205 2.263-9.596 4.03-1.853 1.597-7.659 12.498-7.529 17.86 0.518-0.184 1.556-0.551 2.081-0.735 0.656-1.306 1.897-2.087 3.17-2.744-0.597 1.542-1.352 3.006-2.166 4.431 0.354 0.794 0.676 1.602 1.155 2.369 2.118-0.879 4.063-4.684 15.222-4.621 4.785 1.037 9.806 0.335 14.454 2.14 1.227 0.131 2.501 0.315 3.643 0.899 0.433 7e-3 1.306 0.013 1.739 0.02 0.295 0.216 0.886 0.65 1.182 0.86 0.473 0.02 1.411 0.046 1.884 0.066 1.621 0.748 3.413 0.742 5.186 0.82-10.94 7.168-29.667 16.089-64.444 50.877-0.328 0.105-0.991 0.315-1.319 0.42-5.332 6.019-12.727 12.12-17.729 25.468-4.165 27.177 5.736 12.082 4.404 47.713 0 3.446-2.153 6.216-3.774 9.065-10.227 16.857-23.467 0.164-37.762 5.612-3.853 0.144-7.509 1.634-10.83 3.472-7.446 11.04-2.017 6.886-10.45 17.44 0.085 0.971-0.781 3.026 0.912 3 2.297-1.943 4.437-4.102 7.109-5.56-0.039 2.921-2.869 4.404-4.142 6.754-0.059 1.004-0.118 2.015-0.059 3.033 2.317-0.742 3.998-2.816 6.485-3.216 24.756-4.296 25.432 3.639 37.788 4.851 12.235 3.316 20.625 3.431 17.434 24.976-4.023 10.17-6.554 14.016-4.142 25.153 2.234 10.865 11.289 22.306 20.25 28.842 1 0.714 28.257 30.635 72.708 53.443 7.23 3.412 19.636 10.645 19.383 6.367-1.352-3.085-4.057-5.264-5.809-8.087 3.814 1.024 7.811 4.667 11.802 2.343-1.227-3.525-3.951-6.118-6.295-8.894 1.595-0.21 4.66 1.05 5.297-1.149-0.446-3.604-3.656-5.967-6.052-8.369 0.407-0.676 0.84-1.339 1.286-2.002-1.208-4.037-4.319-6.853-7.253-9.656 0.578-3.938-1.864-7.404-4.516-10.03-1.641-1.391-1.621-3.65-2.291-5.52-1.05-3.282-4.536-5.14-5.12-8.632-0.578-2.763-2.153-5.048-3.735-7.292 0.099-5.343-3.197-9.774-6.682-13.482 0.578-0.545 1.175-1.09 1.799-1.621-1.293-2.475-3.413-4.293-5.225-6.347-0.039-2.251 2.258-4.089 1.273-6.433-1.142-3.531 0.512-7.023 0.742-10.548 0.981-9.511 3.669-11.54 2.146-27.883 3.111-0.322 6.032-1.47 9.025-2.337 0.761 0.926 1.615 1.812 2.672 2.461 29.214 19.711 40.124 27.621 50.588 23.63 2.186-0.689 2.1-3.485 3.866-4.693 0.998-1.05 2.665-1.621 3.256-3.006 0.499-2.888 0.722-5.953 2.363-8.494 1.772-0.637 3.387-1.595 4.365-3.295-0.341-2.468-0.144-4.982-0.722-7.411 1.529-3.321 4.188-6.006 5.396-9.511-0.61-1.044-1.891-1.982-1.444-3.328 0.591-3.577 3.892-6.17 3.958-9.918-0.78-5.205-5.135-4.003-1.188-13.686-0.65-2.297-0.794-4.844-2.409-6.728-1.162-1.982-3.715-3.282-3.663-5.816-0.53-9.828 0.062-7.952-4.26-11.861-3.065-2.048-1.851-6.472-4.096-9.104-1.437-1.017-3.275-1.477-4.378-2.914-1.418-1.542-0.518-4.181-2.31-5.448-1.917-1.464-4.142-2.416-6.21-3.604 0.197-1.72 0.466-3.433 0.729-5.139 0.709-0.519 1.49-0.991 2.179-1.602 1.49-3.183 1.227-6.82 1.103-10.24 1.208-0.912 2.422-1.831 3.669-2.731-0.177-3.84 0.394-8.271-2.521-11.283 0.394-1.346 0.926-2.665 1.812-3.787 0.486-1.392 0.217-3.663 2.16-3.925 6.383-2.088 4.383-9.645 4.391-11.323 3.643-1.753 2.212-6.144 2.363-9.321 4.008-7.809 0.827-22.974 0.86-31.802 1.247-2.343 4.372-1.91 6.302-3.433 3.459 0.23 6.892-1.917 10.286-0.309 5.673-3.121 12.148-0.107 21.018 0.459 2.921 0.755 6.157 0.059 8.861 1.654 10.062 0.972 11.018-0.214 13.095 1.378 1.181-0.624 2.356-1.306 3.544-1.976 0.433-2.061 1.313-3.971 2.77-5.533 1.943-3.512 2.074-7.732 3.86-11.342 1.836-3.37 2.059-13.217-2.413-19.092zm-135.45 166.21c-1.746 1.621-4.161 0.387-6.177 0.21-1.116-1.739-0.86-3.722-0.236-5.579 0.987-11.725-0.669-10.269-1.562-23.525-3.319-19.084 0.58-10.145-4.575-19.101-0.772-2.038 2.155-1.876 6.275-7.916 2.442 10.272 3.741 20.768 6.216 31.041 0.217 0.939 5.794 17.853 5.908 18.333-2.246 1.916-3.926 4.338-5.849 6.537z"/>
	<path d="m362.59 643.82c0.998-0.479 2.002-0.958 3-1.438-0.906-1.897-1.28-4.358-3.446-5.258-1.136-0.499-0.893-1.969-1.254-2.941 0.794-0.453 1.595-0.893 2.402-1.332-0.433-0.637-0.853-1.267-1.273-1.884 0.735-0.512 1.47-1.024 2.212-1.523-0.683-1.523-1.7-2.829-3.052-3.8-7e-3 -0.407-0.02-1.221-0.026-1.628-0.663-0.315-1.326-0.63-1.982-0.932 0.026-0.479 0.079-1.437 0.105-1.917-0.361-0.466-0.722-0.932-1.07-1.392 0.039-2.415-2.232-3.531-3.82-4.87 0.82-0.775 1.641-1.549 2.442-2.337-0.985-0.414-1.969-0.801-2.954-1.201 0.203-1.136 0.479-2.258 0.551-3.4-1.352-1.956-3.105-3.604-4.877-5.172 0.112-3.551-1.825-7.227-4.969-8.973-1.221-0.591-0.381-2.127-0.61-3.17-4.142-1.398-5.632-6.689-10.187-7.417-6.029 0.893-18.109 12.583-29.275 19.685-4.798 2.947-9.537 6.439-12.347 11.441-4.037 0.965-8.303 0.565-12.268-0.532 0.965-0.912 2.389-1.635 2.461-3.138 0.249-2.14 1.083-4.608 3.636-4.706 0.427-1.687 0.112-3.387-0.374-5.015 3.188-4.586 1.605-2.29-0.558-10.916 0.289-0.663 0.584-1.319 0.886-1.969-0.558-2.612-2.114-4.792-3.367-7.082 0.985-0.912 2.087-1.667 3.151-2.475-1.044-2.704-2.612-5.126-4.194-7.535-1.654-1.851 0.958-4.267-0.453-6.164-0.912-1.582-2.475-2.823-2.921-4.641-0.197-1.798 0.499-3.538 0.558-5.317-1.136-2.639-3.341-4.588-5.376-6.525-1.365-1.372-0.282-3.656-1.457-5.126-1.628-2.278-3.709-4.162-5.579-6.223 0.276-1.444 0.604-3.38-1.05-4.142-2.461-1.221-3.354-4.411-6.177-5.021-2.626-0.729-5.487 1.956-7.739-0.151 2.691-3.275 5.894-6.17 8.297-9.649 0.558-4.404-0.775-8.756-2.757-12.655 8.35 1.543 23.024 14.891 29.695 8.776 1.155-2.468 3.256-4.142 5.251-5.894 1.654-2.593 2.068-5.763 2.521-8.75 1.588-3.295 0.676-7.017 1.621-10.463 1.726-1.221 2.685-3.118 3.459-5.015-0.65-2.343-2.783-4.706-1.49-7.168 2.238-4.457 1.378-9.833-0.486-14.276-0.263-2.54-0.098-5.369-1.739-7.496-0.847-1.214-1.89-2.402-1.844-3.978-0.282-3.984-2.402-7.47-3.564-11.218-0.781-2.77-3.046-4.66-4.765-6.826-1.352-3.118-1.943-6.551-3.525-9.583-1.805-3.046-6.006-3.663-7.529-6.951-1.3-2.514-3.138-4.66-5.264-6.505-6.641-12.147-12.372-6.052-16.193-9.826-1.628-0.013-3.256-0.013-4.884-0.033-4.713 2.619-6.8 7.837-9.564 12.169-16.456 24.212-16.939 22.351-20.716 29.813-1.201 1.976-1.713 4.785-4.253 5.487 0.354-2.291 0.952-4.647 0.295-6.938-0.368-2.009-1.602-3.905-1.201-5.999 0.584-1.877 2.79-3.072 2.56-5.238-0.19-2.973-2.475-5.297-2.888-8.238 0.302-0.276 0.906-0.827 1.208-1.103 0.164-3.157-1.556-5.842-3.472-8.172 0.807-1.536 2.153-3.302 0.998-5.028-0.952-3.164-3.774-4.975-6.111-7.036 0.932-2.521-0.729-4.765-1.536-7.05 2.717-2.311 3.046-6.052 3.321-9.367-0.545-1.68-1.569-3.144-2.488-4.628 3.618-10.562-0.478-12.181-2.12-13.581 1.733-2.507 1.096-5.763 1.346-8.638 0.243-2.796-2.731-3.984-4.897-4.674 0.263-0.309 0.794-0.925 1.057-1.227-0.018-7.693 1.85-7.793-4.739-11.723 2.341-12.615-2.083-11.793-4.155-12.215 1.772-2.639 1.746-5.894 1.392-8.933-0.256-1.91-1.877-3.151-2.842-4.7 0.295-3.413 1.464-6.945 0.394-10.345-0.374-1.661-2.192-2.009-3.492-2.645 0.387-3.295 1.293-7.614-1.969-9.8-2.803 1.214-3.787 4.378-6.367 5.849 0.416-6.28 2.087-8.62-2.803-11.126-2.868 2.58-4.785 6.026-7.739 8.507 0.381-3.236 1.818-6.662 0.223-9.813-2.617-10.757-41.713 54.003-42.377 122.74 0.164 0.223 0.499 0.676 0.663 0.899 1.877 6.695 2.16 13.797 5.087 20.191 4.739 12.139 2.329 30.856 1.608 33.397-4.633 16.34-14.291 12.382-19.816 12.715-10.814-0.422-22.613 0.47-26.339 10.469-1.91 4.718-9.23 12.485-8.095 17.864 1.575-1.56 3.058-3.226 4.884-4.519-0.631 1.78-1.757 3.31-2.617 4.976-0.396 1.004 0.86 1.666 1.263 2.503 1.491-1.415 2.899-3.165 5.075-3.515 23.949-6.642 29.191 2.593 48.504 4.484 0.548 0.054 12.302 1.024 12.613 1.405 4.654 5.711 10.043 11.598 11.1 19.193 0.545 3.86 2.652 7.26 3.289 11.1 1.746 7.791 6.124 15.963 14.001 18.904 2.173 0.742 3.394 2.803 4.818 4.45 12.514 15.914 23.235 9.033 26.256 48.238-0.381 6.794-5.947 12.531-12.268 14.441-9.599 1.232-25.383-2.694-31.894 9.944-0.496 1-7.785 9.942-7.141 14.972 2.127-1.116 3.873-2.77 5.816-4.155-0.906 2.52-3.229 4.398-3.118 7.286 4.076-1.116 9.285-5.005 18.11-3.676 0.218 0.027 21.242 7.243 30.758 9.038 1.405 0.276 3.636 0.768 3.308 2.691-0.677 32.517-3.946 30.932-11.782 51.783-2.932 7.057-6.104 20.713-3.682 26.925 3.996 8.833 1.401 83.711 1.438 84.714-7e-3 1.004 0.939 1.634 1.437 2.429 5.586-1.877 7.424-8.461 7.352-13.771 2.16 4.45 1.096 9.675 2.678 14.316 0.519 0.184 1.549 0.558 2.068 0.742 5.944-4.085 5.199-13.552 5.271-14.552 1.595 2.56 1.392 5.678 2.219 8.474 0.61 1.47 2.422 1.109 3.689 1.405 2.061-2.77 4.011-5.783 3.938-9.38 5.646 2.245 6.818-0.032 8.638-9.741 4.582-1.464 7.043-6.341 7.201-10.896 3.477-1.136 4.562 0.081 7.312-10.85 0.604-0.814 1.766-0.433 2.626-0.584 1.7-0.026 2.993-1.3 4.411-2.061-0.138-0.532-0.42-1.582-0.558-2.107 1.739-1.871 1.844-4.372 2.133-6.761 3.956-2.251 8.269 1.427 7.568-11.067 9.789-1.628 7.712-10.582 5.52-12.065-1.884-1.739-5.802 0.591-6.498-2.566 1.831-0.801 3.728-1.405 5.704-1.707-0.729-0.899-1.464-1.785-2.192-2.665 1.181-0.105 2.389-0.033 3.571-0.256 1.976-0.991 3.531-2.626 5.271-3.958 0.138-2.553 1.063-4.923 2.475-7.03-0.236-0.414-0.466-0.827-0.696-1.221 1.201-0.604 2.744-0.899 3.525-2.081 0.473-1.923 0.781-3.879 1.247-5.802 1.831-1.707 5.323-3.243 4.641-6.223-1.424 0.138-3.229 0.847-3.86-0.945 2.934-2.409 4.398-5.96 6.4-9.111-0.479-1.168-0.952-2.324-1.405-3.492 0.926-2.586 1.707-5.218 2.842-7.726-0.407-1.109-0.86-2.192-1.181-3.315 0.223-2.094 1.241-3.991 1.871-5.966-0.053-2.232-1.634-4.129-1.569-6.387 7e-3 -2.304-0.295-4.575-1.26-6.682-0.991-1.897 0.433-3.833 0.282-5.763-0.466-1.247-1.332-2.271-2.074-3.354 0.138-0.492 0.414-1.477 0.551-1.969 2.186-1.07 4.056 1.411 6.249 0.735 1.273-0.492 1.864-1.858 2.803-2.763 0 0 28.507 19.596 40.722 25.534 9.379 4.775 10.259-3.474 14.322-5.658 0.985-2.553 3.236-4.47 3.604-7.253 0.532-1.877 1.444-3.728 3.131-4.818 0.551-1.726 0.19-3.479-0.407-5.126 0.538 0.033 1.615 0.112 2.153 0.144 0.158-0.971 0.348-1.93 0.545-2.888-0.263-0.63-0.525-1.254-0.781-1.871 1.529-2.1 1.772-4.614 1.208-7.089 0.715-0.433 1.438-0.853 2.16-1.273-0.454-0.813-0.887-1.601-1.314-2.402z"/>
	<path d="m856.28 876.91c0.781 3.571-0.788 7.01-0.893 10.561 4.332-3.464 4.359-7.281 9.531-8.546 1.208 3.84-0.683 7.483-1.805 11.067 4.212-2.824 5.831-6.125 7.26-1.726 0.414 2.311-0.912 4.47-1.582 6.616 2.068 1.247 2.704 3.499 2.862 5.783-0.446 1.063-1.057 2.1-1.162 3.282 0.722 1.51 2.1 2.829 2.022 4.634 0.249 1.707-0.715 3.269-0.82 4.936 0.473 0.446 0.971 0.88 1.497 1.306 1.103 2.435 0.217 4.949-0.282 7.398 4.601 6.306-1.03 7.578-0.945 17.9 2.662 3.373 3.029 0.903 3.236 6.958-0.328 0.217-0.971 0.65-1.3 0.867 0.23 0.328 0.676 0.998 0.906 1.326-0.446 7e-3 -1.339 7e-3 -1.785 0.013 2.002 1.477 3.374 3.564 4.621 5.691 0.781 0.84 0.459 1.976 0.427 3.026 1.851 1.221 3.499 2.776 4.358 4.877-0.223 0.571-0.663 1.7-0.886 2.265 5.124 5.832 2.669 4.891 3.269 8.166 2.777 6.064 1.729 2.578 1.346 7.509 1.88 10.843 1.284 17.444 3.203 23.335 17.615 2.929 52.927-18.522 59.055-10.483 1.785 2.639 4.378 4.765 5.501 7.818 0.256 0.21 0.768 0.617 1.024 0.82 0.112 0.315 0.335 0.939 0.446 1.254 2.087 1.457 0.82 3.984 0.952 6.072 0.644 3.963 3.626-0.202 0.374 15.786-0.407 2.192-1.037 4.372-0.912 6.643-7.949 7.384-29.544-0.857-53.489 0.893-2.048 1.057-3.84 2.586-6.006 3.42-1.286 0.715-3.065 0.906-3.807 2.31 0.157 1 4.692 9.857 4.253 20.296 0.532 0.381 1.083 0.768 1.641 1.175-0.164 2.744-1.195 5.369-1.188 8.133 2.666 3.345-1.736 0.667-6.912 5.757 1.575-0.453 3.085-1.135 4.673-1.575 0.84 0.157 1.7 0.085 2.547-0.099-1.733 1.49-1.352 3.846-1.483 5.888 2.578 2.521-0.15 7.712-1.969 10.804 0.617 1.247 0.985 2.599 0.105 3.84-0.125 1.346-0.243 2.704-0.341 4.063-0.466 0.676-0.906 1.379-1.339 2.087 1.693 3.032 1.943 6.662 1.313 10.03-0.394-0.906-0.715-1.825-0.958-2.75-0.473-0.676-0.939-1.345-1.392-1.995-0.794-0.112-1.575-0.171-2.343-0.19-1.129 0.269-1.181 1.759-0.459 2.501 0.637-0.236 1.28-0.486 1.923-0.748 0.328 0.236 0.991 0.722 1.326 0.958-0.184 0.263-0.558 0.775-0.742 1.031 0.551 0.761 1.109 1.536 1.654 2.343-0.374 1.674-0.761 3.367-0.735 5.107 3.964 7.011 8.126 11.283 4.608 16.495 2.27 6.57 2.16 2.774 2.133 10.273-0.604 0.433-1.195 0.88-1.772 1.339 1.011 2.567 2.639 5.126 2.212 8.015-0.013 1.638-3.853 4.4 0.807 10.66-0.597 1.529-1.392 2.973-2.035 4.496 1.319 3.302 3.518 6.702 2.278 10.41-2.711 0.499-4.404-1.693-6.334-3.131 0.834 4.05 4.385 8.284 1.989 12.406-3.367-1.221-5.612-4.102-7.837-6.741-0.387 2.566 0.637 5.087 0.558 7.68-9.929 0.534-38.817-49.947-39.456-50.956-34.263-57.235-13.141-55.629-18.287-91.645-32.333-4.61-36.572-7.653-44.201-1.451-1.556 1.201-2.842 2.803-4.733 3.505 0.525-1.91 1.372-3.715 2.008-5.579-1.385 1.168-2.475 2.619-3.505 4.103-0.459-0.972-0.742-2.048-0.118-3 1.595-3.4 3.17-6.807 5.094-10.03 5.439-18.586 30.307-4.948 38.93-25.363 7.326-35.366-39.306-16.271 17.9-111.59 12.161-18.83 10.616-16.692 13.971-18.326z"/>
	<path d="m1214.3 947.24c-0.249 3.636-1.726 6.984-3.282 10.227 3.006-1.917 4.982-5.796 8.815-6.091 0.44 4.503-3.131 7.581-5.291 11.047 2.98-1.595 4.759-5.533 8.513-5.409 0.558 3.144-1.431 5.632-3.21 7.955 0.978-7e-3 1.969 0 2.98 0.013 0.61 2.862-1.03 5.33-2.501 7.621 1.441 2.917 2.323 2.56-0.381 8.165 1.72 2.402 0.912 5.415-0.138 7.916 3.284 8.048-1.129 3.739-1.201 12.806 1.201 0.912 2.081 2.14 2.888 3.413-0.466 2.087-0.932 4.188-1.726 6.183 1.109 1.273 2.481 2.599 2.291 4.47-0.315 2.56 2.1 4.089 3.439 5.927-0.079 0.735-0.144 1.49-0.19 2.251 2.509 2.789 5.649 12.905 5.625 16.278 2.452 7.732 0.029 3.985 1.858 9.793-0.453 0.65-0.893 1.3-1.319 1.969 0.269 0.61 0.558 1.234 0.853 1.871-0.131 1.418-0.21 2.842-0.335 4.273 14.508 3.279 17.821 1.107 21.523 0.735 2.186-0.026 4.496 0.427 6.538-0.637 3.328 0.309 6.492-0.932 9.806-0.919 0.308-0.164 0.926-0.492 1.241-0.656 4.392 0.02 15.097-3.815 17.808-0.276 2.048 2.54 4.897 4.7 5.75 7.995 0.479 1.943 1.969 3.748 1.326 5.862-0.735 1.779 0.781 3.151 1.398 4.7-0.256 1.122-0.939 2.094-1.438 3.124 0.479 1.569-0.781 2.593-1.733 3.604 0.105 0.243 0.322 0.729 0.427 0.972-1.385 1.51-2.009 4.49-4.516 4.28-9.688 0.112-19.344-1.017-28.815-2.98 1.063 0.788 2.186 1.562 3.085 2.579 0.44 0.026 1.333 0.079 1.779 0.099-3.446 2.245-7.673 1.661-11.526 2.278 2.776 1.241 5.967 1.91 7.936 4.457-1-0.121-12.773-2.603-18.55-5.133-3.111 0.046-6.144 1.076-9.203 1.595-0.131 0.67-0.25 1.346-0.354 2.041 0.683 2.028-0.538 4.05-0.013 6.091 0.157 1.359-0.781 2.547-1.267 3.768 0.203 0.315 0.617 0.958 0.82 1.28-1.129 2.068-3.229 4.207-1.693 6.643-1.543 2.199-3.59 3.991-6.032 5.12 1.47 0.112 3.052 0.204 4.188 1.319-0.88 0.912-1.739 1.831-2.612 2.731 4.313 11.541-2.509 7.624-4.562 7.542 4.011 2.488 8.861 5.619 9.038 10.903 0.44 1.392-1.129 1.785-1.969 2.448 1.582 2.245 2.763 4.844 2.422 7.673-0.499 0.473-0.978 0.958-1.438 1.464 1.93 2.632 4.372 6.662 1.405 9.518 1.615 2.521 3.59 5.126 3.183 8.323-0.591 0.105-1.779 0.315-2.37 0.42 1.989 2.442 3.997 5.185 3.597 8.54-2.521 0.184-4.207-1.812-6.118-3.078 1.746 3.151 4.503 6.242 3.984 10.115-3.387-0.066-5.474-3.269-8.074-4.995 1.405 3.315 3.735 6.459 3.439 10.253-14.887-5.767-65.184-65.131-58.445-84.182 1.05-3.971 3.682-7.246 5.658-10.778-7e-3 -0.939 0-1.858 0.033-2.763-18.513-7.006-9.623-3.19-20.105-6.413-0.368 0.335-1.103 1.004-1.47 1.339-0.269-0.348-0.801-1.037-1.07-1.378-1.602 0.138-3.19 0.315-4.772 0.505-0.302-0.853-0.591-1.7-0.853-2.534-6.479-1.753-14.04-2.626-19.836 1.47-0.21-0.807-0.361-1.615-0.453-2.409 1.037-1.818 2.468-3.374 3.505-5.192 2.891-4.227 4.613-15.405 24.457-10.03 8.647 2.177 16.209-2.255 18.261-7.667 2.289-25.742-20.132-18.815-6.098-48.061 7.224-18.854 39.477-61.159 45.09-62.383z"/>
	<path d="m483.19 1008c0.65 0.519 1.3 1.037 1.963 1.569 0.197 3.275 0.151 6.564-0.203 9.839 2.553-3.243 3.695-7.358 6.433-10.496 0.761 0.742 1.595 1.457 2.258 2.324 0.807 2.731-0.249 5.533-0.88 8.205 1.293-1.904 2.678-3.781 4.647-5.035 0.715 0.742 1.438 1.51 2.153 2.284-0.098 1.096-0.177 2.212-0.249 3.334-0.473 0.755-0.926 1.523-1.378 2.311 0.499 0.033 1.497 0.112 1.995 0.151 0.512 0.492 1.031 0.998 1.549 1.51 0.203 2.048 0.164 4.135-0.591 6.085 2.691 1.26 3.052 4.28 3.118 6.925-0.276 0.276-0.834 0.82-1.116 1.096 2.086 1.809 3.428 0.315 4.122 7.483-0.282 0.361-0.847 1.09-1.136 1.451 1.103 0.545 2.212 1.116 3.269 1.772 0.597 2.711 1.149 5.422 0.151 8.126 0.689 2.672 0.926 5.415 0.715 8.185 0.676 0.722 1.372 1.431 1.956 2.265-0.026 1.628-0.473 3.229-0.788 4.838 1.438 0.919 2.796 1.956 4.076 3.098-0.164 0.505-0.486 1.523-0.643 2.035 1.103 1.168 2.166 2.389 3.229 3.61-0.171 0.387-0.525 1.162-0.702 1.549 1.372 1.405 2.862 2.744 3.728 4.562-0.249 0.302-0.742 0.912-0.991 1.214 1.031 1.3 2.33 2.527 2.783 4.181-0.217 0.807-0.683 1.549-0.801 2.402 0.597 1.792 1.372 3.531 2.028 5.317-0.217 0.335-0.65 1.011-0.866 1.346 0.381 1.647 0.729 3.315 1.037 4.995-1.51 3.478-0.959 7.845-0.223 11.671-0.289 0.302-0.866 0.899-1.155 1.201 7.581-0.249 15.163 0.788 22.527 2.54 6.529 1.097 29.567-2.091 35.268-1.687 3.105 0.748 5.789 2.593 8.52 4.188-0.112 0.433-0.335 1.3-0.44 1.726 0.794 0.715 1.575 1.464 2.35 2.225-0.63 1.182-1.26 2.37-1.943 3.525 0.624 1.897 1.188 3.906 2.79 5.264 0.903-3.714 5.59-20.897 8.382-23.466 0.827 0.335 1.641 0.755 2.455 1.168 0.374 2.028 0.669 4.083 0.794 6.157 1.405-2.731 2.12-5.789 3.958-8.284 1.004 0.473 2.009 0.991 3.019 1.497 0.19 1.575 0.558 3.138 0.998 4.68 0.518-0.63 1.05-1.247 1.582-1.858 0.998 0.735 2.376 1.214 2.914 2.435 0.256 1.707 0.099 3.453 0.079 5.185 1.392 0.25 2.678 0.847 3.945 1.484 0.525 2.081 0.486 4.234 0.151 6.347 3.215 2.981 3.229 1.874 2.954 8.973 0.814 0.899 1.634 1.805 2.481 2.704 0.282 1.923 0.223 3.873 0.177 5.829 0.735 0.407 1.503 0.801 2.291 1.168 0.873 2.35 0.683 4.89 0.781 7.358 0.971 0.958 1.707 2.094 1.707 3.525 2.506 9.33 4.044 10.037 3.019 13.016 2.501 1.877 3.413 5.133 6.098 6.82 0.118 0.722 0.243 1.457 0.374 2.212 6.606 5.676 14.298 26.185 11.211 38.891 3.38-0.807 6.853-0.25 10.279-0.4 3.026-0.63 21.588-8.684 28.113-9.629 0.328-0.164 0.978-0.492 1.306-0.65 5.463 0.205 8.426-2.317 12.859 8.185 2.212 1.254 2.987 3.82 4.293 5.855 0.4 2.212 0.118 4.496 0.203 6.754 0.505 0.775 1.09 1.536 1.464 2.422-2.199 12.062-0.507 19.587-25.875 14.204-2.553-0.853-4.844 1.017-7.24 1.589 1.07 0.341 2.179 0.683 3.19 1.234 0 0-7.735 0.574-11.159 1.017-0.479-0.118-1.444-0.354-1.923-0.473-0.466 1.549-0.952 3.092-1.385 4.66 0.781 1.923 0.112 3.82-0.322 5.717 1.188 2.002 0.328 4.017-0.912 5.75 0.295 0.958 1.011 1.904 0.801 2.993-0.597 1.024-1.398 1.917-2.127 2.869 0.67 0.394 1.339 0.801 2.028 1.214-2.989 3.37 1.821 12.739 1.844 15.996-0.328 0.223-0.978 0.663-1.306 0.886 0.105 0.341 0.302 1.031 0.4 1.378 1.648 1.195 2.442 3.039 2.468 5.061-0.473 0.118-1.418 0.361-1.884 0.479 3.36 5.679 2.026 4.659 1.057 7.083 1.497 1.464 2.56 3.328 2.435 5.494-0.578 0.335-1.149 0.676-1.707 1.044 0.709 0.965 1.438 1.936 2.225 2.875 0.046 0.656 0.098 1.326 0.164 2.009-0.985 0.61-2.002 1.182-3.17 1.319 1.044 0.965 2.114 2.015 2.455 3.479-0.354 1.457-1.739 2.068-2.987 2.619-0.729-0.571-1.457-1.129-2.186-1.667 0.768 1.667 1.227 3.453 1.247 5.304-0.84 0.315-1.661 0.67-2.514 0.919-2.685-1.332-4.982-3.341-7.693-4.647 0.893 1.51 2.396 2.875 2.238 4.792-9.333 6.027-48.425-39.009-49.255-53.588-1.575-5.999 0.899-12.419-1.628-18.241-28.688-0.77-29.368-12.438-45.672 0.486-0.315-2.717 1.904-4.621 2.882-6.925-2.048 1.208-3.42 3.19-5.14 4.785-0.729-3.525 2.081-6.144 3.558-9.006 1.969-2.737 2.028-6.853 5.231-8.612 9.189-5.126 19.182-2.664 23.532-4.608 19.189-12.021-9.83-30.385-8.454-50.109-0.074-1.986 3.265-25.673 8.743-47.418-1.214 1.418-2.238 2.993-3.302 4.536-14.319 4.57-34.764-1.437-51.809 2.12 1.122 0.952 2.343 1.785 3.676 2.442 0.23 1.871-1.542 2.77-2.75 3.807 0.886 1.483 2.35 2.415 3.787 3.321 11.125-1.935 10.993-3.669 13.141-2.311 1.221 0.761 2.619 0.801 4.004 0.571-2.632 2.987-7.214 1.785-10.351 4.037 3.892 0.939 8.087 0.65 11.795 2.258 0.939 0 1.877 0.02 2.822 0.059-1.267 1.628-3.499 1.024-5.271 1.142 0.689 0.578 1.378 1.175 2.055 1.805-16.682-0.959-13.839-1.47-22.357-5.763-1.464 0.341-2.934 0.656-4.398 0.978 0.591 0.656 1.227 1.267 1.746 2.009-0.112 1.621-1.142 3.295-0.414 4.897 0.761 1.812-0.374 3.722-0.341 5.612l-1.057-0.256c0.985 1.017 1.608 2.192 1.116 3.656 0.328-0.052 0.985-0.158 1.313-0.203v0.564c-0.394-0.059-1.188-0.171-1.582-0.223-0.374 0.84-0.742 1.693-1.109 2.56 0.519 0.624 1.044 1.254 1.582 1.897-0.735 1.864-1.969 3.433-3.571 4.641 0.761 1.497 1.766 2.895 2.258 4.529-0.052 1.063-0.775 1.943-1.195 2.901-0.44-6e-3 -1.319-0.013-1.766-0.013 0.118 0.853 0.236 1.733 0.361 2.619 0.702 0.105 1.411 0.217 2.127 0.348 0.696 1.07 1.405 2.14 2.094 3.236-0.249 0.394-0.742 1.188-0.985 1.582 1.431 1.884 3.157 3.912 2.875 6.472 0.322 1.464-1.195 2.048-2.068 2.868 1.378 2.343 1.995 5.002 1.621 7.726-0.788 0.348-1.556 0.722-2.33 1.096 1.628 2.914 3.466 7.503 0.269 9.997 2.985 6.395 2.724 6.505-0.144 9.084 0.991 1.549 1.904 3.157 2.934 4.7-0.308 0.866-0.466 1.844-0.991 2.652-1.943 0.315-3.538-1.103-5.231-1.772 0.683 1.175 1.405 2.363 2.16 3.518-0.069 8.046-5.353 1.344-7.562-0.131-0.053 1.286-0.099 2.593-0.171 3.906-1.136-7e-3 -2.271 0-3.4 0.02-22.557-12.645-45.892-59.612-47.359-68.054-2.191-5.993 0.866-7.281 0.243-22.895-9.33-1.049-24.879-3.747-28.153-5.08-3.834-0.316-10.145-2.851-19.711 4.148-2.831-4.862 3.654-9.019 6.656-15.642 2.434-4.752 8.035-5.678 15.931-7.358 5.98-0.787 9.331 2.072 16.554-7.325 3.424-4.971-0.431-20.614-4.601-26.649-7.36-10.861-2.224-19.466-1.28-25.927 1.397-9.626 20.523-59.987 23.733-64.235z"/>
	<path d="m391.82 1204.6c-2.055-3.86 1.779-8.317-0.735-12.032-1.155-1.838-1.346-4.096-2.606-5.875-1.142-1.726-0.492-4.221-2.205-5.606-11.224-10.996-32.651 3.538-41.326 3.006-0.322 0.158-0.958 0.46-1.28 0.61-4.393 0.547-16.26 4.267-17.276 4.595-3.807 0.158-7.529-0.689-11.237-1.405-0.066-1.661-0.177-3.302-0.374-4.936 1.707-3.197 0.912-6.964 2.186-10.272 0.906-2.619-0.033-5.428 0.427-8.1 0.492-1.726 1.181-3.387 1.602-5.126-2.937-7.422-0.632-8.293-0.151-11.94-0.249-1.7-1.332-3.085-1.949-4.634-0.315-2.593 0.807-5.212-0.02-7.765-0.683-1.661-1.871-3.052-2.547-4.7-0.013-1.582 0.394-3.124 0.67-4.66-1.011-2.081-2.77-3.689-3.748-5.776-0.066-2.422 0.801-4.956-0.354-7.24-1.779-4.175-0.709-8.743-0.538-13.088-1.109-5.78-2.618 0.789-2.087-14.46-0.361-1.149-1.195-2.048-1.904-2.974-0.886 0.066-1.772 0.144-2.645 0.243-1.267 0.755-2.612 1.359-4.024 1.779-0.158-1.424-0.341-2.816-0.551-4.214 2.706-6.457 4.441-6.102 6.8-16.594 0.722-3.564-1.976-6.387-3.315-9.399 0.335-1.831 0.781-3.65 0.998-5.494-1.116-2.796-1.812-5.986-4.299-7.949 1.141-2.384 2.352-10.388-3.144-12.616 0.232-1.406 2.489-10.408-3.545-10.456-1.851 1.707-3.558 3.558-5.199 5.468 0.072-1.372 0.276-2.783-0.249-4.083-0.939-1.904 1.109-3.86-0.066-5.757-0.302-2.022-1.969-3.098-3.84-3.426-2.855 2.967-4.418 6.846-7.168 9.885 0.571-2.993 0.538-6.032 0.203-9.045-1.142-0.341-2.291-0.643-3.439-0.919-14.611 14.633-42.734 104.4-34.546 135.22 4.839 18.874 2.576 25.117 2.941 35.498-0.039 3.341-0.295 7.141-2.934 9.563-3.073 2.821-5.084 5.755-9.444 6.668-12.955 2.712-30.299-3.529-37.44 10.333-0.496 1-7.785 9.942-7.141 14.972 2.127-1.116 3.873-2.77 5.816-4.155-0.906 2.52-3.229 4.398-3.118 7.286 4.077-1.116 9.285-5.005 18.11-3.676 14.497 2.183 17.912 7.889 39.972 11.696 1.483 7.325 3.439 14.644 3.61 22.173 0.171 4.853-2.581 18.8 0.584 30.049 3.641 11.611 18.708 44.037 27.05 55.668 18.989 27.456 31.176 25.97 30.686 19.567 2.888 1.792 6.59 4.148 9.872 1.825 0.184-1.168 0.381-2.317 0.591-3.459-0.368-0.932-0.735-1.871-1.083-2.783 2.573 0.486 5.304 3.052 7.745 0.906 2.107-1.503 0.709-3.978 0.249-5.921 0.853-0.952 1.923-1.674 2.685-2.691 0.952-2.107-0.939-3.932-1.372-5.875 0.571-1.989 1.549-3.86 1.844-5.921-0.512-1.359-1.497-2.494-1.884-3.886 1.454-3.596 5.689-6.224-5.835-18.248-0.053-1.595-0.158-3.164-0.368-4.726 0.256-0.21 0.768-0.624 1.024-0.834 1.51 0.558 3.183 1.635 4.779 0.637 1.897-0.735 1.076-3.144 0.939-4.654 0.059-0.322 0.171-0.958 0.23-1.28-0.4-1.7-0.729-3.407-1.103-5.094 2.481-7.668-2.138-8.512-0.492-12.793 0.899-2.212 0.354-4.522-0.125-6.741 1.411-1.864 2.356-4.083 2.127-6.452-2.691-2.127 0.053-4.87 0.663-7.279 0.742-1.884-1.063-3.564-1.024-5.442 0.197-1.575 0.669-3.105 0.827-4.673-0.144-2.061-1.733-3.761-1.72-5.842-0.085-2.219 0.65-4.706-0.958-6.557-2.055-2.468-0.683-6.052-2.639-8.559-1.234-1.812-1.877-4.109-1.602-6.275 1.287-1.687 3.623-1.956 5.468-2.763 2.586-0.715 4.995-2.941 7.811-1.963 1.004 0.239 44.573 9.349 56.023 3.269 0.794-2.415 1.641-4.824 1.923-7.358 0.63-2.547 0.151-5.291 1.365-7.68 1.178-2.282-0.686-4.566-1.171-6.791z"/>
	<path d="m1894.1 1114c1.07-0.223 2.153-0.44 3.262-0.637 0.013 2.882-0.965 5.606-1.667 8.363 2.616-1.92 1.947-1.997 6.262-5.435 0.912 0.164 2.875-0.558 2.836 0.991 0.63 3.334-1.47 6.131-3.151 8.769 2.16-1.378 4.135-3.466 6.932-3.223 0.571 2.77-0.177 5.533-1.949 7.719 0.243 0.217 0.729 0.663 0.971 0.88 0.151 3.059-0.65 6.242 0.453 9.203 0.676 2.304 0.302 4.765-0.545 6.984 0.63 0.4 1.286 0.82 1.969 1.241 0.643 2.251 0.42 4.588-0.144 6.833 3.433 2.422 1.562 7.594-1.201 9.852-1.459 6.366-0.863 5.462 0.735 8.907-0.565 1.746-1.346 3.446-1.615 5.277 0.781 2.199 1.529 4.417 1.628 6.787 1.827 1.841 5.056 13.987 4.929 16.259 0.579 1.558 1.049 11.465-0.755 19.108 7e-3 1.339 0.354 2.658 0.538 4.004 3.51 0.975 8.573 1.305 17.224-2.383 2.12 0.046 4.089-0.768 6.026-1.575 18.726-1.902 19.077-12.881 30.417-3.715-0.223 1.346 0 2.691 0.624 3.925 0.814 1.634 0.814 3.492 1.293 5.251 6.277 8.554 3.355 6.036 3.197 16.758-8.134 16.596 1.276 19.189-28.389 11.867-2.58-0.564-5.297-1.628-7.85-0.427 0.21 0.099 0.63 0.289 0.847 0.387 0.998 0.151 2.022 0.354 3.052 0.604-1.003 0.589-13.513 2.375-18.589 0.387-2.225-0.368-4.47 0.236-6.124 1.759-1.182 1.358-0.537 1.526-0.361 13.758-1.503 1.529-0.368 3.768-1.247 5.547-1.438 3.21-1.648 6.794-3.046 10.023 0.361 2.96-2.232 5.054-2.665 7.837-0.263 2.146-1.582 3.912-2.311 5.907 0.151 2.612 0.729 5.199 0.742 7.844-0.604 0.775-1.168 1.575-1.707 2.396 0.757 3.267-0.134 2.437 0.932 8.362-0.571 0.584-1.123 1.182-1.647 1.799 6.894 8.353 5.872 14.469 3.223 16.679 0.328 0.722 0.663 1.444 1.044 2.205-0.289 1.667-0.203 3.387 0.4 4.995-0.82 1.116-1.641 2.232-2.383 3.407 0.827 2.783 0.473 5.717 0.886 8.579-0.669 0.571-1.313 1.155-1.936 1.759 1.398 3.085 2.691 6.557 1.372 9.925-1.654-0.499-3.21-1.182-4.621-2.133 0.722 3.236 1.89 6.439 1.076 9.806-4.562-0.138-6.269-4.982-9.432-7.443 1.116 3.111 2.291 6.301 2.1 9.682-2.16-0.374-3.978-1.562-5.592-2.947-6.802-13.364-3.792 9.929-39.62-72.708-0.425-3.14-5.269-12.889-1.339-25.494 1.613-6.888 5.211-10.141 2.986-21.287-17.073-1.749-28.118-7.952-39.265 0.597-1.319-2.993 1.884-4.824 2.987-7.22-2.258 1.063-3.971 2.98-5.061 5.192-1.634-3.328 0.794-6.479 2.435-9.229 1.729-2.557 3.568-9.316 8.887-10.141 2.803-0.571 5.337-2.133 8.257-2.205 3.601-1.56 7.064 0.709 14.657-2.258 2.993-3.289 6.039-6.702 7.634-10.922 1.048-11.58-0.931-16.285-1.661-20.013-10.803-13.136 10.865-39.708 13.929-45.809 12.885-23.771 28.13-39.778 29.131-41.21z"/>
	<path d="m1635.2 1449.5c-1.096-1.529-2.068-3.144-2.554-4.956 0.44-0.256 1.313-0.761 1.753-1.017-0.939-1.713-2.409-3.026-3.519-4.595-0.394-1.438-0.361-2.954-0.814-4.359 0.276-0.164 0.821-0.486 1.09-0.65-0.584 0.059-1.753 0.177-2.337 0.236 0.157-1.477 0.308-2.928 0.387-4.385-1-0.633-6.353-5.426-12.02-2.481-5.724-0.131-10.904 2.803-16.504 3.341-0.263 0.184-0.788 0.558-1.05 0.742-0.886-7e-3 -1.753 0.013-2.6 0.046-0.217 0.177-0.643 0.538-0.86 0.722-3.272-0.113-7.989 0.923-9.387 1.418-2.12 0.105-4.221 0.295-6.269 0.788-5.022-0.88-10.28 0.02-15.151-1.621-1.339 0.079-2.659 0.171-3.958 0.276 0.289-2.704 0.492-5.415 0.847-8.107 0.42-0.696 0.84-1.379 1.293-2.041-0.151-1.674-0.236-3.341-0.302-4.995 1.799-2.803-0.171-5.862 0.295-8.849 0.354-2.619-0.551-5.179-1.766-7.437 1.635-2.718 0.157-5.941-1.871-7.962 0.972-3.105-0.394-6.105-2.436-8.389 1.012-6.984-3.963-6.681-3.177-10.588 0.302-2.278-1.031-4.083-2.508-5.606 0.15-5.249 3.569-5.217-1.582-12.984-0.407-0.072-1.214-0.21-1.621-0.282 0.138-2.061 0.322-4.116 0.545-6.151-0.525-1.313-1.096-2.593-1.825-3.774 0.939-4.195 2.291-9.203-0.565-12.945-0.473-0.02-1.418-0.066-1.891-0.085 1.175-4.359 1.484-10.437-3.118-12.899 2.19-10.926-2.243-11.28-3.847-12.334 0.243-3.184 0.703-6.499-0.656-9.505 16.938 1.039 21.654 5.484 24.106-6.991 1.648-1.083 0.578-3.111 0.394-4.615 0.466-0.092 1.405-0.263 1.871-0.348-0.361-0.249-1.083-0.755-1.444-1.004 0.138-0.256 0.407-0.768 0.538-1.024-0.263-0.683-0.505-1.346-0.722-2.002 0.703-2.133 0.322-4.372 0.407-6.558-2.6-2.803-1.372-6.951-3.565-9.925-1.477-2.652-3.006-5.376-5.599-7.096-0.309-1.812-0.644-3.61-0.991-5.389-1.497-1.103-3.217-2.094-3.913-3.899-0.853-2.199-3.118-3.203-4.661-4.805-0.965-2.921-4.516-2.501-6.749-1.444-0.407 0.059-1.228 0.177-1.635 0.236-1.765 3.187-24.412 16.616-27.46 18.281-2.081 2.462-5.291 3.374-7.858 5.192-1.976 0.033-3.945 0.112-5.908 0.171-0.453-1.562-1.832-3.269-0.788-4.844 1.93-2.777-0.466-6.177 1.017-9.045 1.142-2.494-0.768-5.074-0.453-7.621 0.894-7.72-0.429-5.97-2.212-9.833 0.538-1.969 1.923-4.03 0.932-6.092-1.024-3.289-5.219-4.391-5.35-8.054 1.135 0.61 2.265 1.28 3.407 1.943-0.429-5.322 0.109-6.255-5.33-9.525 0.86-2.645 0.374-5.56-1.858-7.339-2.803-2.199-0.716-6.702-3.86-8.612-1.95-2.199-4.937-2.212-7.622-1.995-0.519-0.551-1.024-1.09-1.51-1.608 2.871-4.887 8.238-6.535 6.847-17.034-0.473-2.882-2.337-5.172-3.611-7.7-1.396-5.218 4.039-2.805-2.475-13.85-0.565-1.674-0.722-3.453-1.352-5.1-1.321-0.953-2.708-8.208-8.777-10.227-0.899-0.696-1.805-1.365-2.705-2.015 0.41-4.327 0.125-10.202-4.228-10.496-0.855-6.351 0.396-3.667-2.987-7.726-0.709 0.387-1.405 0.788-2.081 1.195-0.899 1.871-1.746 3.761-2.764 5.573-0.098-3.702 0.407-8.271-3.092-10.667-0.67 0.368-1.319 0.742-1.956 1.122-1.208 2.284-1.523 4.969-2.961 7.129-0.105-2.238-0.722-4.405-2.468-5.888-0.867 7e-3 -1.707 0.033-2.534 0.072-2.481 6.958-4.142 14.172-5.541 21.419-0.722 2.573-0.834 5.343-2.12 7.733-1.09-0.013-2.147 7e-3 -3.197 0.053-10.187 4.782-23.2 3.123-24.441 2.619 0.867-1.109 2.252-2.055 2.278-3.597 0.4-2.593-1.346-5.14-0.256-7.66 0.689-1.746 0.203-3.558-0.243-5.278-0.545-1.877 0.354-3.82-0.131-5.684-0.518-1.917-1.713-3.676-1.424-5.724 0.197-1.726-0.926-3.138-1.556-4.615-0.834-1.556-0.552-3.479-1.576-4.923-10.606-16.409-4.053-9.12-9.401-15.413 0-2.416 0.729-4.759 1.175-7.115-0.578-1.234-1.136-2.468-1.641-3.709 2.554-2.311 5.39-5.1 5.482-8.776 0.085-2.219-1.031-4.641 0.591-6.557 1.707-2.238 1.116-5.317-0.302-7.529 1.523-2.67 4.528-5.624 1.05-8.711-0.243-3.19 3.263-5.376 2.35-8.717-0.781-0.794-1.51-1.608-2.193-2.442 1.188-1.641 2.797-3.308 2.816-5.461-0.637-1.621-3.584-2.127-2.009-4.28-4.084-2.833-6.634 1.206-11.685 1.95 0.505-2.179 1.891-3.938 3.177-5.704-6.346-6.948-40.093 28.121-47.233 38.689-39.052 46.183-17.032 44.683-10.464 66.731 1.046 2.919 3.223 13.227-4.208 20.959-8.761 4.602-16.409-2.442-30.92 6.571-3.066 1.858-3.144 5.842-5.311 8.396-2.632 3.039-4.517 6.617-6.932 9.827 0.473 0.676 0.978 1.392 1.484 2.094 0.853-0.716 1.727-1.451 2.816-1.792-1.044 1.648-1.832 3.715-0.46 5.442 13.246-11.258 23.594-1.059 44.417 3.564 2.705 0.656 5.836 0.939 7.51 3.505 0.741 6.837 2.486 5.091-0.059 18.288-11.932 19.31 11.589 39.723 18.88 49.336 0.085 0.269 0.243 0.801 0.328 1.07 1.001 0.787 14.856 13.683 19.103 19.016 2e-3 1e-3 19.628 17.637 19.629 17.638 0.525 2.521-1.063 4.858-1.582 7.266 0.282 0.716 0.584 1.451 0.906 2.199 0.394-0.676 0.768-1.365 1.175-2.022 1.024-0.906 2.048-1.818 3.145-2.645-0.703 2.547-3.177 5.054-1.753 7.772 2.14-2.895 5.462-4.234 8.895-4.89 5.041 3.24 21.849 16.053 23.279 11.422-0.473-2.934-2.79-5.035-3.972-7.654 3.88 1.004 7.077 4.798 11.37 3.663-0.033-1.149-0.072-2.291-0.079-3.413 2.075 0.381 4.169 0.656 6.276 0.945 1.732 12.705-11.304 14.403 19.097 40.599 7.186 3.317 11.354 6.154 17.594 1.188 21.483-4 16.355-12.256 12.48 18.347-0.315 4.556-1.32 9.072-0.939 13.667l-0.834-0.499c1.858 3.735 1.267 8.186 2.83 12.065 1.192 3.891 6.146 10.254 6.578 23.421-0.449 5.877 2.116 12.049-2.808 16.669-8.512 7.987-15.78-1.029-31.945 13.728-4.698 4.289-10.504 9.645-11.542 16.266 0.341 0.322 1.037 0.953 1.385 1.268 0.433-0.158 0.893-0.302 1.372-0.42 0.085 0.926 0.184 1.877 0.308 2.842 11.146-6.06 13.186-4.784 21.375-4.746 1.812 0.821 3.768 1.28 5.738 1.628 0.282 0.144 0.86 0.433 1.142 0.578 5.948 1.096 11.797 2.967 17.863 3.302 0.552 7.555-0.039 15.242-2.357 22.489-0.742 2.783-2.219 5.442-2.068 8.409 0.062 3.939 0.368 16.637 2.435 20.336 2.399 4.278 1.358 8.028 2.497 10.331 0 2.631 0.772 5.4 1.219 7.986 2.855 16.529-1.012 12.31-0.939 20.235-0.17 7.444-0.197 14.894-0.026 22.344 0.037 8e-3 0.091 0.019 0.135 0.028-0.116 8.626 0.048 8.543 2.939 14.552 4.37 8.996 11.994 21.926 26.01 40.03 2.451 1.784 3.492 4.811 5.866 6.681 1.472 1.141 2.719 2.537 3.578 4.211 0.23 0.038 0.686 0.105 0.916 0.144 2.219 2.698 13.231 11.98 16.043 11.348 5e-3 -2.48-1.846-4.393-2.691-6.614 2.859 1.074 4.926 4.091 8.211 3.914 0.034-1.635-0.475-3.18-1.069-4.667 0.638-0.456 1.281-0.916 1.928-1.376-0.494-2.484-1.957-4.557-3.074-6.763 0.307-0.806 0.839-1.525 1.031-2.374-0.307-3.96-3.72-3.867-2.403-8.782-0.317-2.441-1.755-4.451-2.878-6.561 0.911-0.935 2.202-1.976 1.684-3.463 0.029-2.355-2.763-3.847-2.024-6.235 0.609-2.345-0.379-4.604-1.712-6.484 0.393-0.537 1.185-0.882 1.209-1.626 0.197-2.163-1.314-3.928-2.216-5.751-0.125-1.022 0.82-1.794 0.945-2.767-0.619-2.393-2.106-4.451-4.086-5.899 2.379-1.708 4.523-4.561 3.257-7.607 1.055-2.048 1.827-4.47 0.739-6.672 0.397-0.798 0.627-1.624 0.772-2.465h-1.995c-0.089-1.156-0.255-2.313-0.375-3.432 5.324-2.629 3.279-8.145 2.468-11.658 2.875-0.775 2.902-4.031 3.492-6.4-0.427-1.786-0.847-3.545-1.3-5.297 0.86-0.308 1.759-0.584 2.659-0.86 1.792-3.663 0.702-7.831-1.49-11.041 0.42-0.584 0.86-1.142 1.319-1.687 0.118-2.757-0.23-5.488-1.037-8.107 1.234-0.164 2.685-0.262 1.569-1.976 0.42 0.158 1.26 0.486 1.68 0.643 1.293-3.19-0.486-6.354-1.267-9.406 2.916-3.369 2.183-1.67 2.16-7.155 0.801-1.03 1.733-2.008 2.212-3.243 0.387-1.615-0.762-3.413 0.341-4.844 1.365-2.179 2.061-4.89 1.064-7.352 1.031-1.831 1.707-3.833 1.681-5.954-0.368-0.335-1.109-1.011-1.477-1.352 1.825-2.75 2.468-6.394 0.729-9.341 1.057-3.768-1.083-7.168-1.444-10.831 4.267-0.604 8.226-2.501 12.526-2.987 2.994-0.794 6 0.834 9.013 0.02 4.307-1.004 8.403 1.477 12.703 1.319 1.74-0.164 3.348 0.61 5.016 1.031 1.272 0.357 6.837 0.755 10.444 2.304 0.44-0.519 0.9-1.024 1.385-1.51 6.745 4.348 16.482-0.977 14.849-8.291 0.584-0.682 1.188-1.352 1.825-1.995 0.039-0.407 0.112-1.214 0.151-1.621 2.208-4.305 1.641-3.699 0.197-6.886 0.591-0.65 1.195-1.287 1.832-1.897zm-203.82-175.96c-0.991 2.37-2.212 5.527-5.272 5.507-0.919-2.672-2.718-4.831-4.313-7.089-0.164-1.47 0.775-2.862 0.538-4.332-0.512-2.967-3.617-4.805-3.854-7.818 0.033-5.698-4.411-10.076-8.554-13.391-1.93-1.168-0.505-3.446-0.059-5.022-0.479-3.879-2.757-7.07-4.51-10.43 3.332-6.43 0.136-7.085 2.062-10.503 1.096-2.041 0.696-4.352 0.683-6.558 1.838-5.028 1.267-10.535 0.775-15.714 1.88-6.031-4.663-8.724 2.823-12.354 2.888-0.309 5.849-0.348 8.731 0.21-3.487 48.295 5.943 45.729 8.705 64.224 0.151 0.276 0.44 0.834 0.584 1.109 0.545 4.149 0.932 8.317 1.438 12.479 0.282 3.203 1.726 6.577 0.223 9.682z"/>
</svg>
