<?xml version="1.0" encoding="utf-8"?>
<!-- Generator: Adobe Illustrator 23.1.1, SVG Export Plug-In . SVG Version: 6.00 Build 0)  -->
<svg version="1.1" id="レイヤー_1" xmlns="http://www.w3.org/2000/svg" xmlns:xlink="http://www.w3.org/1999/xlink" x="0px"
	 y="0px" viewBox="0 0 161.3 173.2" style="enable-background:new 0 0 161.3 173.2;" xml:space="preserve">
<style type="text/css">
	.st0{enable-background:new    ;}
</style>
<g class="st0">
	<path d="M161.3,92.5c-0.1,8.1-1.7,17.5-4.5,27.1c-3.4,11.4-8.2,22.4-13.9,31.4c-6.1,9.8-12.8,16.3-19.2,19c-5,2-11.6,3.1-19.9,3.1
		h-2.1c-8.2-0.1-17.5-1.4-26.8-3.6c-9.1-2-17.7-4.7-25.1-7.8c-6.1-2.7-11.1-5.4-14.5-8.2v7.7c0,1.7-0.7,3.1-2,4.1
		c-1,0.9-2.3,1.3-3.7,1.3h-1.3l-23-4.4c-3-0.6-5.3-3.4-5.3-6.4V75.4c0-3.1,2.3-6,5.3-6.5l23-4.3c1.8-0.4,3.7,0,5,1.1
		c1.3,1,2,2.6,2,4.3v8.4c6.1-3.4,11.9-7.8,17-12.9c4.8-4.8,9.4-10.6,13.5-17.2c7.4-12.1,11.9-24.4,15.2-33.5
		c3.4-9.2,5.3-14.3,8.4-14.6c4.3-0.6,8.2,1.3,11.4,5.1c4.4,5.3,7.2,14.5,8.2,25.8c0.9,9.9,0,20.3-2.3,28.8c9.8-1.3,19.6-1.3,27.5,0
		c5,0.9,9.4,2.1,13.1,4c4,2,7.1,4.5,9.2,7.7C159.7,76.4,161.5,83.5,161.3,92.5z M32.4,70c0-0.9-0.3-1.6-1-2.1
		c-0.4-0.3-1.1-0.6-1.8-0.6h-0.7l-23,4.4c-1.7,0.3-3,2-3,3.7v80.5c0,1.7,1.3,3.4,3,3.7l23,4.3c1,0.1,2,0,2.6-0.6c0.7-0.4,1-1.1,1-2
		V70z M154.1,73.1c-1.8-2.7-4.5-5-8.1-6.7c-3.4-1.7-7.5-3-12.2-3.7c-8.4-1.4-18.6-1.3-29,0.3l-2.3,0.3l0.7-2.1
		c2.7-8.5,3.8-19.3,2.8-30c-0.9-10.5-3.7-19.5-7.7-24.3c-2.6-3.1-5.4-4.4-8.7-4.1c-0.1,0-0.9,0.1-2.3,3.3c-1.1,2.3-2.4,5.7-3.8,9.7
		c-3.3,9.2-8,21.7-15.5,33.9c-4.1,6.8-8.8,12.8-13.9,17.7c-5.7,5.8-12.1,10.5-19,14.2v68.2c6.4,6.4,22,13.1,40.2,17.2
		c19.7,4.4,37.5,4.5,47.1,0.4c6-2.4,12.1-8.7,17.9-17.9c5.5-8.7,10.4-19.5,13.6-30.5c2.7-9.5,4.3-18.6,4.4-26.4
		C158.6,84.2,157.1,77.5,154.1,73.1z"/>
</g>
</svg>
