<svg xmlns="http://www.w3.org/2000/svg" xmlns:xlink="http://www.w3.org/1999/xlink" width="640" height="435" viewBox="0 0 640 435"><defs><clipPath id="a"><rect width="640" height="435" transform="translate(938.969 1668)" fill="#464646"/></clipPath></defs><g transform="translate(-938.969 -1668)" clip-path="url(#a)"><path d="M1427.238,510.32c-1.608-5.3-2.28-10.889-3.512-17.005-.511,5.393-1.129,10.237-1.4,15.1-.567,10.31-.674,20.633-3.287,30.751-4.282,16.591-11.819,31.82-19.13,47.171-8.563,17.978-16.932,36.048-25.4,54.073a6.462,6.462,0,0,1-.743.938,13.558,13.558,0,0,1,.008-1.631,199.406,199.406,0,0,0,2.194-38.082,49.723,49.723,0,0,1,.666-12.094c4.1-19.335,10.816-37.849,17.766-56.319,8.269-21.972,13.061-45.276,25.18-65.91a153.551,153.551,0,0,0-13.258,13.912c-13,15.931-20.853,34.56-27.589,53.732-2.38,6.772-4.681,13.571-7.177,20.821-.3-.9-.47-1.271-.549-1.659a101.1,101.1,0,0,0-8.816-26.325,4.229,4.229,0,0,1,.112-3.191c3.025-6.867,5.964-13.787,9.369-20.466,2.8-5.495,6.2-10.681,9.334-16l-.279-.3-26.882,24.84-19.462-26.253c2.621,11.019,5.1,22.067,7.944,33.024a8.593,8.593,0,0,1-1.954,8.676c-8.917,10.7-15.953,22.477-18.405,36.463-1,5.726-1.671,11.512-2.585,17.925-.378-1.438-.585-2.232-.8-3.024-4.284-16.12-8.629-32.222-12.8-48.368-.875-3.388-1.843-7.01-1.5-10.4.611-6.068.695-12.924,3.639-17.885,8.3-13.993,18.03-27.089,30.2-38.2,7.086-6.472,13.76-13.4,20.477-20.262a87.441,87.441,0,0,0,5.856-7.357l-.482-.372-47.672,37.83c4.18-13.426,8.459-26.849,14.062-39.7,5.62-12.886,12.561-25.2,18.724-37.368.273-.132-.025-.046-.252.132-.741.579-1.475,1.169-2.177,1.792a233.02,233.02,0,0,0-43.328,52.059c-6.187,9.963-11.542,20.328-13.925,31.963-.342,1.673-.551,3.374-.792,4.863-6.742-9.269-13.406-18.464-20.106-27.633-5.885-8.051-11.053-16.455-13.5-26.274a43.32,43.32,0,0,0-1.719-4.511l-1.093,2.717c-9.116-8.607-18.309-17.218-27.367-25.967a4.3,4.3,0,0,1-.714-3.545c1.359-5.243,2.745-10.5,4.563-15.6,2.257-6.328,4.947-12.5,7.621-19.167a100.775,100.775,0,0,0-18.054,28.765c-7.618,18.3-9.76,37.679-11.284,57.18q-1,12.713-1.946,25.428l-.358.03-4.267-13.823-1.394.27c.47,7.251.912,14.505,1.419,21.755.433,6.213,2.049,12.577,1.191,18.6-1.865,13.093-4.908,26.023-7.607,38.993-1.185,5.7-2.7,11.324-4.068,16.983a3.439,3.439,0,0,1-.449-2.271c1.255-18.845,2.828-37.678,3.672-56.541.677-15.136.063-30.287-3.158-45.191-1.332-6.162-3.035-12.218-6.607-18.1-1.307,17.115-6.21,33.023-8.995,49.315-2.8,16.365-4.835,32.861-7.2,49.3l-.879-.071c-.251-1.106-.515-2.209-.752-3.317-5.418-25.359-12.678-50.147-23.208-73.894-10.663-24.045-24.079-46.289-43.1-64.764-3.81-3.7-7.932-7.08-11.91-10.608l-.552.569c.667,1.27,1.352,2.529,2,3.809q18.441,36.428,36.823,72.885a9.614,9.614,0,0,1,.942,4.766c-.8,11.453-1.928,22.885-2.632,34.343-1.117,18.166-.982,36.3,2.079,54.329,2.787,16.409,7.52,32.277,13.071,47.92.785,2.209.75,3.876-.876,5.657-4.571,5-9.016,10.117-13.552,15.152a27.6,27.6,0,0,1-2.736,2.308c-3.311-14.691-6.483-28.832-9.69-42.965-1.151-5.07-3.494-10.146-3.381-15.177q.656-29.41,2.659-58.784c1.016-14.973.2-34.048-3.212-46.066-1.1,23.282-4.519,46.085-13.9,67.7-2.649-5.561-5.241-11.211-8.015-16.771q-4.259-8.54-8.821-16.927-4.506-8.238-9.353-16.289c-3.189-5.32-6.563-10.531-9.855-15.789,4.383,13.049,9.285,25.778,14.057,38.557,6.317,16.916,12.012,34,15.307,51.839,1.356,7.336-2.154,12.244-6.832,17.629-2.492-2.924-4.87-5.4-6.884-8.142-4.757-6.473-9.237-13.148-14.019-19.6-5.032-6.786-10.554-13.223-15.366-20.157a35.27,35.27,0,0,1-6.271-22.182,205.938,205.938,0,0,0-.4-21.916c-.534-8.292-1.592-16.551-2.44-24.988-3.039,6.78-5.89,13.136-9.088,20.269l-3.24-8.516a2.638,2.638,0,0,0-.389,1.929c1.715,7.044.641,13.757-2.007,20.409-1.422,3.569-2.3,7.358-3.516,11.367-7.449-22.786-14.744-45.1-22.04-67.418,1.1,8.113,3.059,16.007,4.156,24.02,2.094,15.3,3.63,30.677,5.521,46.006,2.317,18.766,4.438,37.534,3.232,56.5-.093,1.45-.221,2.9-.3,3.863-4.9-12.271-9.587-24.853-14.935-37.147-5.384-12.372-11.425-24.459-17.18-36.671,3.142,19.413,7.982,38.614,10.488,58.114,2.508,19.521,2.688,39.339,2.586,59.595-5.407-3.976-10.066-7.707-15.041-10.953a15.433,15.433,0,0,1-6.614-9.314c-11.286-38.544-20-77.429-16.445-118.025.451-5.145.118-10.809,2.194-15.281a259.413,259.413,0,0,1,29.261-48.77c7.087-9.24,14.876-17.94,21.565-25.942-16.684,13.106-35.137,26.11-51.249,42.884-.286-4.292-.422-7.827-.784-11.341s-.85-7.049-1.472-10.54c-.6-3.378-1.445-6.713-2.278-10.5a8.645,8.645,0,0,0-1,1.232,33.719,33.719,0,0,0-1.993,4.925c-3.193,12.945-6.367,25.9-9.387,38.882-1.127,4.849-1.147,10.049-2.846,14.655-4.578,12.406-10.334,24.395-14.584,36.9-3.9,11.487-6.456,23.435-9.632,35.286a15.084,15.084,0,0,1-1.139-1.881c-4.189-9.66-8.322-19.343-12.547-28.987a5.081,5.081,0,0,1,.409-5.231c7.3-11.924,14.48-23.925,21.693-35.9.483-.8.917-1.635,1.373-2.453l-.765-.7L887.687,474.39c-3.648-9.933-7.39-19.986-10.961-30.1-.272-.767.438-2.158,1.087-2.922,2.194-2.583,4.567-5.014,6.872-7.5l-.364-.464-9.2,6.769c-6.735-17.356-13.739-34.141-23.176-49.791a26.054,26.054,0,0,0,.505,4.054q4.849,27.431,9.651,54.872c.192,1.108.2,2.73-.444,3.415-2.634,2.8-5.557,5.321-8.5,8.064a3.98,3.98,0,0,1-.812-.709c-6.558-8.217-14.841-14.295-23.912-19.423a49.061,49.061,0,0,1-6.563-4.249,4.02,4.02,0,0,1-1.341-3.2,302.3,302.3,0,0,1,19.208-62.044c2.33-5.29,4.912-10.468,7.378-15.7l-.748-.411c-22.856,16.894-30.716,42.6-39.39,68.453l-7.651-15.315c1.211,7.3,3.068,14.333,4.819,21.4a10.689,10.689,0,0,1,.332,4.259q-4.622,26.346-9.427,52.661c-1.061,5.8-2.351,11.554-3.536,17.329-3.538-7.741-6.44-15.442-9.314-23.151a5.669,5.669,0,0,1-.325-1.834q-.392-20.179-.735-40.36c-.073-4.718-.012-9.435-.012-14.153l-.812-.3q-4.7,13.743-9.405,27.484c-7.813-13.05-15.67-26.171-23.2-38.755a3.512,3.512,0,0,0,.214.73q10.509,29.118,21.009,58.238a11.108,11.108,0,0,1,.91,3.9c-.127,4.445-.482,8.881-.758,13.456-4.479-6.9-8.692-13.813-13.325-20.428a73.156,73.156,0,0,0-17.3-18.04c2.679,3.731,5.156,6.705,7.11,9.99,8.751,14.718,12.776,31.026,14.951,47.757,2.7,20.738,6.171,41.263,12.725,61.18a6.384,6.384,0,0,1-.065,3.575,174.466,174.466,0,0,0-6.969,42.523c-.338,8.5-.061,17.026-.061,25.97-2.451-16-4.4-31.522-7.277-46.871-4.94-26.35-14.4-51.364-23.887-76.319a102.128,102.128,0,0,0-8.179-16.837c-2.416-3.961-6.035-7.187-9.119-10.741l-.952.922c.491.79.986,1.578,1.473,2.371,10.176,16.571,16.7,34.267,16.808,53.989.057,10.127.533,20.256.415,30.379-.175,15.233-.076,30.511-1.254,45.68-1.285,16.561-3.107,33.05-1.792,49.687q.163,2.043.374,4.072v191.64H1388.4V711.789c3.658-29.35,11.273-57.726,21.252-85.553,8.813-24.572,16.842-49.384,19.546-75.546C1430.6,537.145,1431.283,523.662,1427.238,510.32ZM811.191,555.488l.731-.526c3.673,3.985,7.381,7.938,10.961,12,.334.38.046,1.549-.262,2.206-.836,1.781-1.839,3.485-2.774,5.218l-1.093.24Zm12.728-25.506c1.253-2.445,2.5-4.885,4.126-8.051,1.3,5.368,2.4,9.937,3.5,14.507l-.539.31ZM1264.61,640.343c-.225-6.773-.222-13.591-1.055-20.3-.944-7.595.663-14.722,2.626-21.853,2.323-8.435,4.843-16.816,7.3-25.214.309-1.055.769-2.066,1.158-3.1l1.28.191c0,14.077.252,28.16-.076,42.229-.289,12.363-2.2,24.508-7.51,35.871-.854,1.83-1.925,3.558-2.9,5.333l-.8-.195C1264.638,648.987,1264.754,644.66,1264.61,640.343Zm84.5-81.679c0,8.585-.175,17.175.062,25.753.162,5.816-1.5,10.987-3.892,16.164-4.669,10.117-9.039,20.372-13.579,30.55a44.949,44.949,0,0,1-2.24,3.939C1326.628,607.116,1337.97,582.954,1349.106,558.663Zm-48.074,25.868c1.226,6.174,2.723,12.307,3.622,18.527,1.789,12.385,3.509,24.794,4.65,37.249.266,2.9-1.9,6.026-2.945,9.048l-1-.3A284.265,284.265,0,0,1,1301.033,584.531Zm-39.353-109.658a19.2,19.2,0,0,1,1.394,2.219c5.4,12.417,10.814,24.827,16.085,37.3a5.088,5.088,0,0,1-.15,3.922c-6.169,11-12.494,21.909-18.779,32.841-.2.355-.456.684-.684,1.027l-1.178-.161C1259.464,526.462,1260.561,500.9,1261.679,474.874Zm-45.261,2.368c.108-22.679,1.57-45.274,6.178-67.559.188-.908.432-1.8.819-3.4,3.835,6.153,7.437,11.722,10.825,17.416,4.373,7.353,8.611,14.789,12.81,22.244a5.456,5.456,0,0,1,.737,3.44c-4.755,22.765-9.375,45.562-14.53,68.238a175.6,175.6,0,0,1-14.987,40.708c-.265.52-.585,1.013-1.292,2.227-.146-1.7-.282-2.561-.286-3.427C1216.574,530.5,1216.292,503.868,1216.419,477.242Zm-86.542-3.3a11.182,11.182,0,0,1,1.091,1.536c12.366,29.046,22.708,58.72,27.916,89.984a5.334,5.334,0,0,1,.152,2.441c-2.181,6.153-4.468,12.268-6.723,18.395l-.935-.166C1143.281,549.1,1133.581,512.385,1129.877,473.941Zm-92.839,84.682c.248.542.618,1.213.872,1.927,6.1,17.036,14.5,32.967,23.278,48.726a6.53,6.53,0,0,1,.959,3.986c-2.617,13.37-4.472,26.729-.792,40.219C1043.969,624.164,1033.118,593.242,1037.037,558.623ZM924.626,548c1.3-5.845,1.873-11.851,3.4-17.768.389,9.227.78,18.455,1.2,28.344C926.391,555.175,923.571,552.735,924.626,548Zm-25.666,48.982a37.573,37.573,0,0,1,.857,5.918l-.806.264A16.086,16.086,0,0,1,897.6,601.8a314.291,314.291,0,0,1-32.846-49.789,4.582,4.582,0,0,1-.453-3.418c1.873-4.511,4.02-8.909,6.349-13.949C880.226,555.911,892.254,575.235,898.961,596.985ZM863.889,459.257c1.239,6.376,2.335,12.007,3.43,17.636l-.609.308-8.166-10.225ZM840.76,497.7c1.349-2.906,3.027-5.659,4.87-9.009,4.285,7.194,8.213,13.684,11.984,20.262a3.492,3.492,0,0,1-.074,3c-2.2,3.524-4.62,6.908-7.133,10.591a12.441,12.441,0,0,1-1.242-1.781c-2.9-6.444-5.832-12.874-8.57-19.385A5.079,5.079,0,0,1,840.76,497.7Zm-22.01-55.04c6.538,11.885,13.076,23.772,19.841,36.07l-4.989,6.14c-.778-1.731-1.461-3.175-2.083-4.646-4.224-9.986-8.553-19.929-12.559-30-.91-2.287-.688-5.024-.987-7.556Zm-7.386,54.061c.981-9.21,1.882-17.671,2.784-26.133l1.036-.112q1.83,8.518,3.661,17.035c1.074,3.5,2.2,6.99,3.165,10.522a2.652,2.652,0,0,1-.682,1.941c-3.494,4.229-7.049,8.406-10.9,12.46.413-6.024-.533-12.218,3.619-17.452a40.074,40.074,0,0,0,2.97-5.085C815.319,491.945,813.619,494,811.364,496.719Zm-31.058,92.038c.573.99.987,1.633,1.332,2.31,3.3,6.494,6.664,12.96,9.828,19.521a6.84,6.84,0,0,1,.516,4.313c-2.415,9.372-5.023,18.7-7.583,28.03-.187.68-.474,1.333-.9,2.509C779.309,630.452,777.918,605.339,780.305,588.757Z" transform="translate(195.323 1398.663)" fill="#1d1d1d"/></g></svg>