<svg xmlns="http://www.w3.org/2000/svg" width="1920" height="528.52" viewBox="0 0 1920 528.52"><g transform="translate(0.1 0.088)"><path d="M1656.021,70.286l1.619-1.214L1622.43,58.954l.809,2.024C1498.989,45.6,1501.823-10.254,1405.5,6.745V5.126c-17.4,3.238-4.857,14.165-53.423,13.356l4.047,3.238c-4.857,4.047-29.14,6.476-61.113-6.88-6.88,8.5-41.686-21.046-66.779-13.761l.809.809c-99.157,57.47-70.017,38.044-243.643,48.971l-1.619-4.452c-141.653,80.54-309.207,63.137-476.762,33.187l-2.428,4.857c-62.732-16.594-47.757,6.476-184.553,34-7.69,10.523-26.712,24.283-113.322,21.45l.4.4C194.976,146.374,79.225,207.487-.1,213.558V528.431h1920V11.6C1848.669,41.956,1777.438,113.591,1656.021,70.286Z" transform="translate(0 0)" fill="#803a00"/></g></svg>