<svg xmlns="http://www.w3.org/2000/svg" width="1260.711" height="826.565" viewBox="0 0 1260.711 826.565"><path d="M1038.733,454.01c-2.326,3.257-3.722,5.351-5.583,7.91,6.979,3.722,13.959,7.212,21.636,11.167-5.118,5.118-10.935,7.212-18.146,7.677.233,1.629.93,3.024.7,4.42s-1.163,3.257-2.326,3.49c-4.42,1.4-11.167-1.629-13.726-6.049-8.608,1.4-13.959.233-14.657-3.722-.233-1.861,1.629-4.188,3.257-7.445-1.163-2.792-1.163-3.024-5.351-1.163-4.42,2.094-6.979.233-9.073-3.49-1.861-3.955-5.351-7.91,0-11.632-6.049-4.188-9.306-3.257-10.934,3.955-1.4,5.584-2.327,11.167-3.49,16.983-6.281-4.42-12.1-8.608-19.542-13.959.233,3.257,0,5.118.7,6.979.465,1.4,2.326,2.559,3.024,3.955a61.342,61.342,0,0,1,2.326,6.979c-2.792-.233-6.049.465-8.143-.931-6.979-3.722-9.306-13.028-6.514-23.963-2.326.465-4.42,1.163-6.514,1.629-3.257.7-6.514,1.628-9.771,2.326-3.955.931-5.351-.931-5.118-4.886,0-1.4-.931-3.955-2.094-4.42s-3.722.465-4.653,1.629c-4.886,5.351-9.539,10.934-14.191,16.285,1.4,3.024,3.257,6.514,4.188,10.236.465,1.629-1.163,5.118-2.559,5.584-3.257.931-4.885-1.629-5.583-4.653-.233-1.163-.233-2.559-.465-5.351-6.281,1.629-12.1,3.257-17.914,4.653a10.118,10.118,0,0,0-1.629-1.4c1.861-2.559,3.257-5.583,5.584-7.677,2.792-2.559,7.445-4.653,4.886-8.608-2.327-3.722-6.979-1.861-10.7-.233-.931.465-1.861,1.163-2.792,1.629-3.49-6.514-1.861-10.236,6.979-15.82-4.886.7-8.608,1.163-12.33,1.629l.931.931c-3.024,3.49-6.281,6.747-8.841,10.469-2.326,3.49-3.722,7.445-6.049,12.1-.931-.233-3.257-.7-6.514-1.629.931,3.49,1.629,6.514,2.559,9.771-5.118,1.861-8.375,0-11.167-3.955-2.326-3.024-5.118-5.816-8.143-9.073.233-.7,1.163-2.094,2.559-5.118-7.212,4.42-13.726,8.375-20.705,12.563,3.722,1.629,6.747,3.024,9.073,3.955,2.094,5.583,3.722,10.469,5.816,16.053,3.722,1.4,8.608,2.326,12.563,4.886a58.127,58.127,0,0,1,13.959,12.1c4.653,6.049,6.049,7.212,13.493,4.188-1.4-2.094-4.42-5.583-3.955-6.514,2.094-3.257,5.351-5.583,7.677-7.91,3.024,3.49,5.351,6.281,7.445,8.841.931,1.163,2.327,2.559,1.861,3.49-1.629,6.281-3.722,12.563-5.583,18.844a6.033,6.033,0,0,0,.7,3.955c.931,2.094,2.559,3.955,4.886,7.91-5.118,0-8.84.233-12.33.233v-4.653c-2.559-1.861-6.281-3.49-7.91-6.281-.7-1.4,2.792-4.886,4.653-7.91-6.049,1.4-12.8,2.792-20.008,4.42.233-10.934-12.33-2.559-13.726-10.934-13.261,7.212-25.591,15.587-40.946,16.285.7,3.49,1.4,6.979,2.326,10.934-6.281.465-8.375-2.792-9.771-7.677-7.445,2.326-13.726.7-18.612-5.351-6.979,2.792-8.375,6.281-7.445,20.008-5.118-1.628-9.538-3.257-14.424-4.885,2.559-4.42,4.886-7.91,7.212-11.865-9.073,3.722-17.216,7.212-25.591,10.7.931,2.326,1.629,4.653,2.792,8.143-5.816-.7-10.7-1.4-16.053-1.861-.465,6.049,3.955,6.281,7.212,7.212,3.955,1.4,7.445,2.792,5.816,8.608-8.375-.465-15.355-4.653-21.171-10-2.326-2.094-1.4-7.677-1.861-11.865a34.837,34.837,0,0,0-3.955.7c-.7-3.722-1.4-7.445-2.326-13.028,5.816,1.4,10.236,2.559,15.122,3.722,2.326-4.42,5.118-10,8.143-15.82-4.42-4.886-6.281-5.583-11.632-1.628-13.261,9.539-26.754,19.077-39.55,29.081-23.265,18.146-49.321,31.872-75.145,46.064-52.113,28.383-92.361,69.1-124.466,118.184C469.448,725.973,462,738.071,454.093,749.7c-14.191,21.171-23.265,44.436-29.546,68.863-1.4,5.816-3.955,8.143-10.236,7.677-8.143-.7-16.285-.233-24.428-.233a3.93,3.93,0,0,1-.465-1.163c10-24.428,19.077-49.321,30.011-73.284,11.865-26.056,31.407-46.762,49.554-68.4,12.33-14.889,24.893-29.779,35.595-45.831,13.493-20.24,18.612-43.272,15.122-67.7-1.4-9.306-5.118-17.448-12.563-23.5a60.456,60.456,0,0,1-19.31-28.616c-5.816-17.914-17.448-31.872-29.313-45.6-5.351-6.281-9.771-13.493-15.587-19.542-3.955-4.188-9.073-8.143-14.424-10a48.342,48.342,0,0,1-25.126-19.31c-6.049-9.073-15.355-13.261-25.591-15.587-9.539-2.326-19.31-4.42-28.848-6.747a18.058,18.058,0,0,1-12.1-9.306c-2.559-5.118-4.188-10-11.632-11.865-7.677-2.094-15.122-1.629-19.31,5.583-1.4,2.094-2.094,4.653-3.024,7.212-.7,1.861-1.163,3.722-2.559,7.677-2.559-3.49-4.42-5.583-6.747-8.608-1.629-.465-4.188-.931-7.677-1.628-.7,2.326-1.163,4.653-1.4,5.583,2.326,3.722,4.188,6.281,5.816,8.841-3.257.7-6.514,1.4-9.771,1.861-3.024.465-5.118-.931-7.677-3.024s-7.445-1.629-11.4-2.094c0,.7-.233,1.4-.233,2.094a16.621,16.621,0,0,0,4.653.465c3.257-.7,4.42.7,4.886,3.49,1.861,8.143-1.629,12.1-9.771,10.469-2.792-.465-5.351-2.326-8.143-3.257-4.886-1.629-10-3.257-14.889-4.653-1.4,6.979-2.559,12.8-3.955,18.379a14.712,14.712,0,0,1-2.792,5.351c-1.163,1.4-3.49,3.024-4.886,2.792s-2.559-2.559-3.49-4.188c-.7-.931-.465-2.327-2.094-3.722-.7,2.559-1.4,5.351-2.326,8.608-2.559-.465-5.351-.931-8.841-1.629-8.375,6.979-18.612,9.073-30.011,3.955-3.024,7.445-6.049,14.889-9.073,22.1-.465.931-2.326,1.861-2.792,1.629-1.629-.7-3.49-1.861-3.955-3.49-.7-2.559-.465-5.351-2.094-8.841-.931,2.094-2.094,3.955-2.792,6.049-1.163,3.722-2.559,5.118-6.747,2.792-3.024-1.629-7.212-.931-11.167-1.163-3.722-7.91-3.024-9.771,11.4-25.591-5.584-3.49-6.979-3.257-9.538,2.094-2.326,5.118-4.188,10.236-6.747,16.285-6.514-5.351-11.865-10-18.379-15.355-.931,1.861-3.024,4.653-4.42,7.677-2.094,5.351-5.351,8.841-12.8,8.143-.233-3.722-.233-7.677-.7-11.4-.233-1.4-1.629-2.792-3.024-3.722a78.014,78.014,0,0,0-8.841-4.42c-6.281,3.024-11.4,11.865-21.636,9.073C65.108,434.933,77.439,431.443,69.3,424c-1.629,3.722-5.351,6.049-4.653,11.167.7,4.886-4.42,8.608-11.632,9.539-.233-1.4-.465-3.024-.931-5.351-1.861,1.163-3.722,1.861-4.886,3.257-2.792,3.49-6.281,2.559-9.073.931-2.094-1.163-3.49-3.955-6.049-7.212h5.351c3.955.465,7.677.465,8.608-4.653.931-4.886.233-9.073-5.584-10.236-1.163-.233-2.792-.7-3.49-1.629a41.669,41.669,0,0,1-2.792-5.583c1.629-.7,3.257-1.861,4.886-1.629,4.886.233,8.608-.7,9.771-6.979,3.955,2.792,7.212,4.886,11.865,8.143-.7-5.584,2.094-10.469-4.886-12.563-1.163-.233-2.559-2.559-2.326-3.722.233-1.4,2.094-3.49,3.257-3.722,2.326-.465,5.118.233,8.143.7.931-2.094,1.861-4.42,2.792-6.747-2.559-3.49-5.118-6.979-8.143-10.934,7.212-2.559,11.632.233,16.518,4.188,4.188-13.261,17.216-24.2,7.677-41.644,3.722.7,7.677,1.4,12.1,2.326V327.683h13.028c.465.931.931,2.326,2.326,5.118.7-3.722,1.163-5.816,1.629-7.677.931-3.955-.931-4.42-4.42-5.584-7.91-2.094-14.191,0-20.24,4.188-4.653,3.024-9.306,5.816-14.191,9.073-5.351-2.559-11.632-5.583-16.983-8.143-5.118,3.49-9.771,6.747-14.424,10-5.584-12.33-4.42-14.657,6.747-14.889,3.49-3.722-6.979-10.7,3.722-12.563-.465-3.024-.7-6.049-1.163-9.538,6.979,2.559,12.1,8.841,20.008,5.118-1.629-2.559-3.024-5.118-4.653-7.677,8.841-.465,16.751-1.163,26.289-1.629,1.629-3.257,3.722-7.677,6.281-13.028,6.979-.465,6.979-.465,8.375-5.118,3.722-.233,7.212-.465,10.7-.7v-1.861c-4.886-1.861-11.865-.233-13.028-7.91-3.49,1.163-6.281,2.094-7.91,2.559-4.42-2.559-7.91-4.886-11.4-6.979-5.816,4.42-6.979,3.49-9.306-8.375-2.326,2.094-4.188,3.955-6.281,5.816a46.856,46.856,0,0,0-4.886-2.559c-8.841-2.792-10.7-1.628-14.191,8.608-6.514-5.351-15.587,5.118-20.938-3.955-4.42,1.163-8.143,2.094-12.8,3.257,1.629-8.841,3.024-16.285,4.653-23.73,4.188-1.4,9.306-3.257,14.657-5.118.465.465.931.7,1.4,1.163-1.4,2.792-2.559,5.584-4.42,9.073,2.094.233,3.955.233,6.049.465-.7-5.351-1.4-10.236-1.861-15.122-3.257,1.163-5.816,1.861-9.538,3.024,1.163-3.722,2.326-6.049,2.559-8.375a8.828,8.828,0,0,0-1.629-6.049c-.931-.931-3.722,0-5.351.465-2.326.465-4.42,1.629-6.747,1.861-1.163.233-3.49-1.4-3.257-1.861.465-5.584-5.118-5.351-8.608-9.306-.931,2.792-2.094,5.584-3.024,8.143A24.642,24.642,0,0,1,.2,215.547V198.1c5.118-3.024,10-5.816,15.122-8.375,1.861-.931,4.886-1.861,6.281-1.163,6.514,3.49,12.33,5.816,17.914-1.4,1.163-1.4,3.257-2.094,4.886-3.257-.931-2.792-1.629-5.351-2.559-7.677.465-.465.7-.931,1.163-1.163,3.955,1.629,8.143,3.257,12.8,5.118,1.861-.465,4.653-1.861,7.445-1.629,4.653.465,6.049-1.861,6.281-5.584.233-4.886,2.094-8.375,7.677-6.979.7-4.188-7.445-6.049-2.326-10.469,2.792-2.559,6.514-3.955,10.236-6.281-.233-2.094-.7-5.118-1.163-9.073,4.42,1.163,7.91,2.094,11.4,2.792,4.42,1.163,7.91-1.861,8.143-6.514,0-8.841,2.094-11.865,10-13.493V140.17c6.281-.7,6.049-4.886,5.351-8.841h26.987c-2.094,2.792-3.257,4.188-4.42,5.584,2.559,1.861,5.118,3.722,8.841,6.281a23.974,23.974,0,0,1,4.653-1.629c1.4-.233,3.024-.465,3.955.233,4.188,2.792,14.889,1.4,17.448-1.4,5.118,1.163,9.539,2.094,14.191,3.024-.465,8.841,1.163,10.469,10.469,9.771,1.4,0,2.792,1.163,4.42,2.094,1.4-3.024,2.559-6.979,4.886-10s5.816-5.118,8.608-7.445c0,.7.233,1.4.233,2.094,2.094,1.861,4.42,3.49,6.514,5.351,1.629-2.326,3.024-4.653,5.351-7.91,2.326.931,5.584,2.094,9.073,3.257,3.257.931,6.281,2.326,9.538,2.326,4.42,0,8.841-1.163,9.073-8.143,5.816,2.326,10.934,4.653,16.285,6.747q11.516,4.537,23.032,8.375c4.42,1.629,6.979.233,8.143-4.42.465-1.861,2.094-3.49,3.024-5.351,1.629,1.4,3.024,2.792,4.653,4.188a18.429,18.429,0,0,1,2.326,1.4c.233-3.024.465-5.584.7-9.539,2.326,1.4,4.42,2.326,6.747,3.49,4.42-2.326-1.4-12.8,7.212-12.1,2.094,4.886,3.955,9.073,5.816,13.493,4.653-6.747,9.306-13.028,14.424-20.24-1.4-1.629-3.49-3.955-5.583-6.281h-1.4c-4.42,4.653-8.375,6.514-12.563-.465-.7-1.163-3.024-1.4-4.653-2.094-.233-5.118,4.188-5.118,7.677-6.979-2.094-1.861-4.42-3.024-5.583-4.886-1.4-2.326-1.861-5.118-2.792-7.91,2.792.233,5.583.233,9.771.465,2.094-3.722,5.118-8.841,8.143-14.191-.233-.465-.465-.7-.7-1.163-1.163.7-3.024,1.163-3.49,2.326-2.792,7.212-3.024,7.445-10.236,4.42a26.684,26.684,0,0,1-3.257-1.861c5.351-13.959,19.077-12.563,29.313-16.983.465.233,1.163.465,1.629.7-.7,3.024-.931,6.747-2.559,9.306-1.861,2.559-5.118,3.955-7.677,6.049.7.931,1.4,1.861,2.326,3.024,3.257-1.861,6.514-3.722,9.771-5.351,5.584-2.792.233-7.445,1.861-11.167,5.351.465,10.934,1.163,16.518,1.629,2.559-8.143,9.073-8.608,16.983-8.375-1.629-3.024-3.024-5.584-4.188-8.143-1.163-3.024-2.094-6.747,1.861-8.143,3.722-1.163,5.584,2.326,6.281,5.584a101.376,101.376,0,0,1,.7,10.469,118.247,118.247,0,0,0,9.073-7.677c6.514-6.747,6.747-6.747,13.726-.931.233-6.049.465-11.865.931-18.844,15.355,8.143,23.963-3.49,34.9-7.91,1.4,2.559,3.024,5.118,4.886,8.608,6.514-4.653,12.8-9.073,18.612-13.261,7.445,3.49,14.424,6.979,21.636,9.539,6.747,2.326,13.261,1.4,18.146-4.886,2.559-3.49,4.886-.931,7.212,0,3.955,1.4,8.143,3.024,13.028,4.886-.465-5.816-3.955-5.584-6.514-6.747-1.861-.931-4.886-2.792-4.886-3.955.233-3.49,3.49-4.886,6.747-3.722,6.281,2.094,12.563,4.42,19.775,7.212-2.792,1.861-4.653,3.257-7.445,4.886a34.969,34.969,0,0,1,5.583,4.188,42.374,42.374,0,0,1,4.653,5.816c1.628-3.49,3.257-6.747,5.118-10.469,6.281,2.094,9.306-1.629,11.167-6.979a19.447,19.447,0,0,1,2.792-5.351c2.094-2.559,3.955-4.188,8.375-2.326,3.722,1.629,8.608,4.188,13.493.7,1.861-1.163,5.584.465,8.608.7,0-.465.233-.931.233-1.4-.233-2.094-.465-4.42-.7-6.514,2.559.465,6.282.233,7.677,1.861,4.188,5.584,6.514,2.326,9.538-1.861,2.792,1.629,5.351,3.024,8.375,4.653.7-1.163,1.629-2.559,2.792-4.42,4.653,1.629,9.073,3.024,13.959,4.886,3.024-4.188,1.861-13.028,12.8-11.632-1.629,4.42-3.024,8.608-4.653,13.493,3.955,4.42,10.236,4.886,17.216,3.955-.465,2.094-.7,3.722-1.163,5.351.233.233.7.233.931.465,2.094-5.584,4.188-11.167,6.514-16.518.931,0,1.629-.233,2.559-.233-.465,9.771,6.747,14.191,12.1,19.775a9.253,9.253,0,0,0,5.118,2.094c6.747.931,13.726,1.4,20.24,2.559,1.861.465,3.257,3.024,5.118,4.653,3.024,2.792,5.816,1.861,9.073,0,2.094-1.4,4.653-2.094,7.677-3.257-.233,4.188-.465,7.445-.465,10.7h2.094c.233-2.094.233-3.955.465-6.049,5.584-.7,7.445.7,6.747,5.351-.465,2.792-2.094,6.281-.931,8.375,1.163,2.326,4.886,3.49,8.608,6.049-3.257,3.257-6.514,6.281-9.771,9.538.233.233.233.7.465.931,3.257-1.861,6.281-3.49,10.237-5.816,1.163,7.91,6.049,9.538,12.33,8.143,1.861,7.91.465,11.632-5.583,15.587a70.92,70.92,0,0,0-6.979,4.42c-3.722,2.792-9.306,2.792-11.4-1.4-2.327-4.886-5.816-4.886-10-4.653H734.2c2.559,4.188,3.722,9.073,10.469,6.979,2.094-.7,4.653.465,6.979,1.4,3.024,1.163,3.955,3.257,2.559,6.747-.931,2.094-.931,4.42-1.4,7.445,3.722,0,6.747.465,9.306-.233,2.094-.465,4.188-2.326,5.816-3.722,1.629-1.629,3.024-3.49,4.653-5.351,2.326,3.49,4.188,5.816,5.816,8.375,9.539-6.514,11.865-4.188,31.64-4.886,1.163,8.841,1.163,8.841,6.049,10-.7-3.955-1.163-7.91-1.861-11.865,8.375-1.861,8.608-1.629,10.237,11.632,3.49.465,6.979.931,10.934,1.629a36.33,36.33,0,0,0,7.445,25.824c6.049-6.281-3.024-11.632.465-17.216,7.445-2.559,7.212,4.653,10.236,9.538,1.163-4.653,1.861-8.375,3.257-11.865.7-1.861,2.792-3.024,4.188-4.653,1.163,1.861,3.024,3.722,3.257,5.816.233,2.559-.7,5.351-1.163,8.608a8.333,8.333,0,0,0,2.559.931,9.6,9.6,0,0,0,3.49-.233c-1.629-3.257-2.792-6.281-4.188-9.073,4.885-.931,8.84-1.629,13.261-2.326-1.163-3.722-1.861-6.281-2.792-9.538,17.681,7.445,34.432,17.448,53.974,5.118,3.024,3.49,6.281,7.445,10,11.865,7.212-9.539,12.33-5.118,17.216.931,1.4,1.629,3.257,2.792,5.816,4.886,1.163-5.816,2.094-10.7,3.257-15.82.7-.233,1.629-.233,2.326-.465,2.559,3.49,5.118,6.747,7.91,10.7,5.584-2.792,11.865-6.049,18.612-9.306,1.4,7.445,10.469,10.236,5.583,18.379,5.118,0,8.375.233,10.934-3.955,2.559-4.42,5.816-3.49,8.84.465,1.4,2.094,3.955,3.257,6.514,5.583q-.349.7-2.094,4.886c7.212,2.094,14.191,3.955,21.4,6.049a180.257,180.257,0,0,1,18.844,6.514c2.327.931,4.188,3.257,7.212,5.816-3.49.7-5.584,1.163-8.143,1.629l2.792,7.677c2.326-.7,4.188-1.4,6.747-2.326,1.4,3.955,2.327,7.677,3.955,12.563,2.559,1.629,6.747,4.188,10.934,6.747,0,.7.233,1.163.233,1.861-6.979,3.49-13.726,7.212-20.706,10.7v1.628c1.861.465,3.955,1.629,5.583,1.4,4.653-.7,6.514,1.4,7.677,5.816.931,3.024,2.792,5.583,4.653,8.841,1.163-1.163,1.4-1.4,1.4-1.629-1.629-8.841-1.629-8.841,7.212-7.212,6.049,1.163,12.1,1.629,18.146,2.559.233.465.7,1.163.931,1.629-2.094,1.4-3.955,3.49-6.282,4.188-3.722,1.163-6.281,2.559-5.118,7.445-7.212,1.163-14.191,2.326-22.1,3.49-.465,6.979,8.143,9.073,10.236,13.261-2.792,6.281-4.653,11.632-7.445,16.518-1.4,2.559-3.49,6.049-6.049,6.747-4.653,1.4-10-6.514-7.677-11.865,1.4-3.722-.233-4.653-2.559-5.816-7.677-3.955-14.424-.931-14.657,6.747,3.49-.465,7.212-1.163,10.469-1.629,1.861,4.188,3.257,8.143,4.886,11.865-7.212,1.861-7.91,3.257-7.677,10.469v3.257c-.465,7.677.465,9.306,7.91,12.1,4.653,1.861,9.771,2.326,14.424,4.42a80.6,80.6,0,0,0,27.452,7.677c5.583.465,8.608,4.653,9.073,10.469,4.42-.465,8.84,0,8.608-6.747,0-3.257,2.559-2.792,4.885-1.4,7.445,4.653,11.167,11.167,11.4,20.706,2.327-.931,4.653-2.094,6.979-3.024,3.49,8.143,6.747,16.053,10.469,24.661a14.2,14.2,0,0,1,3.49-.7c2.559,0,5.118.233,7.677.465-.465,2.559-.93,5.351-1.4,9.538,5.118,5.816,9.539-4.188,16.053-1.861-1.861-4.42-3.024-7.445-4.42-10.7,6.979-3.024,12.8-1.163,16.518,3.722,3.257,4.188,6.281,9.539,6.747,14.657.7,4.886,2.559,7.445,6.049,9.539,2.326,1.4,4.885,2.326,6.747,3.955,2.326,2.326,4.188,5.351,6.281,8.143-.233.7-.465,1.163-.7,1.861,1.861-1.163,3.722-2.326,6.514-4.188,3.49,4.653,7.677,9.538,11.167,14.657.7,1.163-1.4,3.955-2.094,6.281a105.112,105.112,0,0,1,10.934,2.559c3.955,1.163,7.212,3.024,7.212,7.677-3.49,2.094-10.934-2.792-10.469,6.747h14.191c-.931,8.608-1.861,16.518-2.792,24.893-9.073.465-8.841-13.261-18.844-13.261,1.163,3.257,2.327,6.281,3.257,9.073-.465.465-.931,1.163-1.4,1.628l-9.073-4.886c0,.465-.465,2.094-.931,4.188-6.979-.465-14.889,2.326-19.31-6.281-7.677,1.629-14.191,0-18.844-8.143-.931,4.653,2.559,9.771-5.118,12.1,3.49,1.4,5.118,2.094,8.143,3.024-.931,4.188-2.094,8.841-3.024,12.33-3.955-.465-6.747-1.4-8.84-.931-2.327.465-2.327,1.163-1.163,11.865-5.583,1.628-11.167,3.257-16.518,4.886.233,8.841-1.4,11.167-9.771,13.726-1.4.465-3.722.465-4.42-.233a5.407,5.407,0,0,1-.233-4.653c1.629-3.257,3.722-6.281,6.514-10.7h-13.493c-1.163-4.42-2.559-9.073-3.955-13.726a14.819,14.819,0,0,0-1.629-.465c-1.861,3.955-3.955,7.91-5.816,12.1-2.559,6.049-5.816,10.934-13.726,8.841,0,1.163,0,1.861.233,2.094,3.955,4.188.465,3.955-2.327,6.747-10,9.539-20.473.233-30.477,3.257-1.4,5.816,9.539,11.632-.7,17.681,2.792,1.4,4.886,2.094,6.514,3.257a5.516,5.516,0,0,1,2.094,3.49c0,.931-1.861,2.326-3.024,2.326-7.212.7-14.424,2.094-20.938-2.559-4.42,6.747-9.539,10-12.563,8.143s-3.024-11.632,0-16.518c-11.865-8.375-11.865-8.375-12.33-12.33,1.4-.465,2.792-.931,4.42-1.4a67.473,67.473,0,0,0-2.559-6.281c5.351-2.792,10.237-5.118,14.889-7.677.233-4.188-8.608-7.91.233-12.1-1.163-2.559-2.326-5.118-4.188-8.841-3.257,2.094-6.049,4.188-8.84,6.049C1045.48,457.732,1041.758,455.871,1038.733,454.01Zm-282.9-154.244c2.094-4.42,3.955-8.841,6.747-13.028s2.792-5.118-1.861-7.677c2.792,11.167-8.143,10-12.563,14.191.931,2.559,1.629,4.42,2.094,5.816,2.094.233,3.722.465,5.584.7-.233,2.559-.465,5.351-.7,6.979,5.118.931,10.934,2.094,16.751,3.49.7-.465,1.629-2.094,3.024-2.559,4.653-1.861,4.653-4.188,2.326-8.143-1.861-3.024-2.792-6.747-4.188-10.236a4.082,4.082,0,0,0,1.163-.931c-2.094-.7-4.188-1.4-7.212-2.326C768.4,295.345,762.582,298.137,755.835,299.766ZM545.523,610.581c48.391-17.914,90.267-45.133,128.188-79.1-3.955,1.4-7.91,2.792-11.632,4.188-5.118-4.653.931-16.053-10.7-16.053,0-4.188.233-7.91,4.886-9.771,1.163-.465,1.628-2.792,1.861-4.42.233-4.188,0-8.608,0-13.028,7.677.465,6.747,6.281,8.375,10.469,3.722-1.163,7.445-3.722,10.7-3.024,4.886.7,6.514-3.024,9.771-4.653a115.978,115.978,0,0,0,10.7-5.816c4.653-3.024,4.653-4.886.93-9.073a32.548,32.548,0,0,1-3.722-6.049,6.166,6.166,0,0,0,1.163-1.4c3.49.931,7.212,1.861,11.632,3.024-.7-3.955-1.163-7.445-1.628-10.236,5.351-4.42,10.236-8.375,14.889-12.33-1.4-3.722-2.792-6.979-4.188-10.934,8.375-1.628,14.424,1.629,20.24,4.42,1.628.7,3.722.7,6.049.931-4.653-8.841-8.375-16.285-11.865-22.8,4.188-1.861,7.445-2.792,9.538-4.653,2.792-2.326,4.886-5.583,7.677-9.073-.7-.465-2.326-2.327-4.188-2.559a88.989,88.989,0,0,0-13.261.7c.233-3.49.465-5.816.7-8.143-3.024-.233-5.584-.465-10-.931,2.559,3.257,4.188,5.118,6.049,7.677-6.514,4.653-12.8,1.4-18.612-1.163.7,3.49,1.628,6.514,1.861,9.538.233,2.559-.7,4.188-3.955,3.955-1.629-.233-4.653.465-4.653,1.163a11.97,11.97,0,0,0,.7,6.281,54.874,54.874,0,0,0,2.792,6.514c-.465.465-.931,1.163-1.4,1.628-6.281-2.094-12.33-4.42-18.612-6.514a6.932,6.932,0,0,0-4.886.233c-.931.465-.7,3.024-.465,4.42.233,3.024.7,6.049,1.4,10.469-7.212-5.118-10.934.931-15.587,2.559a38.144,38.144,0,0,0-2.326-3.024c-7.91,4.188-15.122,8.143-22.334,12.1a15.05,15.05,0,0,0-2.094,1.861c-8.608,6.979-16.983,13.959-25.591,20.706-13.726,10.469-28.15,20.24-41.178,31.407-12.8,10.934-23.265,24.2-26.289,41.644C543.662,570.566,543.894,590.108,545.523,610.581ZM532.262,545.44c-3.722-51.647-7.445-102.83-11.167-154.71-25.591,16.053-43.04,38.852-63.745,58.394,2.326,2.792,4.188,5.118,6.049,7.445,6.514,8.841,14.191,16.983,19.077,26.754,9.771,19.542,20.706,38.154,36.293,53.741C522.026,540.787,525.516,544.509,532.262,545.44Zm29.081-283.363c.7-1.163,1.4-3.722,3.024-5.351,1.861-1.629,4.886-3.257,6.979-3.024,3.024.465,6.747,10,6.049,13.959l8.375,3.49a5.831,5.831,0,0,0,1.628-.931c-3.955-5.118-.465-7.212,2.559-9.539,3.722-3.257,3.49-4.886-.7-7.445a41.124,41.124,0,0,1-3.955-2.792c7.212-5.816,13.726-7.91,20.473-1.861,3.722-3.024,6.747-5.816,10-8.608-.465-1.629-1.163-3.49-1.861-5.583-13.726,1.163-25.591-10-40.946-5.351.7-3.257.931-5.816,1.629-7.91,2.094-6.049,1.4-7.212-5.118-6.979-10.237.465-20.24,4.188-29.779.233.233,3.024.233,5.351.465,7.91a56.692,56.692,0,0,0-6.281.233,8.153,8.153,0,0,0-3.955,2.094c-5.584,7.212-9.073,14.657-1.629,23.5-.7.465-1.163.931-1.861,1.4-4.886-1.629-9.539-3.257-14.424-5.118-2.326,6.281-4.653,13.028-6.979,19.31,4.886,2.792,9.539,5.351,13.959,7.91.465-1.629-.233-2.326,0-2.792.465-2.094.931-3.955,1.4-5.816,1.629.465,3.257.931,5.118,1.4,3.722,1.163,7.445,3.49,10.7,3.024,6.049-.7,10.469,0,11.4,6.049h10.236c-3.49-3.955-6.979-7.445-3.49-12.1C555.294,260.681,558.551,261.844,561.343,262.077ZM539.707,479.368c.7.233,1.628.233,2.326.465,14.889-22.8,29.546-45.6,44.668-68.863-3.49-1.861-7.445-4.886-11.632-6.514-2.326-.931-5.583-.233-7.91.931-.7.233,0,4.42.7,6.514,1.163,3.955,3.49,7.91.233,12.33-5.118-2.559-10.934-4.188-15.355-7.677-4.886-3.955-8.608-3.722-12.33.465-2.094-2.094-3.722-3.955-5.351-5.816-.465.233-.931.233-1.4.465C536.217,434.235,533.891,457.267,539.707,479.368Zm77.936-84.451c-2.792,1.4-4.886,2.094-6.281,3.49-7.445,7.677-15.355,14.889-21.4,23.5-11.865,16.751-22.8,34.2-33.5,51.88-5.583,9.073-6.281,19.775-6.281,30.244,2.792-3.955,5.118-8.143,7.677-12.1,18.146-25.591,36.525-50.949,54.9-76.308,2.792-3.955,6.747-6.979,3.955-12.563C616.248,401.432,617.178,399.105,617.643,394.918Zm-159.6,0c0,.7-.233,1.163-.233,1.861.931,1.861,2.094,3.722,3.955,6.979-11.167-2.094-17.216,3.722-24.428,9.539,4.42,9.073,9.073,17.914,14.424,28.848,17.681-16.983,34.2-32.8,50.717-48.856-2.094-3.024-3.257-4.886-4.42-6.747-6.979,3.024-12.33,9.539-20.706,6.747.233,2.326.233,4.188.465,6.514C470.611,397.942,464.329,396.546,458.048,394.918Zm221.014-181.7a52.479,52.479,0,0,1-7.91,4.886,62.317,62.317,0,0,1-6.979,2.792c1.163,2.326,2.094,5.351,3.722,7.212,3.024,3.257,4.188,6.514,2.792,10.934-2.792-1.163-4.886-1.861-7.212-2.792-.233.7-.465,1.163-.7,1.861,5.351,2.559,10.7,4.886,16.518,7.677,1.628-10,8.608-14.424,16.053-18.612,5.351-3.024,10.934-5.583,15.82-9.073,5.583-3.955,6.281-9.073,2.792-14.889-3.024,1.4-5.816,2.559-8.84,3.955-1.163-3.722-1.629-6.979-3.257-8.841-1.4-1.629-4.42-2.326-6.979-2.326-1.163,0-3.257,2.094-3.49,3.49-.931,3.955-.7,8.143-1.628,12.1-.7,2.326-3.024,4.42-4.653,6.514-1.861-1.4-3.49-2.792-5.351-4.42C679.295,213.221,678.6,212.756,679.062,213.221Zm120.743,254.05c-.233.465-.465,1.163-.7,1.629,1.861.233,3.722,1.163,5.351.7,4.886-1.629,10-3.49,14.657-5.584,9.538-4.653,18.844-9.539,27.685-14.191-3.024-3.722-5.584-7.212-8.608-11.167-6.514-.233-6.514-.233-8.84,11.167-3.49.931-7.91.931-10,3.257-5.118,5.118-10,3.49-15.587,2.094L791.2,452.382c-2.326-.465-5.583-.7-6.514-2.326s.233-4.653.7-6.979c-9.306,4.653-15.355,17.216-13.028,26.289,3.49,1.4,6.747,2.326,9.539,3.955,3.257,1.861,5.816,2.792,9.073,0a12,12,0,0,1-.465-2.559V457.5c4.42,1.4,8.84,2.559,13.261,3.955.7.233,1.163,1.163,2.326,2.559C803.76,465.177,801.667,466.108,799.805,467.271Zm-218.687,3.257c.7.7,1.628,1.4,2.326,2.094,12.563-10.934,25.359-21.869,37.689-32.8,2.792-2.559,6.979-5.118,7.445-8.143,1.163-6.281.465-12.8.465-19.542C612.991,431.443,596.938,450.986,581.118,470.528ZM373.83,373.747c-1.861,6.281-3.49,11.865-5.351,18.146-6.049-5.118-6.049-8.375-1.629-20.938-2.559-.7-5.118-1.4-9.073-2.559,6.281,8.841,2.559,16.053-8.143,17.448.465-3.722.931-7.212,1.4-11.632-2.327-1.4-5.118-3.257-8.143-5.118,1.861,3.257,3.257,5.583,4.653,7.91-2.559,1.163-5.351,2.326-8.143,3.722,2.094,8.143,6.514,12.33,14.424,13.493,8.143,1.163,16.518,1.861,25.126,2.792C377.785,389.334,381.507,380.959,373.83,373.747Zm19.077,29.081c5.118,5.816,10.469,10,13.493,15.355,6.281,11.167,16.518,14.424,28.848,16.751-3.49-8.375-6.747-16.285-10.236-24.893-2.326,6.049-5.583,5.351-9.538,3.024-4.188-2.326-8.143-5.118-12.1-2.559C399.887,408.179,396.862,405.852,392.907,402.828Zm225.2,52.811c-7.445,5.816-14.889,11.865-22.8,17.681-7.677,5.816-16.053,10.469-20.706,19.31.465.465.7.931,1.163,1.4,15.587-11.632,31.407-23.032,47.46-34.9C620.9,457.5,619.5,456.569,618.109,455.639Zm534.854-6.281c6.979-1.861,14.424,1.163,19.542-6.049-3.49.7-6.979,1.629-10.7,2.559-2.094-7.212.465-15.587-6.514-20.24-3.49,3.257-6.747,6.049-10.236,9.306-1.861,3.49-3.955,7.677-6.281,11.865a5.775,5.775,0,0,0,2.094-.233c2.094-1.861,3.49-4.42,5.816-5.816,2.094-1.4,5.351-2.559,7.445-1.861,3.257,1.163,1.861,4.188.465,6.514C1153.66,446.1,1153.428,447.263,1152.963,449.357ZM635.79,202.519c0,.233-.465.7-.7,1.163-3.955,10-3.955,10-14.191,8.608a41.284,41.284,0,0,0-7.445.465,2.951,2.951,0,0,0,.233,1.4l17.449,8.375a5.832,5.832,0,0,1,.93-1.629c-.93-1.163-1.861-2.326-3.257-4.188,6.049-.931,11.632-4.653,16.751.233,3.722,3.257,3.955,3.722,8.143,2.326C648.12,213.919,642.071,208.336,635.79,202.519Zm-247.3,188.909a6.441,6.441,0,0,0,2.094-.233c0-3.49-.465-7.212.233-10.469a11.863,11.863,0,0,1,3.955-6.514c.7-.465,3.955,2.094,6.049,3.257,1.4-7.91-6.281-9.771-10.469-14.889C387.091,372.584,381.973,381.89,388.487,391.428ZM116.756,306.512c-2.094,2.094-4.188,3.955-6.747,6.514,4.886,3.257,9.771,6.747,14.889,10.236,2.559-4.188,4.42-7.212,6.281-10.469l2.094-1.4c-2.094-1.861-4.42-3.49-6.281-5.118-2.559,2.792-4.188,4.653-5.816,6.514C119.548,310.467,117.919,308.373,116.756,306.512ZM577.628,179.487c7.212-1.629,7.212-1.629,15.122,1.4-1.4,2.792-2.559,5.351-3.955,8.608h7.212c-1.163-1.861-2.094-3.257-2.792-4.42,3.024-2.792,5.584-5.118,8.841-7.91-8.841-4.188-16.751-5.583-25.358-3.955C577.163,175.532,577.4,177.626,577.628,179.487ZM536.683,389.334c.233,4.188.465,7.677.7,11.632,7.677-4.42,9.306-11.4,5.816-21.869-3.955,2.559-8.143,4.653-11.865,7.445-.465.233.465,2.559.7,4.188A27.194,27.194,0,0,1,536.683,389.334Zm586.036-67.7a65.352,65.352,0,0,0-4.653,8.841c-.7,1.629-.93,4.42-.233,5.351a14.419,14.419,0,0,0,6.747,2.792c.7,0,2.094-2.559,2.559-3.955a46.11,46.11,0,0,0,1.4-6.049C1129.931,321.634,1129.7,321.4,1122.719,321.634Zm-385.03-259.4c1.163-2.792,2.326-5.351,3.49-7.91,1.4-3.024.465-4.886-3.024-5.584-6.281-1.163-10,2.559-13.959,6.281,2.094.931,4.886,1.4,6.049,2.792s.931,3.955,1.163,6.049C733.734,63.4,736.06,62.7,737.689,62.234ZM454.558,130.864c-1.4,9.073-3.024,10.236-11.167,8.608-1.4,1.629-2.792,3.257-3.955,4.886.233.465.465.7.7,1.163,2.326-1.163,4.42-2.326,6.979-3.722.465,2.326.7,4.42.931,5.584,3.024-1.163,6.049-2.326,9.771-3.722.7-1.629,3.257-4.42,3.024-7.212C460.84,135.052,457.35,133.191,454.558,130.864ZM495.5,84.1c9.771,4.42,16.751-3.257,25.824-3.955C511.324,74.1,500.855,75.727,495.5,84.1ZM210.978,427.721c-1.861-6.514-8.375-11.4-15.82-11.865q1.745,6.281,3.49,11.865Zm618.374,94.92c3.024-6.514,5.583-12.563,8.375-18.379a9.431,9.431,0,0,0-2.094-1.163c-6.747.931-5.583,10.934-14.191,10.7C824.931,517.523,827.025,519.849,829.352,522.641ZM736.991,326.055c-4.42-8.841-13.493-13.493-16.053-12.8,3.955,4.42,7.677,9.073,11.632,13.493l-1.4,1.4C732.8,327.683,734.664,326.985,736.991,326.055ZM285.424,379.1c-6.281-3.257-12.1-6.281-18.612-9.538,1.4,4.42,2.559,8.143,3.955,12.33C275.188,379.331,280.539,384.449,285.424,379.1Zm769.129-181.231h-7.91c0,7.91,2.559,11.4,10.7,14.424C1056.414,207.172,1055.484,202.519,1054.553,197.866ZM762.582,471.459l-6.514-13.028a9.728,9.728,0,0,0,.931,2.327c-3.024,2.559-6.049,5.118-8.375,6.747C751.88,468.434,756.766,469.83,762.582,471.459ZM495.969,271.848c.233-3.49.465-6.514.931-11.167-6.049,2.094-10.469,3.722-14.889,5.118.233.465.233,1.163.465,1.629C486.431,268.824,490.619,270.219,495.969,271.848Zm305.232,34.2a13.831,13.831,0,0,1-3.722-1.4A39.827,39.827,0,0,1,793.291,300l4.188-3.49c1.4-1.163,3.024-2.326,4.42-3.49a9.428,9.428,0,0,1-1.163-2.094c-4.42,1.861-9.073,3.955-13.726,6.049C793.291,306.047,796.781,308.373,801.2,306.047ZM371.5,251.375c-3.49-2.559-5.816-4.886-8.375-5.584-2.094-.465-4.886,1.4-7.212,2.326-.233.233-.233,2.559.233,2.792a13.818,13.818,0,0,0,6.049,1.629C364.757,252.771,367.316,252.073,371.5,251.375ZM414.776,402.13c-.233-1.861-.233-3.722-.465-4.886-4.653-.931-8.608-1.861-13.261-3.024,2.326,3.722,4.42,6.979,6.514,10.236A42.3,42.3,0,0,0,414.776,402.13ZM737.224,112.485c.465-3.257.7-6.514,1.163-10-1.861-.7-3.955-1.4-6.049-2.094a2.53,2.53,0,0,0-1.163.233C729.546,109.694,729.779,110.391,737.224,112.485ZM605.081,187.63c13.493,6.514,13.493,6.514,16.518,1.163C616.248,187.4,611.595,182.977,605.081,187.63Zm-168.9,46.3c2.559,1.163,4.653,2.326,8.143,4.188-4.188-7.212.931-9.771,4.188-13.261C442,223.69,438.971,226.017,436.179,233.927Zm666.3,213.1a61.931,61.931,0,0,0,9.073-.233c.465,0,1.629-3.257.931-4.188-1.163-2.326-3.49-3.955-4.886-5.816C1105.5,440.749,1104.107,443.774,1102.478,447.031Zm-66.3-222.41c1.163,5.118,2.327,9.771,3.722,15.355,5.118-5.816,2.792-10.469,2.327-15.355ZM265.417,318.377c-2.792,2.326-5.816,4.42-8.841,6.979a50.181,50.181,0,0,1,2.094,4.653c3.257-1.629,6.514-3.024,9.539-4.653C267.045,323.03,266.347,320.7,265.417,318.377Zm340.362,76.541c.93-.7,2.094-1.861,3.49-3.024-4.886-3.955-9.306-8.143-16.751-6.281C596.938,388.636,600.893,391.428,605.779,394.918Zm16.285-155.64c.465.465.7.931,1.163,1.4H631.6q.349-4.537.7-9.073a6.968,6.968,0,0,1-1.861-.931C627.647,233.461,624.855,236.486,622.064,239.278Zm162.62,36.06c-2.792-2.559-4.885-4.653-7.445-6.979-.465,2.326-.931,3.722-1.163,5.118-2.094,0-3.955-.233-6.049-.233,3.024,2.094,5.351,3.955,8.143,6.049C779.8,278.129,781.892,276.966,784.683,275.338Zm250.095,177.974c.233-.7.7-1.163.93-1.861-1.861-.7-3.49-1.629-5.351-2.326-2.792-.931-5.816-1.861-8.841-2.792a47.056,47.056,0,0,1-5.351-3.024C1020.354,451.451,1026.636,454.475,1034.778,453.312ZM413.613,237.649l1.4-1.4c-2.326-3.024-4.653-5.816-6.514-8.375l-6.514,4.886C406.866,234.625,410.356,236.02,413.613,237.649Zm268.009,54.9c-11.632-6.049-11.632-6.049-12.1-.465,3.257,1.4,6.514,3.024,10,4.42A20.282,20.282,0,0,0,681.621,292.553ZM856.106,444.937c-2.792-4.42-5.118-8.143-7.677-11.865l-1.4.7c.93,4.653,1.861,9.306,2.792,14.191C851.686,447.263,853.314,446.333,856.106,444.937ZM715.82,327.916c-.465-.233-.7-.7-1.163-.931-2.559,1.861-5.118,3.722-7.91,5.816-.7,2.559-1.629,5.816-2.327,9.073.465.233.7.465,1.163.7C708.841,337.92,712.33,333.034,715.82,327.916ZM467.587,350.25c-.7,6.514.7,8.143,6.049,8.608.931-1.861,2.094-3.722,2.792-5.351C473.4,352.344,470.611,351.18,467.587,350.25ZM391.511,98.061c5.584,7.212,8.608,7.91,13.261,1.629-6.979,5.351-5.351-1.861-7.677-3.49A31.39,31.39,0,0,0,391.511,98.061ZM652.54,310.235c-.233.465-.465,1.163-.7,1.629,2.559,1.163,5.118,2.326,7.677,3.257,1.629-3.49,2.792-6.281,3.955-9.073a12.308,12.308,0,0,0-5.351,2.094A54.445,54.445,0,0,1,652.54,310.235Zm302.673-50.019c3.955.931,6.979,1.629,10,2.094a5.074,5.074,0,0,1,.931-1.163c-1.4-2.559-2.559-4.886-4.188-7.677ZM727.452,470.761c7.212.7,7.677,0,7.91-5.816C728.616,464.014,727.22,464.712,727.452,470.761ZM73.484,236.718c-3.257,3.722-5.816,6.979-9.073,10.934h5.816c-.233-.233-.465-.7-.7-.931l7.677-8.375A18.009,18.009,0,0,0,73.484,236.718ZM694.417,35.945c-2.326-2.792-4.42-4.886-6.747-7.445-2.094,2.094-3.257,3.49-5.118,5.351l9.073,3.024A12.567,12.567,0,0,0,694.417,35.945ZM850.988,208.1c7.91,1.163,10.236-2.094,9.771-11.4C857.967,199.96,854.71,203.683,850.988,208.1ZM729.314,513.568l7.677,6.979v-10.7A59.924,59.924,0,0,0,729.314,513.568Zm-308.722-429c-4.886,1.861-8.375,3.257-11.865,4.653C413.147,94.571,413.845,94.339,420.592,84.568Zm27.452-.7c1.861-3.722,3.49-6.514,5.118-10h-6.979c1.163,3.722,3.257,7.445-2.094,9.771A18.881,18.881,0,0,1,448.044,83.87ZM975.686,270.685c-.233.465-.7,1.163-.931,1.629,1.629,1.629,3.024,4.188,4.885,4.42,1.629.233,3.722-2.094,5.584-3.257-.233-.465-.465-1.163-.7-1.629C981.5,271.383,978.478,270.917,975.686,270.685ZM655.1,383.751c-.931-1.629-2.326-3.49-3.722-6.049-1.861,4.42-3.024,7.91-4.42,11.167.233.233.7.233.931.465C649.981,387.473,652.308,385.845,655.1,383.751ZM272.164,153.431a14.123,14.123,0,0,1,1.629-2.326c-4.653-2.326-9.073-4.886-13.726-7.212a12.986,12.986,0,0,1-1.163,1.861Q265.184,149.592,272.164,153.431Zm-181-1.4c-5.816,1.629-6.747,3.49-4.886,9.538C92.1,160.41,89.071,155.292,91.165,152.035Zm306.4-29.313c-2.094-.931-4.188-1.629-7.212-2.792.931,4.886,2.326,7.91,7.212,8.375Zm153.547,38.619c1.163-3.49,2.094-6.049,3.257-9.306-3.722-.233-6.281-.465-8.143-.7C547.617,154.362,549.013,157.153,551.107,161.341ZM660.218,30.594c-2.327-3.257-3.955-5.351-6.281-8.143-.931,2.792-1.4,4.653-2.094,6.979C655.1,29.9,657.426,30.361,660.218,30.594ZM299.151,237.416c-2.094-2.094-3.49-4.653-4.886-4.653-2.559,0-5.351,1.4-7.91,2.094.233.465.233.7.465,1.163C290.31,236.253,293.8,236.718,299.151,237.416Zm204.031-45.831c-3.024,2.559-5.816,4.886-8.375,7.212C504.345,196.936,505.043,196.005,503.181,191.585ZM306.363,275.57h2.559c.465-2.326.931-4.653,1.629-7.212-1.629.233-4.653.233-4.653.7A29.65,29.65,0,0,0,306.363,275.57Zm108.879-84.218-2.559,2.559c1.861,1.861,3.955,3.49,5.816,5.351a20.978,20.978,0,0,0,2.094-2.326C418.963,195.075,417.1,193.214,415.241,191.352Zm103.993-31.175h6.979a10.111,10.111,0,0,0,.931-1.629c-1.4-1.861-2.792-3.49-4.188-5.351-.7.465-1.4,1.163-2.094,1.629C520.4,156.688,519.7,158.317,519.234,160.178ZM438.506,119c-2.326,2.559-3.49,3.955-5.351,6.049,3.024.931,4.886,1.629,7.677,2.326C439.9,124.583,439.436,122.489,438.506,119Zm572.543,110.972c-7.677-3.49-6.049,3.257-9.306,4.42.465.465.931,1.163,1.4,1.629C1005.465,234.159,1007.791,232.3,1011.048,229.972Zm-589.293-5.816c-2.326,6.049-1.4,7.91,4.886,9.306C425.012,229.972,423.616,227.413,421.755,224.155ZM654.4,204.148c-1.4-2.326-2.559-4.42-4.188-7.445-1.163,3.49-1.861,6.049-2.792,9.539A65.684,65.684,0,0,0,654.4,204.148ZM994.53,449.124c2.326-1.629,3.955-2.559,5.816-3.955-2.094-1.861-3.722-3.024-5.816-4.886ZM785.381,164.365c.465-.233.7-.7,1.163-.931-.465-2.094-.931-3.955-1.4-6.049-2.326.931-4.188,1.628-6.281,2.559C781.194,161.574,783.288,162.97,785.381,164.365Z" transform="translate(-0.2 0.264)" fill="#482507"/></svg>