<?xml version="1.0" encoding="utf-8"?>
<!-- Generator: Adobe Illustrator 23.1.1, SVG Export Plug-In . SVG Version: 6.00 Build 0)  -->
<svg version="1.1" id="レイヤー_1" xmlns="http://www.w3.org/2000/svg" xmlns:xlink="http://www.w3.org/1999/xlink" x="0px"
	 y="0px" viewBox="0 0 569.7 569" style="enable-background:new 0 0 569.7 569;" xml:space="preserve">
<style type="text/css">
	.st0{fill-rule:evenodd;clip-rule:evenodd;}
</style>
<path class="st0" d="M567.2,195.5c-4.5,1.2-8.1,3.4-10.9,6.2c-0.7-7.8-3.3,0.6-4.7,1.6c-2.4-5.5,2.3-6.6-4.7-4.7
	c0.1-2.7-0.4-4.9-1.6-6.2c2.1,0.1,3.4-0.7,4.7-1.6c-0.2,2.8,1.6,3.7,4.7,3.1c-4.3-6.8,4.1-3.6,3.1-10.9c-6.5-3.7-14.5,2.7-17.2,1.6
	c6.7-2.9,8.7-19.3,0-21.9c-0.1,2.7,0.4,4.9,1.6,6.2c-3,0.7-3.9,3.4-7.8,3.1c-1.1-4.8,1.6-5.7,1.6-9.4c-4,1.7-10.2,7.2-4.7,9.4
	c-3.1-0.5-3.1,2.1-4.7,3.1c-7.8-3.3-8.9,3.5-14.1,0c5.3,1.6,2.4-4.9,3.1-7.8c-6.5,3.8-15.9,4.3-20.3-1.6c-0.9,6.1,1.3,9.1,3.1,12.5
	c-6.3,0.4-1.2,12.3-7.8,12.5c-0.8-9.1,7.1-15.2,1.6-20.3c-1.3,5.5-5.7,8.8-3.1,14.1c-7.1,1.5-14-3.5-7.8-6.2
	c-2.1-1.6-5.8-1.5-7.8-3.1c-0.7,7.1-7.4,8.3-9.4,14.1c-4.4-6.6-8-13.9-15.6-17.2c0.1,2.9-1.2,3.3-3.1,1.6c-0.4,2.8,1.6,7.8-3.1,6.2
	c-2.1-3.6,4-5.9,0-6.2c-3.2,4.5-12.9,6.5-17.2,1.6c5.8-1.2-0.1-7.8,0-12.5c2.1-1.6,4.7-2.6,6.2-4.7c-3.6,0.5-1.7-4.5-4.7-4.7
	c-0.4,3,1.8,3.4,1.6,6.2c-6.6,3.9-7.5-3.9-14.1,0c-0.4-3,1.8-3.4,1.6-6.2c-11.2-2.7-3.1,12.4-6.2,14.1c-2.1-1.6-5.8-1.5-6.2-4.7
	c1.8-0.2,4.4,0.3,4.7-1.6c-2.2-10,5.8-23.4,12.5-29.7c-0.9,8.9,4.9,2.3,6.2,0c0.6,3.8-2.9,3.4-1.6,7.8c7.3-2.8,9.4-2.9,12.5-7.8
	c4.1,1.2,5.3,5.1,9.4,6.2c1.8-4.4-4.1-5.7,1.6-10.9c-7.4,0.7-2.9-1.9-1.6-4.7c-1.9-0.2-3.7-0.5-3.1-3.1c-2.9-1.5-5.2,4.7-6.2,0
	c4.7-2.1,10.6-0.2,15.6,1.6c0.5-4,15.2-7.7,15.6-1.6c-3.4-2.7-12.3-0.7-14.1,3.1c6.2,3.6-4.4,7,0,9.4c3.1-0.8,4.7,0.5,12.5,1.6
	c3.7-6.5,8.3-14,15.6-12.5c-3.4-6,2-8.4,3.1-14.1c-5.2,0.8-14.2,6.9-15.6-1.6c2.7-1.9,7.5-9.6,1.6-10.9c2,5.3-6.1,8.3-7.8,4.7
	c-0.5-5.3,10.5-7.1,4.7-12.5c-3.8,2-3.6,7.9-9.4,7.8c-2.6-5,7.5-11.6,1.6-14.1c-1.6,2.1-2.6,4.7-4.7,6.2c-2.7-2.5-9.7-0.8-10.9-4.7
	c-0.2-6.3,4-4.1,7.8-3.1c1.9-3.8,3.9-7.6,4.7-12.5c-9.4,0.4,0.4-2.2-1.6-7.8c-5.6-2.4-0.9,5.3-4.7,4.7c-3-2.2-2.8-7.6-4.7-10.9
	c-2.1-0.1-3.4,0.7-4.7,1.6c1.4-7.4-3.8-4.3-4.7-6.2c-0.3-5.7-2.1-6,0-10.9c-8.3-1.1-2.6,7.6-3.1,9.4c-0.5,1.8-4,0.6-4.7,4.7
	c0.1-0.3,3.5,4.6,0,4.7c-1,0-2.1,0-3.1,0c0.7-9.6,6.3-12,3.1-21.9c-8.8-5.3-7.1,1.1-12.5-1.6c2.6-5.3,7.9-7.8,10.9-12.5
	c-1.8-0.3-1.7-2.5-1.6-4.7c-9.2,0.7-4.8,15-17.2,12.5c-0.3,2.3,0.6,5.8-1.6,6.2c-6.8-0.1-19.8-1.5-15.6-10.9
	c-7.5,4-10.3-5.1-12.5,3.1c5.6-3.1,5.5,3.5,10.9,4.7c-5-0.3-7.3,3-12.5,1.6c0,2.6,0,5.2,0,7.8c-3-2.9-3.9-0.2-7.8,0
	c-2,3.9,4.6,6.5,0,7.8c-0.7-3-4.5-2.8-3.1-7.8c-4.6,2.1-7.7,0-10.9-3.1c1.9-0.2,3.7-0.5,3.1-3.1c-4.1-4.1-1.2,2.5-6.2,1.6
	c1.9-3,5.4-8.5,9.4-4.7c1.1-4.8-1.6-5.7-1.6-9.4c-5.8-1.7-4.5,3.9-9.4,3.1c-1.9,5.1,5.1,1.2,3.1,6.2c-2,0.1-2.2,2-4.7,1.6
	c0-5.6,1.7-10.3-4.7-14.1c0.3,0.2-10,4.5-6.2-3.1c-5.9-1.2-1.1,8.3-7.8,6.2c0.1-2,2-2.2,1.6-4.7c-2.3,0.9-8.1-1.8-7.8,1.6
	c8.4,3.8-3.8,4.1-6.2,6.2c4,5.1-2.9,10.1-1.6,14.1c4.9-1.8,4.1,0.4,7.8-1.6c3.6,5.6,0,18.6-6.2,14.1c1.1,3.8,9,9.7,1.6,12.5
	c-1.2-6.6-8-10.6-14.1-7.8c1.4-6.4-2.6-11.4-1.6-20.3c2.2-0.6,2.6-1.9,4.7,0c2.4-5.6-5.3-0.9-4.7-4.7c2.1-0.5,3-2.2,6.2-1.6
	c-1.8-4.4-1.8-8.1,0-12.5c-9-0.9,1.1,8.1-6.2,9.4c-4.6-4.1-0.4-7.2-4.7-10.9c-4.2,1.6-8,1.6-10.9-1.6c4.4-1.3,4.1,2.2,7.8,1.6
	c1.6-6.4,0.7-6.3,1.6-14.1c-9-1.3-12.3,7.3-25,6.2c-0.1,5.1,0.6,11.1-4.7,10.9c1.8-2.3,1.8-3.9,0-6.2c-5.5-0.8-3.8,5.5-9.4,4.7
	c0.5-2.1,2.2-3,1.6-6.2c-8,0.6,2.5,10.1-4.7,10.9c3,0.4,3.4-1.8,6.2-1.6c-4.5,4.3,3.1,3.6,4.7,6.2c-0.3,1.8-1.7,2.4-3.1,3.1
	c-1.6-8.5-2.6,5.4-7.8,3.1c-0.6,3.8,2.9,3.4,1.6,7.8c4.1-0.4,5.1-3.2,4.7,3.1c5.7,0.5,10.2-0.2,14.1-1.6c-0.2,5.9,2.5,7.1,0,9.4
	c-4.7-0.2-10.1-8.5-12.5-1.6c5.5-1.4,1.6,4.1,0,4.7c-5-5.1-7.2-2.4-10.9-3.1c0.6-2,2-3.2,4.7-3.1c-0.8-7.6-8.4-8.3-7.8-17.2
	c-3.8-0.6-3.4,2.9-7.8,1.6c-3-2.9-1.1-6.3,1.6-7.8c-3.7-1-2.6-6.8-9.4-4.7c-0.2,1.8,0.3,4.4-1.6,4.7c-1.9-6.6-8-0.1-10.9,1.6
	c0.4-3.6-0.4-5.9-3.1-6.2c-0.4,8.5-6.7,5-1.6,12.5c-4.3-2.4-13.2-0.3-14.1-6.2c-6,4.2-5.5,5.1-10.9,0c-2.3,6.6-8.2,9.6-10.9,15.6
	c9.3-1.1,3.9,3.4,6.2,7.8c5.6,1,8.1,0.3,3.1,4.7c7.6-5,8,5.2,12.5,1.6c-1.8-0.5-7.4-4.8-3.1-6.2c3.8,3.6,10.9,16.7,4.7,20.3
	c-1.8-1.8-1.8-5.5-1.6-9.4c-8.2-0.6-6.6-3.6-15.6-1.6c0-2.6,0-5.2,0-7.8c-11.4-2.2-8.1-0.1-17.2-4.7c3,4.3,6.7,17.7-4.7,15.6
	c-0.1-2.5,0.2-5.4-3.1-4.7c-0.3,5,2.8,6.6,1.6,12.5c7.4,0.6,9.6-4,12.5-7.8c0.5,3.7,4.8,3.5,6.2,6.2c-5-0.3-2.5,6.8-7.8,6.2
	c1.1,4.8,1.1,3,0,7.8c4.9-0.8,6.1,3.4,9.4,0c4.5,3.8,0.6,14.6,9.4,17.2c4.3-3.3-5.5-5.9,1.6-7.8c10.4,4.7,17.7,19.1,28.1,18.8
	c-0.5,2.1-2.2,3-1.6,6.2c5.4,0.2,6.6-3.8,10.9-4.7c0.8,5.4,3.8,14.3-1.6,17.2c-1.6-2.1-1.5-5.8-4.7-6.3c-5.2,3.1,3.9,6.7,0,7.8
	c-5.5-5.9-9.8-9.7-15.6-7.8c-0.5-4.1,6.1-1.2,4.7-6.2c-6.6,0.2-7.5,7.1-14.1,3.1c-0.6,2.7,2.3,4,0,4.7c-3-0.7-2.8-4.5-7.8-3.1
	c-0.7,6.4,4.2-1.5,4.7,4.7c-10.4,1.2-4.5,9.3-12.5,7.8c0.6,3.6,6.2,2.1,7.8,4.7c-7.6,4.5-17.9-5.3-21.9-4.7c0-4.7,7.9-1.5,7.8-6.3
	c-2.4-0.4-1.1-3.4,0-4.7c-5.9,0.7-9.8-0.7-10.9-4.7c2.1-1.6,4.7-2.6,6.2-4.7c-1.2-0.3-1.8-1.3-1.6-3.1c-7.6,3.7-13.8,2.3-20.3-3.1
	c2-0.6,3.2-2,3.1-4.7c-6.2,6.4-8.9-4.3-17.2-4.7c-0.9,5.4-4.7,7.8-9.4,9.4c1.5-6.6-7.7,2.1-3.1-4.7c-3.6-0.5-6,0.3-7.8,1.6
	c-0.8,4.9,5.4,4.1,1.6,7.8c-2-1.3-9.7-9.5-10.9-1.6c1.4,1.1,7.4,1.7,9.4,6.2c-9.2,0.2-20.1-6.3-25,3.1c2.8,4.8,4.8-4.3,6.2,0
	c-1.6,3.1-6.9,2.5-6.2,7.8c5.7,0,8.4,3.1,10.9,6.3c-0.7,3-0.6,6.7-4.7,6.2c-2.7-5.8,0.9-2.5,1.6-7.8c-6.6-3-9.2,7.1-6.2,12.5
	c1.7,3.2,10,1.5,7.8,6.2c4.7-2.7,11.4-4.8,12.5,3.1c-1.1,4.9-4.2,2-7.8,1.6c-0.2,6.7-3.7,12,3.1,14.1c2.2-1,0.2-6,3.1-6.2
	c4.2,3.5-2.2,7.8,1.6,10.9c6.1-0.1,9.7-2.8,14.1-4.7c-0.8,4-2.7,6.1,3.1,6.2c-2.1-4.5,2.8-9.4,4.7-4.7c-1.9,0.2-3.7,0.5-3.1,3.1
	c1,0,2.1,0,3.1,0c7.3,1.4-2.1-4.1,3.1-4.7c0.3,1.2,1.3,1.8,3.1,1.6c-2.9,3,0.9,2.8,0,7.8c-9.5,0.8-1.4,8.9,0,12.5
	c-5.8,0.1-9.9-1.6-14.1-3.1c1.3,4.6-9.3,5.1-4.7,7.8c2.8-1.9,9.1,1.3,12.5-3.1c6.1,7.7,13,8.1,20.3,9.4c-1.3,2.3-5,2.3-7.8,3.1
	c-2.4,5.6,5.3,0.9,4.7,4.7c-2.3,0.3-5.8-0.6-6.2,1.6c5.3,2.5,6.5,4,12.5,3.1c0.8,2.5,6,8.4,1.6,10.9c-3.3-4.1-6.1-1.3-9.4-3.1
	c2.9,7.9-16.7,8.2-20.3,1.6c3-0.4,3.4,1.8,6.2,1.6c-0.1-2.7,0.4-4.9,1.6-6.2c-3.2-0.9-10.3,1.9-10.9-1.6c11-11.7,14.2,7.6,21.9,6.2
	c-2.1-7.3-6.4-12.4-9.4-18.8c-6.5-0.3-4.6,5.3-6.2,6.2c-4.9-4.9-5.3,2.7-10.9,1.6c2.1-9.9-11.6-4-12.5-10.9c0.2-5.5,3-6.8-1.6-9.4
	c4-1.4,13.9,2.5,9.4,0c-2.4-3.3-10.8-0.7-12.5-4.7c5,0.7,2.5-8.5,7.8-3.1c0-2.6,0-5.2,0-7.8c-7.4,0.7-9.3,2.2-14.1-1.6
	c-0.2,2.9-1,5.2-3.1,6.2c-7.3-5-9.7,9.8-17.2,1.6c0.9,5.9,5.5,8,9.4,10.9c3.2-1.6,10.3-8.4,12.5-1.6c-2.6,0-5.2,0-7.8,0
	c-2.3,5.9,7,0.3,4.7,6.2c-4.7,0-5.3-4.1-9.4-4.7c-1.4,2.3-1.2,6-6.2,4.7c3.1,13-10.3,13.3-20.3,12.5c-0.1,5.1-6.7,3.7-6.2,9.4
	c0.6,3,6.1,1.2,4.7,6.2c-2.2-1.7-3.8-1.7-4.7,1.6c1.7,8.7,9.8,11,17.2,14.1c-7.2,3.2-2.2,9.9-9.4,14.1c3.8,1.4,1.7,8.7,7.8,7.8
	c0.2-2.5-0.2-5.4,3.1-4.7c-0.1,2.1,0.7,3.4,1.6,4.7c-4.1-0.5-5.1,2.2-4.7,6.2c6.4-2.1,12.8,3.8,15.6,0c-5.2-1.5,1.7-3.1,1.6-4.7
	c-3.5,2.9-9.1-1.2-6.2-3.1c5.3,3.5,7-1.5,15.6-1.6c-1.3,4.4,2.2,4,1.6,7.8c-3.8,0.6-3.4-2.9-7.8-1.6c-2,6.2,4.6,3.8,4.7,7.8
	c-4.9,2.4-9.4,5.2-15.6,6.2c1.5-8.8-8-6.6-10.9-10.9c-1,10.9-13.3,3.5-18.8,1.6c-3,0.7-3.9,3.4-7.8,3.1c2.3,4.7-1.6,6.1-3.1,10.9
	c-2.7-0.4-3.6-2.7-3.1-6.2c-13.6-2.1-17.6,5.3-25,9.4c-0.5,3.6,0.3,6,1.6,7.8C12,303.6,1,293.5,0,303.3c5.8,1.5,11.8,2.8,14.1,7.8
	c0.2,9.9-0.3,14.6-4.7,26.6c5.7,1.6,8,6.6,14.1,7.8c-2.5,3.7-1.2,11.3-6.2,12.5c1.1-5.3-3.2-5.1-4.7-7.8c-0.4,3.2-5.8,1.5-6.2,4.7
	c2.1,1,2.9,3.3,3.1,6.2c-8.6,9.9-0.3,26.2,12.5,31.2c2.5-3.2,7.5-3.9,10.9-6.2c1-5.8-4.9-10.8,3.1-10.9c5.1,1.1,2.2,10.3,10.9,7.8
	c1.2-4.8-4.3-3-3.1-7.8c4.4,4.2,23.6-2.5,17.2,7.8c3-0.4,3.4,1.8,6.2,1.6c3.8-2.1-2.8-4.7,1.6-6.2c3.7,6.5,13.2-2,18.8,3.1
	c-1.3,3.9-7.1,3.3-6.2,9.4c7.9-4.5,8.8-1.7,15.6,1.6c1.3-6.5-4.2-6.2-6.2-9.4c7.8-13.9,24.6,0.3,29.7,7.8c-4.4-1.3-4,2.2-7.8,1.6
	c1.3,4.4-2.2,4-1.6,7.8c1,2.7,7.4-0.1,7.8,3.1c0.5,3.1-2.1,3.1-3.1,4.7c3.5,5,5.2,3.8,12.5,3.1c2.2-1,0.2-6,3.1-6.2
	c1,2.2,6,0.2,6.2,3.1c0.9,7.7,5.3,15.1,12.5,20.3c0.2-1.8-0.3-4.4,1.6-4.7c2.5,2.7,8.4,2.1,10.9,4.7c2,7.2-2.8,7.6-4.7,10.9
	c9.4,2.3,18.7,1,23.4,4.7c-0.5-5,3.2-10.5,7.8-7.8c-3.8-2.4-4.6,5.3-1.6,4.7c6.9-10.3,20.2-4.5,23.4,4.7c3.4-2.3,2.5-9,7.8-9.4
	c3.5,0.6-0.8,9.2,6.2,6.2c1.5-3.9-5.6-9.4,1.6-9.4c-2-6,1.4-7.5-1.6-12.5c6.9-2.6,18-0.4,25,1.6c-2.2,2.5-5.4,4-9.4,4.7
	c4.3-7.1-7.7,0.8-9.4-3.1c0.1,4.7-3,10.4,1.6,12.5c-1.1-6.1,5.5-0.1,7.8,0c0.3-2.3-0.6-5.8,1.6-6.2c2.7,0.5-2,5.4,4.7,4.7
	c0.6-4.8-4.1-8,1.6-9.4c7.4,3.5,6.7,10.7,9.4,18.8c2.9,8.8,9.2,18.2,10.9,25c0.9,3.7-0.6,9,0,12.5c3.5,20.7,8.8,33.5,6.2,54.7
	c-1.1,9.1-3.8,21.1-3.1,29.7c5.3,3.7,18,4.3,25,1.6c-3.2-58.8,6.7-111.6,7.8-164.1c0.4-18.9-4.1-44.6,17.2-50
	c-0.2-3.9-3-4.9,1.6-6.2c5.3,6,8.6,0.1,14.1-1.6c-1.2,6.7,10.1,11.3,12.5,4.7c-5.7-1-7-6.6-12.5-7.8c5.5-3.5,5.1,3.3,9.4,0
	c-2.9-4.7-3.4-11.4-1.6-14.1c7.9-1,6.3,20.1,14.1,9.4c-2.6,1.1-6.8-3.1-3.1-3.1c1.8,1.3,4.2,2.1,7.8,1.6c1.4-5.8,7.9-8,7.8-10.9
	c5.5,0.2,6.8,3,9.4-1.6c0.4,13.9,16.5,8.7,26.6,14.1c4.5,2.4,1.9,7.1,7.8,6.2c12.7-4.6,10.7,9.5,18.8,15.6c4.2,1.1-1.1-7.4,3.1-6.2
	c1.7,0.9,4.7,1.6,9.4,3.1c13.1-4.5,19.5,0.9,31.2,3.1c3.9-8.9,17.2-0.1,26.6-4.7c0-2.1,0-4.2,0-6.2c-3.8-0.5-7.6,6.8-10.9,1.6
	c3.8-3.6,2.4-5,1.6-10.9c-4.3-1.1-3.1,3.1-6.2,3.1c1.1-4.3-3.1-3.1-3.1-6.2c4.9-3.3,6-3.3,10.9,0c1.2-4.8-5.4-1.9-3.1-7.8
	c-5.2,0.5-8.8,2.7-10.9,6.2c-1-2.2-6-0.2-6.2-3.1c-0.5-4.1,2.2-5.1,6.2-4.7c-3.5-10.4-15.9,3-21.9-1.6c5.6-1.6,8.7-5.9,12.5-9.4
	c-10.6-0.7-18,1.8-23.4,6.2c-0.6-3-6.1-1.2-4.7-6.2c4.5,0.3,8.5,0.2,7.8-4.7c-2.3-0.3-5.8,0.6-6.2-1.6c0.2-1.8-0.3-4.4,1.6-4.7
	c0.2,1.8-0.3,4.4,1.6,4.7c1.8-5,0.4-5.5,3.1-10.9c-1,0-2.1,0-3.1,0c-1.2,0.4-3.1,0-3.1,1.6c5.1,3-11.9,7.1-10.9,1.6
	c6.1-1,5.6-1,6.2-9.4c-6.9-2.2-8.3-0.4-12.5,3.1c1.4-5-4.1-3.2-4.7-6.2c6.9-2.3,9.2-3.1,17.2-1.6c0.6-7,6.6-2.6,9.4-4.7
	c-4-6.4-0.7-11.5-10.9-12.5c-0.6,2.7,2.3,4,0,4.7c-2.2,1.7-3.8,1.7-4.7-1.6c2.8,0.2,3.7-1.6,3.1-4.7c-2.2-0.4-2.6-2.6-4.7-3.1
	c-3.2,3.5-7.3,6.2-14.1,6.2c-2.4,5.6,5.3,0.9,4.7,4.7c-6-0.6-4.6,2.4-7.8,4.7c-0.7,0.5-8,0.1-6.2,4.7c2.1,2.2,7.1,3.9,3.1,7.8
	c1.7,3,7.2,2.2,9.4,4.7c-4.9-1.8-3.8,2.5-6.2,3.1c-2.4-4.4-6.3-7.2-6.2-14.1c-10.2,1.6-1.9-3.2-4.7-4.7c-2,2.1-7.4,4.6-7.8,0
	c7.3,1.1,6.2-6.3,10.9-7.8c-1.8-0.3-2.4-1.7-3.1-3.1c5.3-8.4,27.9-3.9,26.6-10.9c7.6-0.5,11.1-4.4,15.6,0c0.7-9.3,9.3-1,14.1-6.2
	c3.1,4.9,6.1,1.9,10.9,6.2c-3.8-5.1,6-12.2,10.9-7.8c-2.3,2-10.3,6.3-6.2,9.4c2.4-3.9,9.3-3.2,9.4-9.4c-0.5,3.6,0.3,6,1.6,7.8
	c6.9-4,5.4-1.8,7.8,4.7c6.8,0,8.7-2.8,10.9,3.1c-6.1-2.5-3.2,4.1-6.2,4.7c0.7-8.2-11.2,0.8-4.7,3.1c3.8-4.8,1,1.8,3.1,1.6
	c3.2-3.1,5.5-7,9.4-9.4c3.9,3,6.4-2.4,9.4,1.6c-6.3,1,4.8,9.1,7.8,10.9c2.2-3,5.9-4.5,6.2-9.4c-4.8-1.2-3,4.3-7.8,3.1
	c0-1.6,0-3.1,0-4.7c4.5,4.2,4.3-1.7,6.2-3.1c3.7-2.8,9.5-1.9,7.8-6.2c-2.1-3.8-4.7,2.8-6.2-1.6c1.4-2.7,3.5-6,6.2-3.1
	c1.6-6.8-3.4-7-6.2-9.4c1.4,5-2.4,4.9-4.7,6.2c-0.1-2-2-2.2-1.6-4.7c1.6-3.1,6.9-2.5,6.2-7.8c-1.5-2.7-5.2-3.1-6.2-6.2
	c2.2-1,0.2-6,3.1-6.2c-1.1-1.2-3.9-7.6,1.6-6.2c0.3,1.3-0.6,1.5-1.6,1.6c0.5,2.1,3.9,1.3,6.2,1.6c1.6,4.7-3.5,2.8-6.2,3.1
	c2,4.9,3.2,0.8,7.8,3.1c2.5-4.8,5.1-9.5,7.8-14.1c2.1,0.5,3,2.2,6.2,1.6c1.8-7.2,8.7-13.6,9.4-17.2c3.3,2.9,5.4,7.1,7.8,10.9
	C571,206.6,568.5,203.4,567.2,195.5z M445.3,128.3c0,4.3-7.4,3.7-9.4,1.6C438.1,126.6,441.3,131.4,445.3,128.3z M439.1,126.7
	C429.8,125.5,435.3,117.6,439.1,126.7L439.1,126.7z M446.9,90.8c2.8,1.1,0.2,2.8,0,4.7C444.1,94.3,446.7,92.6,446.9,90.8z
	 M454.7,115.8c-5.9-5.4-6.1-0.1-14.1,0c-0.6-3.7,7.1,0.9,4.7-4.7C450,111.1,454.8,110.9,454.7,115.8z M443.8,83
	c2.4,5.6-5.3,0.9-4.7,4.7C434.8,86.2,439.8,81.3,443.8,83z M439.1,108c0.8,1.3,1.6,2.5,1.6,4.7c-2.1,0-4.2,0-6.2,0
	c0.8-1.3,1.6-2.5,1.6-4.7C437,108,438,108,439.1,108z M434.4,100.1c0.1-0.1-0.1-1.5,0-1.6C441.9,97.3,427,108.6,434.4,100.1z
	 M192.2,42.3c-5.8-1.1,1.2-5.2-4.7-6.2c0.4-2.7,2.7-3.6,6.2-3.1c-0.1,2.2-0.3,4.4,1.6,4.7C194.3,39.2,191.7,39.3,192.2,42.3z
	 M204.7,50.1c-3.7-0.5-3.5-4.8-6.2-6.2C200.5,40,206,45.5,204.7,50.1z M226.6,26.7c1.3,0.3,1.5-0.6,1.6-1.6c3-0.6,2.3,7.1-1.6,4.7
	C226.6,28.8,226.6,27.8,226.6,26.7z M225,59.5c1,0,2.1,0,3.1,0c-0.8,1.3-1.6,2.5-1.6,4.7C223.3,63.3,223.3,61.8,225,59.5z
	 M228.1,68.9c-1.3,4.4,2.2,4,1.6,7.8c-4-0.2-2.2-6.1-6.2-6.2C223.7,68.6,226.3,69.1,228.1,68.9z M192.2,62.6
	c5.6-2.4,0.9,5.3,4.7,4.7C195.1,71.9,191.8,65.3,192.2,62.6z M195.3,84.5c1.3,0.3,1.5-0.6,1.6-1.6c1.8,0.3,1.3,2.9,1.6,4.7
	C195.8,88.2,195.5,86.4,195.3,84.5z M218.8,104.8c-9.5-1.9-13-9.9-20.3-14.1c1.8-3.4,1.8-8.6,6.2-9.4c-2.1,8.9,6.2,15.6,10.9,12.5
	c4.5-2.6-3,3.7-1.6,7.8c5,1.4,2.2-5.1,4.7-6.2C223.1,97,218.3,102.1,218.8,104.8z M220.3,81.4c0.6-5.3,4.2-2,1.6-7.8
	c-3,0.7-3.9,3.4-7.8,3.1c-3-2.7,2.7-5.4-4.7-4.7c0-3.6,0-7.3,0-10.9c2.6,0,5.2,0,7.8,0c-0.7-2.5-4.9-1.3-3.1-6.2
	c6,6.3,12.4,19.6,10.9,28.1C223.7,82.1,222.5,81.3,220.3,81.4z M226.6,95.5c-1.9-0.7-3.2-2-3.1-4.7
	C225.4,91.5,226.6,92.8,226.6,95.5z M228.1,100.1C235.8,99.6,215.7,101,228.1,100.1L228.1,100.1z M226.6,53.3
	c-0.4-3.7,4.6,0.6,4.7,1.6C231.5,57.4,227,56.8,226.6,53.3z M106.2,122C112,129.7,101.4,131.4,106.2,122L106.2,122z M125,123.6
	c1-5.7-3.4-6-3.1-10.9c4.5,8.1,13.2,3.1,17.2,12.5C135.4,128.4,130,123.8,125,123.6z M135.9,165.8c0.8-1.3,1.6-2.5,1.6-4.7
	c1.2,2.5,5,2.3,4.7,6.2C138.9,168,138.1,166.3,135.9,165.8z M156.2,118.9c1.3,0.3,1.5-0.6,1.6-1.6c3-0.6,2.3,7.1-1.6,4.7
	C156.2,121,156.2,119.9,156.2,118.9z M159.4,198.6c-3.3-1.4-9.3,0-7.8-6.2c1.3-0.3,1.5,0.6,1.6,1.6
	C152.6,198,161.9,192.4,159.4,198.6z M73.4,228.3c-7.7-2.5-2.3,8.1-9.4,6.2c-1.3-3.7,7.7-7.3,0-7.8c6.9-5.3,11.4,5.2,17.2,6.2
	C79,237.1,72.7,232.3,73.4,228.3z M92.2,253.3c-1.8-0.3-1.3-2.9-1.6-4.7c2.7-0.6,2.9,1.2,3.1,3.1C92.4,251.4,92.3,252.3,92.2,253.3z
	 M18.8,386.1c0.3-1.3,1.6-1.6,1.6-3.1c1,0,2.1,0,3.1,0C24.2,386.3,21.2,385.9,18.8,386.1z M59.4,289.2c1.3,0.8,2.5,1.6,4.7,1.6
	c0,1,0,2.1,0,3.1c-1.3,0.8-2.5,1.6-4.7,1.6C59.4,293.4,59.4,291.3,59.4,289.2z M68.8,368.9c-3.2,5.1-18.7,4.3-18.8-3.1
	c3.6-3.8,4.2,2.4,7.8,3.1c1.9-0.7,3.2-2,3.1-4.7c-0.5-2.1-3.9-1.3-6.2-1.6c-0.6-3.8,2.9-3.4,1.6-7.8c7.8,0.8,9.3-0.3,14.1,1.6
	C70.2,360,63.7,365.2,68.8,368.9z M60.9,348.6c-2.3-1.3-3.4-3.9-3.1-7.8c5.3,1.2,2-6.3,7.8-4.7c0,1.5-1.9,1.2-3.1,1.6
	c1.6,5.4-1.1,8.8,6.2,6.2c-0.3,1.8,0.3,2.8,1.6,3.1C68.2,353.4,62.5,345.5,60.9,348.6z M453.1,342.3c5.1,2.6,9.9,0.8,9.4-6.2
	c-5.1-1.9-1.2,5.1-6.2,3.1c1-1.4,1.9-2.8,0-3.1c3.4-1.3,3.5-5.9,7.8-6.2c-2.9,7,1.2,3.8,3.1,0c1.9-0.5,5.4,4.5,1.6,4.7
	c0,1.5,1.9,1.2,3.1,1.6c-2.7,2-4.1,5.3-9.4,4.7c5,5-3.3,4.6-3.1,9.4c0.7,2.3,2-0.6,4.7,0c1.6,5.2-4.9,2.4-7.8,3.1
	C455.1,348.1,449.8,348.2,453.1,342.3z M446.9,331.4c0,1.6,0,3.1,0,4.7c-3.5,0.9-2.2-3-4.7-3.1C442.4,331.1,445,331.6,446.9,331.4z
	 M445.3,347c-0.4,3.6-4.2,3.6-6.2,1.6C439.5,345,443.2,345,445.3,347z M439.1,342.3C435.4,347.4,432.7,336.8,439.1,342.3
	L439.1,342.3z M426.6,331.4c4.2,1.1,3-3.2,4.7-4.7c4.3,3.6-2.1,8.3,1.6,12.5c-3.7-0.5-2.9-5.4-7.8-4.7c-0.2-3.9-0.2-7.5,1.6-9.4
	C431.2,326.2,425.1,328.5,426.6,331.4z M428.1,273.6c2.5-0.4,2.7,1.5,4.7,1.6C433.4,278.2,425.7,277.4,428.1,273.6z M421.9,279.8
	c4.9,2.1,5.2,0.3,10.9,0C432.5,282.4,421.2,286.1,421.9,279.8z M425,318.9c3.8,1,0.8,7.9-3.1,6.2C421.9,322,426.1,323.2,425,318.9z
	 M406.3,184.5c-1.3-0.3-1.6-1.6-3.1-1.6c0,1,0,2.1,0,3.1c-1,0-2.1,0-3.1,0c0-1,0-2.1,0-3.1c1,0,2.1,0,3.1,0c0-1,0-2.1,0-3.1
	C406.5,179.1,406.1,182.1,406.3,184.5z M398.4,222c-7,0.1,3.2-8-4.7-7.8c1-2.1,3.3-2.9,6.2-3.1C397.9,213.1,398.5,217.9,398.4,222z
	 M398.4,164.2c-2.1-0.6-2.5-2.8-4.7-3.1c0.3-1.8,2.9-1.3,4.7-1.6C398.4,161.1,398.4,162.6,398.4,164.2z M392.2,108
	c1.4-2.8,3.8-4.6,4.7-7.8C400.3,101.7,395.5,108,392.2,108z M395.3,112.6c1.1,1.1-6.2,4.3-4.7,1.6
	C390.9,113.8,394,111.3,395.3,112.6z M395.3,245.5c2.1,0,4.2,0,6.2,0c0.1,5.3-4.7,10.4-9.4,6.2C396.5,249.4,399.6,252.3,395.3,245.5
	z M398.4,233c-3-0.7-6.7-0.6-6.2-4.7c4.9,0.8,6.1-3.4,9.4,0C400.5,229.9,398,229.9,398.4,233z M401.6,134.5c0.4-1.7,3.1-1.1,3.1-3.1
	C408.9,132.8,403.4,138.3,401.6,134.5z M414.1,128.3c-5.5-2.7-3.8,1-9.4,1.6c-2.6-3.1,0.1-2,0-6.3c1.3-0.3,1.5,0.6,1.6,1.6
	c2.3-0.7-0.6-2,0-4.7c3.6-0.5,1.7,4.5,4.7,4.7c1.5-1.1,2.4-2.8,3.1-4.7c-2.9-1.9-6.9,0.4-6.2-7.8c6.2,2.1,1.2,5.7,7.8,1.6
	C416.1,119.9,415.4,124.4,414.1,128.3z M420.3,125.1c-3.5-6.5,2.5-7.5,6.2-10.9C428.2,121.5,419.3,118.4,420.3,125.1z M418.8,51.7
	c-4.7-4.8,5.1-4.1,4.7-9.4C429.6,43.9,422.3,50.5,418.8,51.7z M421.9,36.1c5.2,4.6-4,7.9-4.7,7.8C412.3,40.9,420.8,38.3,421.9,36.1z
	 M414.1,86.1c-0.4,6.5,1.9,6.3,6.2,4.7c-3.5,3.4,1.3,5.3,0,10.9c-4.7,0.6-3.2-5.1-4.7-7.8c-7.1-0.3-3.9,9.7-12.5,7.8
	c1.3-6.2,7.2-6.2,4.7-14.1C409.2,86.4,411.3,86,414.1,86.1z M409.4,53.3c-2.1-0.5-1.3-3.9-1.6-6.2C413.3,45.6,410.5,52.1,409.4,53.3
	z M403.1,36.1c-2.4,1.9-4.2,6.9-7.8,3.1C396.6,36.9,400.3,36.9,403.1,36.1z M401.6,56.4c-0.9,0.2-2-2.2-1.6-3.1
	C402.4,47.8,403,56.1,401.6,56.4z M398.4,59.5c3.6-2.3,6.7,0.5,7.8-1.6c5.5,2.7-3.6,3.4-4.7,4.7c0.2,2.9,5.3,1,6.2,3.1
	c-3.7,7-11.8-3.6-12.5-9.4C396.7,57.1,398.1,57.8,398.4,59.5z M398.4,73.6c0-1.6,0-3.1,0-4.7C403,66.6,403,75.9,398.4,73.6z
	 M400,86.1c4.5,2.2-0.4,7.7-1.6,9.4c-5.2-0.5,4.7-7.4-3.1-6.2C395.7,87,400,88.7,400,86.1z M390.6,61.1
	C397.8,62.1,389.4,70.5,390.6,61.1L390.6,61.1z M390.6,95.5c1.6,0,3.1,0,4.7,0c0.2,3.9-2.5,4.8-3.1,7.8
	C388.8,103.5,391.5,97.7,390.6,95.5z M384.4,226.7c-1.3-1.1-4.3-2.4-4.7,0c-2.8-7,8.2-13.6,7.8-23.4
	C393.4,211.8,381.2,215.6,384.4,226.7z M376.6,147c-4.8-2.1,2.7-7.1,4.7-3.1C380.9,146.1,376.6,144.4,376.6,147z M378.1,204.8
	c0.4,2.5-1.5,2.7-1.6,4.7c-1,0-2.1,0-3.1,0c-0.4-2.5,1.5-2.7,1.6-4.7C376,204.8,377.1,204.8,378.1,204.8z M379.7,139.2
	c0.5-6.9,8.3,0.8,9.4-3.1C394.4,139.5,381.9,143,379.7,139.2z M389.1,134.5c-2.8-1.8-1.2-8.1-3.1-10.9
	C390.9,123.5,390,133.4,389.1,134.5z M382.8,70.5c6.2-1,1.8,8.6,3.1,12.5c-2.1-1.9-2.5-0.6-4.7,0c0.3,5.9,1.1,8.8,6.2,6.2
	c-2.1,2-1.5,6.8-1.6,10.9C381,94.9,375.9,77.7,382.8,70.5z M379.7,64.2c-2.5-0.7-1.3-4.9-6.2-3.1C375.2,56.8,384.7,61.1,379.7,64.2z
	 M378.1,75.1c-4.3,1.1-3.1-3.1-6.2-3.1c0.4-2.3,4.7-0.5,4.7-3.1C378.7,69.4,377.9,72.8,378.1,75.1z M368.8,54.8c1.6,0,3.1,0,4.7,0
	c0,1.5-1.9,1.2-3.1,1.6c0.8,1.3,1.6,2.5,1.6,4.7C369.1,60.7,368.3,58.4,368.8,54.8z M368.8,92.3c0.4-5.1-1.9-7.5-6.2-7.8
	c1.7-3,10.8,3,12.5-3.1c2.3,1.3,2.3,5,3.1,7.8c-3.5-0.9-2.2,3-4.7,3.1c0.3,1.3,1.6,1.6,1.6,3.1c7.2-6.2,9.2,11.5,10.9,20.3
	c-2.2-0.1-4.4-0.3-4.7,1.6c-6-3.8,0.7-4.6,0-10.9c-3.8,2.2-8.3,5.5-7.8-3.1c-2.8,1.4-4.6,5-7.8,1.6c-2.3,0.7,0.6,2,0,4.7
	c-10-1.2-10.9,0.1-20.3,4.7c-1.2-5.4,1.5-6.9,4.7-7.8c-0.2-3.4-3.9-3.4-7.8-3.1C334.6,80.2,361,83.1,368.8,92.3z M368.8,150.1
	c-3.3-3.4-1.8-11.7-6.2-14.1c-3.7-3.5,4.1,1.3,7.8,0C371.4,142.4,368.8,145,368.8,150.1z M332.8,95.5c0-1.5,1.9-1.2,3.1-1.6
	c0.4-4.6-3.5-4.8-3.1-9.4c3.7,0,4.6-2.7,9.4-1.6C338.9,87,340.8,96.2,332.8,95.5z M337.5,104.8c-1,0-2.1,0-3.1,0
	c-0.4-2.5,1.5-2.7,1.6-4.7C339.2,101,339.3,102.6,337.5,104.8z M354.7,76.7c-4.1,1.2-5.3,5.1-9.4,6.2
	C345.5,77.9,351.6,74.1,354.7,76.7z M345.3,22c0.9,5.6-4.8,4.6-4.7,9.4c-1.9,0.6-0.8-2.7-1.6-3.1c-2.5-1.4-3.5,3-3.1,3.1
	c-3.8-1.6-2.6-6.3-9.4-7.8C331.2,18.3,337.4,31.9,345.3,22z M317.2,75.1c0-1,0-2.1,0-3.1c4.5,3.6-2.9,8.4-1.6,14.1
	c-3.1-2.1-0.8-9.6-3.1-12.5C313.8,74.4,315,75.2,317.2,75.1z M309.4,109.5c-7.9-0.6-3.6,11-9.4,12.5c-2.9-6.1,5.1-14.7,6.2-21.9
	C313.7,100.3,308.3,103.7,309.4,109.5z M309.4,117.3c-2.8-1.1-0.2-2.8,0-4.7C312.2,113.8,309.6,115.5,309.4,117.3z M301.6,92.3
	c-0.7,3.9-3.4-2.6-3.1-4.7C299.9,88.8,300.8,90.5,301.6,92.3z M300,78.3c-4.6,0.3-5.5-5.6-3.1-7.8C300.9,72.5,301.8,73.7,300,78.3z
	 M304.7,100.1c-3.5,0.9-2.2-3-4.7-3.1C300.6,93.1,306.1,96.9,304.7,100.1z M295.3,17.3c3.3-0.7,3,2.2,3.1,4.7
	c-1.3-0.3-1.6-1.6-3.1-1.6C295.3,19.4,295.3,18.4,295.3,17.3z M295.3,53.3c4.7,4.8,5.4,7,9.4,3.1c1.9,3.9,0.9,8.8-1.6,14.1
	c-1.9-1.8-2.8-4.5-7.8-3.1C295.3,62.6,295.3,58,295.3,53.3z M298.4,84.5c-1.9-0.7-3.2-2-3.1-4.7C297.2,80.5,298.5,81.8,298.4,84.5z
	 M282.8,111.1c3.9-4.8,9.5,1.9,15.6,0c-0.9,3.3-3.3,5-4.7,7.8c-5.5-0.8-7-4.6-12.5-1.6C281,115.2,287.6,112.6,282.8,111.1z
	 M295.3,93.9c5.3,2.8-4.2,7.1-6.2,3.1C287.9,92.8,296.4,98.1,295.3,93.9z M287.5,59.5c0-1,0-2.1,0-3.1c1,0,2.1,0,3.1,0
	c0,1,0,2.1,0,3.1C289.6,59.5,288.5,59.5,287.5,59.5z M290.6,83C294.7,77.6,294.4,91,290.6,83L290.6,83z M293.8,73.6
	c-1,0-2.1,0-3.1,0c0-1,0-2.1,0-3.1c1,0,2.1,0,3.1,0C293.8,71.5,293.8,72.5,293.8,73.6z M290.6,37.6c0.1-0.1-0.1-1.5,0-1.6
	C298.1,34.8,283.2,46.1,290.6,37.6z M279.7,31.4c3.8-3.6,9.5-0.3,12.5,1.6c-6.4,2.8-5,7.3-6.2,12.5c1.6,0,3.1,0,4.7,0
	c-1.7,1.5-0.5,5.8-4.7,4.7c0-1.6,0-3.1,0-4.7c-6.7,1.4,3-6.8-6.2-4.7C279.8,34.9,281.4,36.3,279.7,31.4z M284.4,62.6
	c-2.1-0.5-1.3-3.9-1.6-6.2C286.4,56.8,286.4,60.6,284.4,62.6z M281.3,68.9c5.7-1,6.1,3.2,6.2,7.8c-3.9,0.2-4.8-2.5-7.8-3.1
	C280.5,72.3,281.3,71,281.3,68.9z M265.6,290.8c-3.7-0.4-0.9-6.9,0-7.8c5,1.3,11.5,1,15.6,3.1C276.2,290.2,267.9,282.7,265.6,290.8z
	 M271.9,293.9c0.4,2.5-1.5,2.7-1.6,4.7c-1,0-2.1,0-3.1,0c-0.4-2.5,1.5-2.7,1.6-4.7C269.8,293.9,270.8,293.9,271.9,293.9z
	 M259.4,279.8c0.3-1.3,1.6-1.6,1.6-3.1c1,0,2.1,0,3.1,0C264.8,280,261.8,279.7,259.4,279.8z M262.5,322c-1.9-0.7-3.2-2-3.1-4.7
	C261.3,318,262.6,319.3,262.5,322z M209.4,208c2.3-2.9,6.5-3.9,7.8-7.8c2.7,1.4,4,5.5,1.6,7.8c6.1,1.5,10.8-6.3,4.7-7.8
	c3.8-3.7,8.6,4.9,12.5,6.2c-1.3,1.3-0.9,4.3-3.1,4.7c-6.2,0.3,0.5-2.4-3.1-4.7C225.5,209.1,214.9,211.6,209.4,208z M215.6,256.4
	c0.4,2.5-1.5,2.7-1.6,4.7c-4-0.2-6.1-2.3-6.2-6.2C211.4,254.3,213.8,255.1,215.6,256.4z M229.7,187.6c1.3,0.8,2.5,1.6,4.7,1.6
	c0.2,3.9-2.5,4.8-3.1,7.8c-1.3-0.8-2.5-1.6-4.7-1.6c0.9-3.2,2.4-3.3,4.7-1.6C230.4,190.7,226.5,190.8,229.7,187.6z M223.4,179.8
	c-6.5-5.6,3.1,0.7,3.1,0C226.3,182.8,223.8,180.1,223.4,179.8z M221.9,192.3c-0.2-2.8,1.9-3.3,1.6-6.2
	C228,186.4,227.2,193.5,221.9,192.3z M229.7,245.5c2.5-0.4,2.7,1.5,4.7,1.6C235,250,227.3,249.3,229.7,245.5z M234.4,312.6
	C223.6,310.3,230.2,303.8,234.4,312.6L234.4,312.6z M226.6,298.6c-2.5,1.2,0.4,7.6-4.7,6.2C222.5,301.8,222.4,298.1,226.6,298.6z
	 M223.4,326.7c1,0,2.1,0,3.1,0c0,1,0,2.1,0,3.1c-1,0-2.1,0-3.1,0C223.4,328.8,223.4,327.8,223.4,326.7z M226.6,312.6
	c3.7,0.4,0.9,6.9,0,7.8C221.1,319.2,224.8,315,226.6,312.6z M231.3,323.6c3.9,0.6,0.1,6.1-3.1,4.7
	C228.7,326.2,230.9,325.8,231.3,323.6z M232.8,358c2.5-0.4,2.7,1.5,4.7,1.6C238.1,362.5,230.4,361.8,232.8,358z M229.7,303.3
	c3.8,0.6,3.4-2.9,7.8-1.6c0,1.6,0,3.1,0,4.7C235.5,298.6,229.6,310.4,229.7,303.3z M234.4,243.9c0-1,0-2.1,0-3.1c1,0,2.1,0,3.1,0
	c0,1,0,2.1,0,3.1C236.5,243.9,235.4,243.9,234.4,243.9z M232.8,198.6c1.2-5,3.6-8.9,9.4-9.4c-2.6,3-7.3,5.9-1.6,9.4
	C240.2,202.2,233.8,199.5,232.8,198.6z M240.6,151.7c0-1,0-2.1,0-3.1c3.1-0.5,4.9,0.3,4.7,3.1C243.8,151.7,242.2,151.7,240.6,151.7z
	 M240.6,214.2c0.2-0.6,3.3-2.8,4.7-1.6C248.4,215.3,238.4,220.1,240.6,214.2z M242.2,200.1c1.3,1.1,4.3,2.4,4.7,0
	c1.8-4.5,1.8,2.5,0,3.1c4.8-2.3,8.1-0.4,12.5,1.6c-5,3.9-1.9,7.7,0,12.5C252.8,212.4,245.6,208.2,242.2,200.1z M253.1,140.8
	c2.4-1.8,3.8-4.5,6.2-6.2c5.8-1.6,3.1,5.3,6.2,6.2c-2.8,4.5-9.5,5.1-9.4,12.5c2.1-1.5,3.1-4.2,4.7-6.2c1.8,0.3,1.3,2.9,1.6,4.7
	c1.6,0,3.1,0,4.7,0c-5.7,2.3-8.1-0.1-10.9,6.2c-7.3-4.4-6.2-15.2-3.1-23.4C257.8,135.5,251.6,137.9,253.1,140.8z M262.5,183
	c-1.9-0.7-3.2-2-3.1-4.7C261.3,179,262.6,180.3,262.5,183z M265.6,218.9c-0.7-3-4.5-2.8-3.1-7.8c1.6,0,3.1,0,4.7,0
	c3.8,11.8,1.5,10.2,4.7,20.3c-5.6,3.3-8.4-7.7-14.1-9.4C259.8,218,261,217.1,265.6,218.9z M270.3,178.3c2.8,0.4,3.6,2.7,3.1,6.2
	C268.6,185.2,267.9,180.6,270.3,178.3z M268.8,242.3c-1.9,4.7-6.8-0.2-4.7-4.7C267,237.8,265.1,242.8,268.8,242.3z M275,275.1
	c1,0,2.1,0,3.1,0c-0.8,1.3-1.6,2.5-1.6,4.7C273.3,279,273.3,277.4,275,275.1z M276.6,215.8c0.7-1.9,2-3.2,4.7-3.1
	C280.6,214.6,279.3,215.9,276.6,215.8z M271.9,18.9c2.7-0.6,2.9,1.2,3.1,3.1c-1.3-0.3-1.5,0.6-1.6,1.6
	C271.6,23.3,272.1,20.7,271.9,18.9z M273.4,34.5c0.7-3,0.6-6.7,4.7-6.2C278.6,32.3,277.6,35,273.4,34.5z M270.3,53.3
	c0.3-1.8,2.9-1.3,4.7-1.6c0.3,4.5,0.2,8.5-4.7,7.8c0-3.1,4.3-2,3.1-6.2C272.4,53.3,271.4,53.3,270.3,53.3z M271.9,92.3
	c2.8-0.4,3.2,1.5,1.6,1.6c0.5,2.1,3.9,1.3,6.2,1.6c0.1,6.9-5.6,7.9-9.4,10.9C272.2,101.6,271.1,100.1,271.9,92.3z M278.1,123.6
	c-4.8,2.3-6.1-0.3-9.4-3.1c-4.7,1,1.5,3.3,0,6.2c-9.6,0.1-5.3-10.5-6.2-14.1C268.2,110,281.4,109.3,278.1,123.6z M262.5,109.5
	C258.9,117.4,253.6,112,262.5,109.5L262.5,109.5z M253.1,97c2.7-3.9-0.9-7.5-1.6-1.6c-6.4-1.8-1.5-6.7,4.7-4.7
	c-0.7-1.4-1.4-2.8-3.1-3.1C257.4,82.1,260.7,98.3,253.1,97z M251.6,68.9c-1.3,2.3-5,2.3-7.8,3.1c0.2-2.8-1.9-3.3-1.6-6.2
	C246.4,66.6,246.1,67,251.6,68.9z M253.1,117.3c5.1,3.3-2.6,6.6-3.1,9.4c-3.5-1.2-3.9-5.5-6.2-7.8c-7.3,8.8,14.7,14.7,1.6,25
	c4.4-12.9-9.5-13.6-7.8-28.1C244.8,111.2,247,122.1,253.1,117.3z M237.5,133c4.8,1.5-0.7,5.3-1.6,6.2
	C231.2,137.7,237.7,135,237.5,133z M231.3,139.2c1.3-0.3,1.5,0.6,1.6,1.6c1.3,3.8,8.2-3.1,10.9,1.6
	C243.1,147.4,228.1,147.4,231.3,139.2z M207.8,153.3c5-0.9,4.8,2.9,7.8,0c1.3-4.4-2.2-4-1.6-7.8c2.7,0.1,4-1.2,4.7-3.1
	c4.3,1.9,12.5,11.4,15.6,4.7c4.2-1.1-1.1,7.4,3.1,6.2c-4.9,4.6-13.7,0.8-17.2-3.1c-4.4,2.5-5.8,14.1-14.1,7.8
	C207.1,156.7,207.9,155.4,207.8,153.3z M206.3,259.5c7.4,1,7.2,9.5,14.1,10.9c-1.1,3.4-8.2,0-6.2-4.7c-5.9,0.8-7.3,2.2-10.9-1.6
	C204.1,262.6,206.7,262.6,206.3,259.5z M201.6,262.6c-2.3-0.8-3.9-2.3-6.2-3.1C195.8,256.2,202.7,259.2,201.6,262.6z M201.6,265.8
	c-3.7,4.1-13.5,1.1-14.1-3.1C192.4,257.3,196.8,265.8,201.6,265.8z M196.9,128.3C203.6,128.9,195.2,137.3,196.9,128.3L196.9,128.3z
	 M189.1,223.6c3.7,1.5,2.6,7.8,7.8,7.8c-2.3,1.8-1.8,6.5-6.2,6.2c3.4-3.3-0.8-4.5,0-9.4c-5.2,1.7-14.6,5.4-18.8,3.1
	C174.1,222.5,189.4,232.1,189.1,223.6z M184.4,215.8c-2.7,1.5-4,4.3-3.1,9.4c-4.9-0.1-9.3,4.2-9.4-3.1
	C179.5,223.4,175.7,213.3,184.4,215.8z M173.4,153.3c3.4,1.1,0,8.2-4.7,6.2C169.2,156.3,173,156.5,173.4,153.3z M164.1,212.6
	c2.2-2.4,8.1-4.4,10.9-1.6c2,6.7-4.4,4.9-6.2,7.8C164.4,219.6,167.3,213.1,164.1,212.6z M165.6,228.3
	C169.7,222.9,169.4,236.3,165.6,228.3L165.6,228.3z M179.7,279.8c-0.7,5-2.4,9.1-9.4,7.8c1.2-3,4.7-1.1,1.6-4.7
	c-3.4-0.3-5,1.3-4.7,4.7c-2.9-0.6-5.3-2.5-7.8,0c0.9-5.5-4.2-5-6.2-10.9C162.1,272.8,171,278.6,179.7,279.8z M164.1,367.3
	c1.8,0.3,2.8-0.3,3.1-1.6c5.3-0.6,2.5,6.9,9.4,4.7c0,2.1,0,4.2,0,6.2c-1.3-1.1-4.3-2.4-4.7,0C170.2,372.7,165.1,372,164.1,367.3z
	 M171.9,403.3c0.9,3.5-3,2.2-3.1,4.7C164.9,407.3,168.7,401.9,171.9,403.3z M159.4,342.3c3.6,1.6,9.4,1,12.5,3.1
	c0,5.8-0.7,10.8-6.2,10.9C167.7,347.8,158,353.1,159.4,342.3z M175,353.3c-4.7-1.9,1.7-5.4,0-9.4C179.4,345.5,174.6,350.5,175,353.3
	z M156.2,250.1c-1.4,2.7-2.9,5.4-7.8,4.7C149.5,251.7,152.6,250.7,156.2,250.1z M154.7,364.2c-3.2-3.4-5,1.4-7.8-1.6
	C148.3,359.2,155.6,357.9,154.7,364.2z M154.7,393.9c-3.8,0.6-3.4-2.9-7.8-1.6C147.2,387.5,155.3,389,154.7,393.9z M117.2,253.3
	C113.8,258,107.2,251.5,117.2,253.3L117.2,253.3z M110.9,279.8c5.8,1.1-1.2,5.2,4.7,6.2c2.5-3.8,5.8-6.7,7.8-10.9
	c0-4.4-4.3,3.7-3.1-3.1c6.5-1.8,7.7,0.1,14.1,1.6c-0.4,2.7-2.7,3.6-6.2,3.1c-0.8,4.9,7.8,0.6,6.2,6.2c-3.5-1.2-6.1-3.3-10.9-3.1
	c-2.1,0.5-1.3,3.9-1.6,6.2c9.5-8.7-0.2,8.4,4.7,6.2c-1.3,4.6-3.9-2-7.8,0c-5-1.3,2.8-2.1,4.7-1.6c0.1-2.7-1.2-4-3.1-4.7
	c-4.8-0.1-3.7,5.6-9.4,4.7c0.7-4.9-1.4-7-6.2-6.2C105.1,281.3,111.6,284.1,110.9,279.8z M109.4,358c-1.6,0.8-6.9,8.1-6.2,1.6
	C105.9,359.7,106.4,357.6,109.4,358z M109.4,278.3c0.7,4.3-5.8,1.5-6.2,4.7C98.1,280.3,107,278.7,109.4,278.3z M73.4,358
	c0-1.6,0-3.1,0-4.7C78,351,78,360.2,73.4,358z M78.1,373.6c2.2-2.3,2.3-6-3.1-4.7c1.1-1.3,2.4-4.3,0-4.7c3.8-8.3,9.6,3.8,14.1-1.6
	c4.7,1.6,5.4,6.2,6.2,7.8C91.5,373.4,85.1,373.8,78.1,373.6z M107.8,372c-5.9,0.2-8.4-3.1-9.4-7.8c4.2,3.7,9.3,3,10.9-3.1
	C113.8,361.8,109.3,368.7,107.8,372z M112.5,353.3c0.2-3.9,5.3-0.5,6.2,0C117.7,357.9,115.4,351.8,112.5,353.3z M118.8,373.6
	c4.2-4.1-1.9-4.7-1.6-9.4C122.6,361.8,124.6,374.7,118.8,373.6z M131.2,373.6c-0.9-3.5,3-2.2,3.1-4.7c-2.8-5.7-4.3,2.8-7.8,1.6
	c4-12.5,3.2-18.5-6.2-15.6c5.8-13.1,11.4,7.6,18.8,7.8c-0.7,3.5-3.6,8.5,1.6,9.4C140.4,375.5,134,372.7,131.2,373.6z M143.8,411.1
	c-0.3-3.4,1.3-5,4.7-4.7C146.8,407.8,148,412.2,143.8,411.1z M151.6,422c-2.2-0.2-0.3-2.2-1.6-3.1
	C141.5,412.7,156.3,422.5,151.6,422z M153.1,417.3c2.1-6.4,4-0.3,7.8,0C158.9,423.6,157.7,416.9,153.1,417.3z M157.8,364.2
	c0.3-4.5,7.4-3.8,6.2,1.6C162.7,364.6,160.5,364.1,157.8,364.2z M171.9,423.6c-4.8,1.2-3-4.3-7.8-3.1c6.1-4.1-4.5-9.4,6.3-10.9
	c-0.2,3.9-0.2,7.5,1.6,9.4c2.2-0.4,0.5-4.7,3.1-4.7c1,0,2.1,0,3.1,0C177.7,418.9,172.1,418.6,171.9,423.6z M179.7,351.7
	c4.1-3.3,10.9,0.5,10.9,3.1C184.2,356.6,184.5,351.5,179.7,351.7z M187.5,301.7c2.3-7.4-8.6-5.7-9.4-14.1c3.1,5,12.7,1,9.4-3.1
	c1.8-4.1,6.1,2.1,7.8,3.1C193.3,293.7,191,294.8,187.5,301.7z M201.6,279.8c-4-0.5-5.2-3.8-6.1-7.4c-0.1-0.1-0.2-0.2-0.3-0.2
	c-3.9,7.2-24.6,6.3-23.3-4.9c6.8,1.2,14.2,0.8,20.3,3.1c1,0.4,1.9,1,2.9,1.8c0-0.1,0.1-0.1,0.2-0.2c0,0.2,0.1,0.3,0.1,0.4
	c3.7,2.9,7.4,6.7,9.2,1.1C208,274.1,205,281,201.6,279.8z M209.4,320.5c-1,0-2.1,0-3.1,0c0-1,0-2.1,0-3.1c1,0,2.1,0,3.1,0
	C209.4,318.4,209.4,319.4,209.4,320.5z M207.8,306.4c1.8,0.3,2.8-0.3,3.1-1.6c3.2,3.1,7.2,5.2,9.4,9.4c-4.7,0-5.3-4.1-9.4-4.7
	c-0.3,3.4,1.3,5,4.7,4.7C211.9,322.3,208.4,310.9,207.8,306.4z M212.5,323.6c0-1,0-2.1,0-3.1c1.3,0.3,1.5-0.6,1.6-1.6
	C217.1,318.3,216.4,326,212.5,323.6z M218.8,411.1c-0.7-3.3,1.1-4.1,1.6-6.2c8.3,4.4,12.8,3,20.3,7.8
	C234,414.4,227,412.8,218.8,411.1z M240.6,350.1c3.4-1,5,4.4,4.7-1.6c2.3,1.3,3.4,3.9,3.1,7.8C245.5,354.7,241.3,354.2,240.6,350.1z
	 M248.4,237.6c1.5-1.2,11.4-5.1,3.1-6.2c0.8-1.3,1.6-2.5,1.6-4.7c4.5,0.7,7.1,3.3,7.8,7.8c-8.3-3.9-0.1,7.2-10.9,6.2
	C250.3,239,249.7,238,248.4,237.6z M251.6,304.8c2.9-7.4,2.3,2.8,7.8,1.6c-0.4,1.7-3.1,1.1-3.1,3.1
	C252.5,310.1,257.1,302.4,251.6,304.8z M256.3,340.8c5.2-1.4,9.2,0.9,9.4-7.8c5.1,1.6,6.9-1,10.9,3.1c-2.4,4.4-10,11.8-15.6,7.8
	c-4,0.4,2.1,2.7,0,6.2C255.3,351.1,256.2,345.5,256.3,340.8z M270.3,351.7c-2.5,4.2-5,2.3-7.8,0c0.1-5.7,11.1-0.4,9.4-7.8
	C278.8,347,265.9,351.2,270.3,351.7z M268.8,375.1C265.3,379.9,258.7,373.3,268.8,375.1L268.8,375.1z M284.4,470.5
	c-6-6.6-4.3-15.6-6.2-23.4c-4.1-16.3-12.7-31.9-14.1-50c2.1-4.2,10.4-2.1,14.1-4.7c-1.1-3.1-4.2-4.2-7.8-4.7c4.8-2.9,6-4.9,12.5-3.1
	c-0.1-7.2-8.9-5.7-7.8-14.1c-12,5.2-5.3-8.6-15.6-4.7c-0.8-2.3,1.8-8.1-1.6-7.8c5.3-5.2,7.5,5.9,14.1,4.7c1.1-4.2-3.2-3-4.7-4.7
	c-1.2,1,11-9.2,7.8-14.1c2.7-5.5,3.1,3.9,6.2,3.1c-5.4,1.7-1.7,3.9-6.2,4.7c4.2,2,9.5,9.5,15.6,3.1
	C290.7,389.2,289.4,435.9,284.4,470.5z M289.1,245.5c0-2.1,0-4.2,0-6.2c4.9-1.8,3.8,2.5,6.2,3.1C294.3,244.4,292,245.2,289.1,245.5z
	 M290.6,237.6c-6.4-3.6,5-2.1,4.7-4.7C301.7,236.5,290.3,235,290.6,237.6z M293.8,172c0.3,1.3-0.6,1.5-1.6,1.6c-1,0-2.1,0-3.1,0
	c-1.1-4.3,3.1-3.1,3.1-6.2C297.7,167.5,288.9,172.5,293.8,172z M293.8,186.1c-6-4.1,7.5-1.7,4.7-7.8c-3.9-0.3-4.9,2.4-6.2,4.7
	c-3.4,0.3-0.7-5.5-1.6-7.8c2.3,0,5,6.6,4.7,0c4.9-0.2,5.4,4,6.2,7.8C297.7,182.7,295.1,183.8,293.8,186.1z M301.6,170.5
	c0-1.6,0-3.1,0-4.7C306.1,163.5,306.1,172.8,301.6,170.5z M303.1,161.1c2.3,0.8,3.9,2.3,6.2,3.1C308.4,168,301.5,165,303.1,161.1z
	 M323.4,306.4c-0.9,0.2-2-2.2-1.6-3.1C324.2,297.8,324.8,306.1,323.4,306.4z M325,298.6c-2.5,0.4-2.7-1.5-4.7-1.6c0-1,0-2.1,0-3.1
	c1.8,0.3,2.8-0.3,3.1-1.6C328,293.7,325.2,294.7,325,298.6z M329.7,289.2c-6.1-2-4.8-1.2-6.2,1.6c-6.4,0.7,1.2-3.9-3.1-6.2
	c-4.6,2.1-7.7,1.4-9.4-3.1c-4.9,1.1-2,4.2-1.6,7.8c1.3-0.8,2.5-1.6,4.7-1.6c1.2,5.3-6.3,2-4.7,7.8c1.3,3.7,3.8-4.3,9.4-1.6
	c1.3,3.9,2,8.4,1.6,14.1c-4.9,0-9.3-4.6-6.2-7.8c-3.6,3.1-1.7-0.4-4.7-1.6c-4.7,1,1.5,3.3,0,6.2c3,3.2,9,3.5,9.4,9.4
	c-3.8-0.6-3.4,2.9-7.8,1.6c-4.2-3.1-1-13.5-7.8-14.1c1-10.4,4.9-18,4.7-29.7c2.7,0.1,4-1.2,4.7-3.1c2.3,1.9,2.1,6.2,6.2,6.2
	c-1.7,1.5-0.5,5.8-4.7,4.7c1.4,4.2,5.8-1.3,6.2-3.1c4.7,1-1.5,3.3,0,6.2c2.8,0.4,3.2-1.5,1.6-1.6c2-4.8,4.7,1.7,1.6,3.1
	C322.9,288.7,332.2,283.1,329.7,289.2z M307.8,242.3c-0.5-2.8,8.8-2.8,6.2,1.6C311.3,244.1,310.8,242,307.8,242.3z M318.8,268.9
	c2.7-0.6,2.9,1.2,3.1,3.1c-1.3-0.3-1.5,0.6-1.6,1.6C318.5,273.3,319,270.7,318.8,268.9z M332.8,306.4c0.1-0.1-0.1-1.5,0-1.6
	C340.3,303.5,325.4,314.9,332.8,306.4z M337.5,284.5c-4.9-3.6-8.2-7.4-12.5-7.8c-0.5-3.6,6.8-2.3,1.6-7.8c3.6-5.5,5.5,3.7,10.9,1.6
	C336.6,274.2,336.7,279.9,337.5,284.5z M329.7,223.6c1.1-2.8,2.8-0.2,4.7,0c-0.8,1.3-1.6,2.5-1.6,4.7
	C330.6,227.9,332.3,223.6,329.7,223.6z M340.6,265.8c-1,0-2.1,0-3.1,0c0-1,0-2.1,0-3.1c1,0,2.1,0,3.1,0
	C340.6,263.7,340.6,264.7,340.6,265.8z M342.2,176.7c2.9,2.3-8.3-1.1-12.5,1.6c4.5-9.5-17-6.4-21.9-3.1c-5.5-0.4,3.9-5.8-1.6-6.2
	c6.2,0.1,12.3,1.1,15.6-4.7c0.4-2.5-1.5-2.7-1.6-4.7c-6.5-1.8-6.1,3.3-10.9,3.1c0-3.1,4.3-2,3.1-6.2c-6.9,3.2-5.2,4.6-10.9,1.6
	c-1.5,3.3-0.7,5.8-4.7,9.4c-2.1-1.6-5.8-1.5-7.8-3.1c-0.3-3.4,5.5-0.7,7.8-1.6c0.1-8.4-10.7-5.9-7.8-17.2c3.4,0.2,3.3,3.9,3.1,7.8
	c7.9-3.5,4.8-0.9,10.9,3.1c2.8,0.2,3.3-1.9,6.2-1.6c-0.3-4.9-0.1-9.4,3.1-10.9c-1.3-2.3-5-2.3-7.8-3.1c7.4-7.2-4.1-6.4-3.1-15.6
	c6.2-3,7.9-2.2,15.6-4.7c-2-3.7,0.2-2.9-1.6-7.8c4.2-3.8,5.6-1.4,12.5-3.1c1.6,2.1,1.5,5.8,3.1,7.8c3.9,0.2,7.6,0.3,7.8-3.1
	c4.5,2.2-0.4,7.7-1.6,9.4c1.3-0.6,5.5,4.8,7.8,1.6c4.6,1.3-2,3.9,0,7.8c1.1,1.5,2.8,2.4,4.7,3.1c1.8-0.3,1.3-2.9,1.6-4.7
	c1.4,1.2,3.5,1.7,6.2,1.6c0,2.6,0,5.2,0,7.8c-4.8-1.1-3-1.1-7.8,0c0.3-3.4-1.3-5-4.7-4.7c3.1,1.6,3.6,5.8,6.2,7.8
	c-6.1,0.4-7.9-6.6-18.8-3.1c2.7,8.3,7.8,14.1,10.9,21.9c-2.8-2.9-4.6,1.9-7.8-1.6c-3.5,0.6,0.2,9.7-4.7,4.7
	C332.4,171.9,337.4,174.2,342.2,176.7z M345.3,154.8c-6.1-1.4,5.2-5.8,0-6.2c1.8-5,4.5,1.5,3.1,4.7
	C346.6,153,345.7,153.6,345.3,154.8z M348.4,236.1c0.2-3.4,3.9-3.4,7.8-3.1C354.9,235.3,352.3,236.3,348.4,236.1z M356.3,143.9
	c4.5-1.6,10.6,7.3,4.7,6.2c0-1,0-2.1,0-3.1c-1.3,0.8-2.5,1.6-4.7,1.6C356.3,147,356.3,145.5,356.3,143.9z M360.9,164.2
	c2.7-5.9,2.6,3.4,4.7,3.1C363,173.2,363.1,163.9,360.9,164.2z M365.6,258c0.4-2.7,2.7-3.6,6.2-3.1
	C371.7,260.6,369.6,258.8,365.6,258z M373.4,242.3C378.8,246.4,365.4,246.1,373.4,242.3L373.4,242.3z M379.7,301.7
	C375.9,306.8,372.2,297.4,379.7,301.7L379.7,301.7z M376.6,251.7c1.6,1,1.6,3.6,4.7,3.1C380.6,258.7,375.2,254.9,376.6,251.7z
	 M381.3,233c-0.3-3.4,5.5-0.7,7.8-1.6c0.4,5.1-6.1,3.3-6.2,7.8C377.3,238.8,385.6,232.3,381.3,233z M382.8,309.5
	c0.4-5.5,5.8,3.9,6.2-1.6c2.6,2.1,1.2,8.2,6.2,7.8C389.8,321.2,386.9,310.7,382.8,309.5z M400,290.8c1.2,1.1,5,6.6,4.7,0
	c3.1,0,2,4.3,6.2,3.1c-2.7,4.9-3.8,6.6,3.1,4.7c-0.3,1.8,0.3,2.8,1.6,3.1c1.1,4.8-2.7,4.6-1.6,9.4c-5.1,1.9-1.2-5.1-6.2-3.1
	c2-3.7-0.2-2.9,1.6-7.8c-5-1.4-3.2,4.1-6.2,4.7c0.7,4.2,5.9,8,1.6,12.5c6.2,2,3.8-4.6,7.8-4.7c1.8,0.3,0.9,1.6,0,1.6
	c-3.7,0,0.6,4.3,3.1,3.1c0.7,5.9-9.4,0.1-4.7,3.1c-1.3,2.3-5,2.3-7.8,3.1c1.9-4.6-2.3-4.6,0-12.5c-7.6-3.8-0.1-6.6-10.9-6.2
	c-1.2-5.4,2.3-6,1.6-10.9C397.3,294.3,399.6,293.5,400,290.8z M404.7,268.9c-3.7-0.5-5.9-2.5-10.9-1.6
	C394.1,265.1,406.6,263.7,404.7,268.9z M403.1,261.1c-0.4-2.5,1.5-2.7,1.6-4.7c1.6,1,1.6,3.6,4.7,3.1
	C408.9,261.6,405.5,260.8,403.1,261.1z M409.4,222c-1,0-2.1,0-3.1,0c0-1,0-2.1,0-3.1c1,0,2.1,0,3.1,0
	C409.4,219.9,409.4,221,409.4,222z M414.1,168.9c-1.8-0.3-1.3-2.9-1.6-4.7c2.5-0.4,2.7,1.5,4.7,1.6
	C416.8,167.5,414.1,166.8,414.1,168.9z M418.8,165.8c0.3-1.3,1.6-1.6,1.6-3.1c1.9,0.7,3.2,2,3.1,4.7
	C420.9,167.8,420.8,165.9,418.8,165.8z M457.8,197c-2.7-1.4-8.4,0.1-7.8-4.7C452.6,189.7,459.2,191.1,457.8,197z M448.4,220.5
	c3.8,1,0.8,7.9-3.1,6.2C445.3,223.6,449.6,224.7,448.4,220.5z M442.2,233c-0.5-4.1,3.3-4,6.2-4.7c-0.5,4.1,2.2,5.1,6.2,4.7
	c-1.6-5.8-3.3-4.1-1.6-10.9c3.2,0.4,0.4,6.9,3.1,7.8c4.5-1.4,1.8-2.3,1.6-6.2c1.3-0.3,1.5,0.6,1.6,1.6c1,0,2.1,0,3.1,0
	c-1.7,4.6-6.2,6.3-6.2,12.5C447.8,239.8,449.7,231.7,442.2,233z M457.8,237.6c1.6-2.1,1.5-5.8,3.1-7.8c1.6,0,3.1,0,4.7,0
	C464,233.4,462.5,237.1,457.8,237.6z M470.3,204.8c-6.8-0.6-8,4.5-14.1,4.7c1-8.7,10.1-3.9,6.2-10.9
	C464.8,200.9,471.4,199,470.3,204.8z M478.1,198.6c1.6,0,3.1,0,4.7,0c-1.7,1.5-0.5,5.8-4.7,4.7C478.1,201.7,478.1,200.1,478.1,198.6
	z M479.7,223.6c7.1,0.7-2.4,6.7,1.6,7.8C474.7,234.9,479,228.8,479.7,223.6z M479.7,242.3c0.3-1.3,1.6-1.6,1.6-3.1c1,0,2.1,0,3.1,0
	C485.1,242.5,482.2,242.2,479.7,242.3z M520.3,203.3c1.7,0.4,1.1,3.1,3.1,3.1C522.8,210.7,518.5,206.5,520.3,203.3z M514.1,190.8
	c1.2-5.5,7.5,4.6,3.1,4.7c-1,0-2.1,0-3.1,0C513.7,192.8,516.7,191.4,514.1,190.8z M521.9,211.1c-0.7,4.5-3.3,7.1-7.8,7.8
	C513.9,213.5,515.4,209.8,521.9,211.1z M510.9,214.2c1.8,0.3,1.3,2.9,1.6,4.7c-1.6,0-3.1,0-4.7,0C507,215.4,510.8,216.7,510.9,214.2
	z M509.4,175.1c-1,2.1-3.3,2.9-6.2,3.1C503.5,175.5,505.8,174.7,509.4,175.1z M495.3,187.6c6.7-1.2,8.1-5.1,14.1-3.1
	c-0.2,4.5-6.5,2.9-10.9,3.1c1.7,1.6,5.9,8.5,7.8,4.7c1.7,2.3-3.6,10.9-9.4,10.9c1.6-2.1,1.5-5.8,4.7-6.2c0.5-1.9-4.5-5.4-4.7-1.6
	C493.5,195.7,496.2,189.9,495.3,187.6z M498.4,254.8C494.7,260,491,250.5,498.4,254.8L498.4,254.8z M500,245.5c-2.6,0-5.2,0-7.8,0
	c1.7,1.9,1.4,3.2-1.6,3.1c-0.2-2.8,1.9-3.3,1.6-6.2C495.1,243,501.6,240.2,500,245.5z M506.3,261.1c-3.8-2.9,3.1-5.7-4.7-3.1
	c0-1.6,0-3.1,0-4.7c4.1,0.4,5.1,3.2,4.7-3.1C511.1,252.7,508.4,257.7,506.3,261.1z M507.8,265.8c1-4.7,3.3,1.5,6.2,0
	C513.8,269.7,508.8,266.2,507.8,265.8z M520.3,251.7c-0.9-3.5,3-2.2,3.1-4.7C527.3,247.7,523.5,253.1,520.3,251.7z M528.1,237.6
	c-0.6,5.3-4.2,2-1.6,7.8c-6.7-1-6.4,5.1-12.5,4.7c1.9-3.3-2.8-15,4.7-17.2C514.5,240.1,521.8,238.6,528.1,237.6z M515.6,222
	c3.9-5.8,10.6-4.8,9.4-12.5c2.3,1.4,5,2.3,4.7,6.2C525.9,218.7,520.2,219.9,515.6,222z M532.8,200.1
	C528.7,204,523.8,195.6,532.8,200.1L532.8,200.1z M532.8,218.9c2.3-4.5,7.5-6,10.9-9.4c-3.5-1.2-4.2-5.2-9.4-4.7
	c0.4-1.7,3.1-1.1,3.1-3.1c4-1.7,6.1,7.3,6.2,0c4.5-3.8-3.6,8.6,3.1,7.8C544.4,214.4,537.4,221.1,532.8,218.9z"/>
</svg>
