<?xml version="1.0" encoding="utf-8"?>
<!-- Generator: Adobe Illustrator 23.1.1, SVG Export Plug-In . SVG Version: 6.00 Build 0)  -->
<svg version="1.1" id="レイヤー_1" xmlns="http://www.w3.org/2000/svg" xmlns:xlink="http://www.w3.org/1999/xlink" x="0px"
	 y="0px" viewBox="0 0 532.7 430" style="enable-background:new 0 0 532.7 430;" xml:space="preserve">
<path d="M87.1,119.2c-0.9-1.2-1.9-2.5-2.9-3.9c4-1.8,1.3-4.9,1.8-7.7c1.7,0.8,3.2,1.5,5,2.3c0.4-0.6,0.9-1.3,1.4-2.1
	c-0.2-0.3-0.6-0.9-1.3-2c3.7-0.4,6.4-4.2,10.5-1c0-1.2,0-2.2,0-3.5c4,0.9,5.6,3.7,6.7,6.9c1.6,0,3.2,0,4.9,0c2.1-2.4,3.5-6.2,5.6-16
	c1.3,0.9,2.4,1.6,3.8,2.6c0-1.1-0.1-2,0-2.9c0.4-3.2,0.7-6.5,1.3-9.6c0.2-1,1.3-1.8,2-2.6c0.9-1,1.8-0.9,2.6,0.2
	c0.5,0.7,1,1.4,1.7,2c1.3,1.1,3.1,0.5,3-1c-0.2-3.1,1.9-3.2,4-3.5c0.8-0.1,1.7-0.1,3-0.7c-0.7-0.8-1.5-1.5-2.2-2.4
	c-0.5-0.6-0.7-1.3-1.1-2c0.6-0.2,1.2-0.5,1.8-0.7c0.8-0.3,1.6-0.6,2.4-1c0.5-0.3,0.9-0.7,1.3-1c2.5-1.8,6.6-0.9,8.1-4.6
	c0.8,0.4,1.9,0.6,2.4,1.2c0.5,0.6,0.7,1.8,0.5,2.5c-1,2.8,0.9,3.5,2.8,4.3c1.6,0.7,3.5,1.8,2.8,3.6c-0.7,1.9-3,1.7-4.7,1.1
	c-1.5-0.5-2.8-1.5-4.1-2.2c0.4,3.8,3.9,7,7.7,6.9c-0.9-4.5,2-6.6,9.1-6.5c0.2,0.6,0.3,1.3,0.5,1.9c0.1,0,0.2,0,0.4,0.1
	c0.2-1.3,0.5-2.7,0.5-4c0.1-2.3-0.4-2.6-4.9-3.1c-0.4-1.3-0.8-2.5-1.4-4.3c0.4-0.7,1.2-2,1.7-2.8c-2.2-2.5-4.5-4.5-6-7.1
	c-2.1-3.6-0.8-6.4,3.1-7.9c1-0.4,2-1.2,2.5-2.2c3.1-5.5,10.8-8.7,16.3-6.7c2.5,0.9,2.8,1.9,1,4.5c1.4-0.1,2.8-0.2,4.6-0.4
	c-1-1.7-3.9-1.8-2.5-4.7c2,0.4,4.2,0.8,6.6,1.3c-0.2-0.7-0.3-1.4-0.5-2c-2,0.1-3.9,0.1-5.8,0.3c-1.4,0.1-2.1-0.4-2.3-1.7
	c-0.3-1.4-0.2-3.2-2.3-3.5c-0.2,0-0.3-0.5-0.4-0.8c-0.5-3.1,2.3-5.8,5.7-5.3c0,1.7,0,3.3,0,5c0,1.8,0.8,2.3,2.4,1.6
	c0.3-0.1,0.6-0.2,0.9-0.3c2.4-0.6,2.7-0.4,2.7,2.1c0,0.4,0.1,0.7,0.3,1.8c1.3-3.8,2.8-6.5,6.6-6.8c0.7,2.7,0,4.2-3.5,6.5
	c1.8,0.1,3,0.2,4.5,0.4c0.3,4.8,2.5,9.7,0.6,15.5c-1.4-1.9-2.4-3.3-3.5-4.9c-1,2.4-0.4,5,0.8,5.8c0.1,1.5,0.2,2.8,0.4,4
	c0.2,1.2,0.7,2.4,1,3.7c1.2,0.2,2.6,0.3,3.9,0.6c2,0.6,2.6,2.4,1,3.7c-1.6,1.4-3.5,2.4-5.3,3.6c1,1.7,0.3,3.3-2.6,3.6
	c-1.7,0.2-3.5,0-5.2,0c-0.1,0.2-0.1,0.4-0.2,0.6c1.1,0.3,2.2,0.9,3.3,1c2.8,0.3,4,1.9,3.3,4.8c-0.2,0.9-0.7,1.8-1.2,2.6
	c-0.4,0.8-0.9,1.5-1.6,2.6c3.6-1.3,6.9-2.4,10.1-3.6c1,3.5-0.2,6.3-3.5,8.2c-1.9,1.1-3.9,1.9-5.8,2.9c-0.8,0.4-1.4,1-2,1.7
	c3.9-0.5,7.3-5.1,11.5-1.5c4.2-2.7,8.4-5.3,12.5-8.1c3.3-2.2,5.3-5.2,5.4-9.4c0-2.4-0.8-4.2-2.6-5.9c-1.7-1.6-3.1-3.5-4.9-5.5
	c0.1,0-0.3,0.2-0.7,0.3c-0.8,0.2-1.6,0.3-2.4,0.4c-0.1-1-0.6-2.2-0.3-2.9c0.8-1.5,2.1-2.8,3.2-4.1c2.2-2.4,2-3.9-1-5.3
	c-1.4-0.7-2.9-1-4.2-1.7c-0.7-0.3-1.8-1.1-1.7-1.6c0.1-1,0.8-2.6,1.4-2.7c3-0.6,6.1-0.8,9.1-1c0.1,0,0.5,1.2,0.4,1.6
	c-0.2,0.5-0.9,0.8-1.6,1.3c3.1,1.1,6.1-0.1,7.1-3.2c0.9-2.7,1.1-5.6,1.1-8.4c0-2.8-0.1-3.1,2.9-3.1c0.9,0,1.9,0,3.3,0
	c-0.7-2.4-1.4-4.6-2-6.8c2.9-0.7,4-0.2,8.2,3.6c0.9-1.3,0.1-4.2,3.2-3.5c0-1,0-1.8,0-3c-1.6,0.8-3,1.4-4.5,2.1c-1-3.5,0.1-6.6,3-8.2
	c1.2-0.7,1.5-1.5,1.8-2.7c0.4-1.5,1.2-3.1,2.3-4.1c1.2-1.1,2.6-0.6,2.8,1.3c0.1,0.9,0.4,1.9,0,2.6c-0.9,2,0.1,3,1.6,3.8
	c2.7,1.4,5,3.1,4.2,7.1c5.5-2.4,7.3,1.4,9.2,5.3c1.8-1.7,3.2-3,4.8-4.5c2.5,3.7,0.9,7.2,0,10.7c4.8,4.3,7.4,5,10.7,2.8
	c-1.2-1-2.3-2-3.4-2.9c-0.5-0.4-1.1-0.6-1.6-1c-1.1-0.9-3-1.6-2.2-3.4c0.8-1.8,2.5-2.1,4.3-1.9c0.5,0.1,0.9,0.2,1.8,0.5
	c0.6-2,1.2-3.8,1.6-5.7c0.3-1.4,0.4-2.4,2.2-1.7c0.4,0.2,1-0.3,1.5-0.5c-0.4-0.4-0.8-1.1-1.4-1.2c-0.8-0.2-1.7-0.1-3.2-0.1
	c1.4-2.7,2.7-5.1,4-7.6c-1,0.1-2,0.3-3.1,0.5c-1.7,0.2-2.3-0.5-2.1-2.2c0.4-2.4,1.7-4,3.9-4.7c3.4-0.9,6.9-1.7,10.4-2.4
	c0.6-0.1,1.4,0.6,2,1.1c1.4,1.2,2.5,1.1,3.7-0.8c-1.8-1.2-3.6-2.3-5.4-3.5c2.3-3.2,5.6-3.4,8.1-0.4c2.9,3.5,2.7,8.1-0.6,12.1
	c1.3-0.4,2.4-0.8,4-1.3c-0.5,3.4-0.7,6.5-4.2,7.8c0.1,0.2,0.2,0.5,0.2,0.7c1.2-0.3,2.5-0.6,3.8-0.9c0.1,0.9,0.2,1.7,0.3,3.1
	c2.5-1.2,4.8-2.3,7.2-3.4c-0.9-3.2-0.3-4.8,2.4-6.9c0.5-0.3,1.3-0.7,1.6-0.5c0.5,0.3,0.9,1.1,0.9,1.7c0.1,1.1-0.2,2.2-0.4,3.6
	c1-0.4,1.8-0.8,2.5-1c-0.4-1.5-0.7-2.8-1.1-4.5c2.7,0,4.9,0,7.4,0c0.2-1,0.2-2.1,0.5-3.1c0.4-1.5,1.6-2.6,3-1.9
	c0.6,0.3,0.9,2.1,0.8,3.2c-0.1,0.8-0.9,1.6-1.5,2.6c1.7,1.2,3.4,1.5,5.2,0.4c0.6-0.4,0.9-1.2,1.4-1.8c-0.6-0.4-1.1-0.8-1.7-1.1
	c-0.5-0.2-1-0.3-1.5-0.5c0.6-3.3,4.4-4.1,8-1.4c-0.8,0.9-1.5,1.7-2.4,2.8c3.2,5.5,0,9.5-4.4,13.4c0.9,0.7,1.8,1.1,2.4,1.7
	c0.6,0.6,1.1,1.3,1.7,2.2c-3.1,1.4-6.4,1.5-7.9,5.2c4.1-2.7,10.4-1.2,11.1-8.1c1.4,0.2,2.7,0.4,4.2,0.5c-0.2-1.3-0.3-2.5-0.4-3
	c1.9-0.9,3.3-1.4,4.7-2.2c3-1.7,6.1-2.2,9.7-1.1c-1.7,3.9,0,7,2.1,10c1.2,1.8,2.3,3.7,1.5,6c-3.1,0-3.3-0.3-3.9-5.5
	c-1.2,1.1-2.3,2-3.5,3.1c0.1,0.7,0.3,1.5,0.4,2.4c0.2-0.1,0.5-0.2,0.7-0.3c0.4,0.9,1.2,1.7,1.2,2.6c0.1,1.3,0,2.8-0.5,4
	c-0.3,0.7-1.4,1.1-2.1,1.6c-0.4-0.6-0.9-1.3-1.1-2c-0.2-0.8,0-1.7,0-2.8c-5.8-0.9-6.5,5.2-10.5,6.9c1.1,0.8,2,1.4,2.8,1.9
	c1-1.3,1.9-2.8,3.1-4.1c0.5-0.5,1.7-0.7,2.4-0.5c0.4,0.1,0.8,1.5,0.6,2.1c-0.5,1.3-1.2,2.8-2.2,3.7c-1.5,1.3-3.4,2.2-5.9,3.8
	c3.6,1,6.6,1.8,9.5,2.6c0,0.2-0.1,0.4-0.1,0.6c0.4-0.1,0.8-0.2,1.1-0.5c2.6-2.3,3.1-2.8,6.6,0.7c2.1,2.1,3.8,4.5,6,7.1
	c-2.4,0.8-4.4,1.4-6.6,2.1c1.9,1.8,5.5,1.7,7.6-0.1c1.8-1.5,0.6-3,0-4.5c-0.4-1-0.5-2.1-0.7-2.8c2.1-1,3.9-1.8,5.7-2.7
	c3-1.6,4.1-1.3,6.3,1.2c0.6,0.8,1.7,1.2,2.5,1.7c0.7,0.4,1.5,0.6,2.2,1c0.6,0.4,1.2,0.8,1.8,1.3c1.1-1,2.3-2,3.4-3
	c1.1-1,2.1-1.9,3.2-3c1.7,1.2,1.7,3,1.2,4.5c-1.1,3.2,0.3,4.9,3,6.3c1,0.5,1.9,1.3,2.9,2c0,0.3,0,0.5,0,0.8
	c-2.2,0.6-4.4,1.3-6.6,1.9c0,0.1,0,0.2,0.1,0.3c1,0.8,1.9,1.6,2.9,2.4c-1.1,0.6-2.1,1.2-3.2,1.8c-0.5,0.3-1.1,0.6-1.1,0.6
	c-0.3,4-0.5,7.5-0.8,11.1c-0.3,3.3,0.6,4.4,3.9,5.1c0.8,0.2,1.7,0.6,2.2,1.2c1.2,1.5,2.2,1.4,3.6,0.3c1.6-1.3,3.3-2.5,5-3.7
	c0.3-0.2,0.5-0.6,1-1.2c-1.1,0.2-1.8,0.3-2.2,0.4c-3-4.1-5.8-8-8.8-12.1c3.4-4.5,8.5-5.1,14.2-4.7c0.4-2.1-0.9-2.6-3.1-2.8
	c2.7-3.7,5.1-7.1,7.8-10.8c-2-1.7-4.9,0-7.1-0.7c-0.3-5.8-0.6-11.5-0.9-17.3c3.3,0,3.7,2.6,5.1,4.2c1.2-0.8,2.3-1.6,3.6-2.5
	c-0.7-0.3-1.2-0.6-1.8-0.9c-2-1.1-2.1-3.2-0.2-4.6c0.7-0.5,1.1-1.3,1.6-2c-0.2-0.2-0.5-0.4-0.7-0.6c-0.4,0.3-0.9,0.5-1.3,0.8
	c-1.9,1.6-3.2,1.4-3.8-1c-0.6-2.2-0.5-4.6-0.6-6.9c0-0.5,0.7-1,1.1-1.4c2.1-2.1,3.7-4.3,2.1-7.4c-0.2-0.3-0.1-1,0.2-1.3
	c1.6-2.2,3.6-3.9,6.5-4c0.8,0,2.2,0.2,2.3,0.6c0.3,0.9,0.1,2-0.3,2.9c-0.4,1-1.1,1.8-1.8,2.7c4.5,1.7,4.7,2.6,2.1,8.3
	c3.1,0.2,5,0.6,10.9-2.9c1.3,2.5,1.4,2.5,5,2.8c0.6,2.3-0.7,3.6-2.5,4.5c-1.3,0.6-2.7,1-3.9,1.8c-0.9,0.6-1.5,1.6-2.7,3
	c2.7,0,4.7,0,7,0c-2.4,4.3,3.7,4,3.6,7.2c-2.7,1-5.3,0-7.8-0.9c-2.4-0.8-4.8-2.1-7.6-1.2c2.1,3.5,4.4,4.5,8.2,4
	c0.9-0.1,2,0.9,3.1,1.5c1.9-0.7,4.2-1.6,6.6-2.4c0.2,0.2,0.4,0.5,0.6,0.7c-0.7,1.9-1.4,3.9-2,5.8c0.1,0.1,0.3,0.2,0.4,0.3
	c0.8-0.9,1.7-1.7,2.3-2.7c1.8-2.9,1.8-2.9,4,0.1c0.5-1.1,0.9-2.1,1.4-3c1.2-2.1,2.3-4.4,3.8-6.3c1.9-2.2,4.5-2.1,7.1-1.3
	c0.4,0.1,0.9,0.5,1,0.9c0.4,1.8,0.8,3.6,1,5.4c0.1,0.9-0.3,2.3-0.9,2.5c-0.8,0.3-1.9-0.2-2.8-0.6c-0.7-0.3-1.2-1.1-1.8-1.6
	c-0.7,0.7-1.5,1.4-2.4,2.2c1,0.2,1.7,0.3,3.1,0.5c-1.1,1.3-1.9,2.4-2.6,3.3c4.2,0.8,8.6,1.6,13.3,2.5c-0.3,1.4-0.6,2.6-0.9,4
	c2.8,4.2,2.5,4.7-7.2,10.9c3.2,0,6,0,9.1,0c0.6-3.2,0.1-7.4,5.4-8.4c0.1,1.8,0.7,3.7,0.2,5.1c-1,2.7,0.1,4.3,1.9,5.9
	c0.2,0.6,0.4,1.2,0.5,1.8c0.5,2.7-0.3,3.4-2.9,2.9c-1-0.2-2,0-3.3,0c1.9,2.4,5,3.6,5.6,2.5c0.9-1.5,1.6-3.3,2-5
	c0.1-0.7-1.1-1.6-1.7-2.4c-0.3-0.8-0.7-1.6-0.8-2c1.9-1.5,3.9-2.7,5.5-4.2c2.2-2,4.5-2.4,7.3-1.7c0.9,4-4.8,4.4-4.3,8.5
	c1.2-1.5,2-2.9,3.2-3.8c1.1-0.8,2.7-1,4.1-1.5c1.9,6-2.1,9.2-10.2,8.6c0.2,1.4,0.4,2.8,0.6,4.1c1.5,0.4,2.9,0.9,4.5,1.4
	c0-0.1,0.2-0.6,0.4-1.1c0.7-1.4,1.6-1.7,2.3-0.2c0.8,1.5,1.6,3.2,1.8,4.9c0.4,2.8,1.2,3.7,3.9,3.4c3.4-0.3,3.8-0.2,3.9,3.3
	c0.1,2.7-0.5,5.5-0.9,8.3c-0.1,1-0.5,2-0.8,3c2.7,0.4,3.4-1.5,2.1-6.4c2.7-1.3,5.5-2.7,8.3-3.9c0.8-0.3,1.7-0.6,2.6-0.5
	c1.1,0.1,2.2,0.6,3.3,1c-0.4,1.1-0.7,2.2-1.3,3.2c-0.6,1-1.5,1.7-2.1,2.6c-1,1.8-1.4,3.5,0.7,5c1.6,1.1,3,2.9,1.7,4.6
	c-1.4,1.7-3.4,0.5-4.9-0.6c-0.6-0.4-1.1-0.9-1.7-1.3c-0.2,0.1-0.4,0.2-0.5,0.4c0.6,0.9,1.1,1.8,1.7,2.7c1.2,1.5,2.2,2.9,1.3,5
	c-0.2,0.4,0.7,1.5,1.4,1.9c1.2,0.7,2.6,1.1,3.9,1.7c-0.7,2.1-1.3,4-1.9,6.2c2.9-1.3,1.7-4,2.7-5.7c1.9,0.1,3.9,3.6,5.8-0.2
	c1.4,1.8,2.5,3.4,4.1,5.4c-0.8,0.8-2,2-3.3,3.2c3.7,1.1,6.2-2.7,9.9-2.7c-0.1,0.6-0.2,1.2-0.3,1.8c-0.9,3.4-0.6,6.7,1.2,9.7
	c1.3,2.2,0.6,4-1.1,5.5c-2.2,1.9-5.3,2.7-6.3,6c-0.1,0.2-2.9-0.1-4.2-0.8c-1-0.5-1.4-2.1-2.3-3c-1.1-1.1-2.4-2-3.6-2.9
	c-0.3,0.2-0.6,0.4-0.9,0.7c0.4,1.6,0.8,3.3,1.3,4.9c0.5,1.6,0.7,3.1-0.8,4.1c-1.5,0.9-2.6,2.9-5.1,1.5c-1.6-0.9-3.8-0.6-5.7-0.8
	c-0.2,0.3-0.4,0.5-0.6,0.8c0.7,1.1,1.3,2.3,2.2,3.2c0.9,0.9,2.2,1.6,3.6,2.5c1.4-0.9,3.8-1.9,6.7-0.6c-0.4-0.4-0.7-0.9-1.1-1.3
	c-1.7-1.6-1.4-3,0.9-3.5c3.2-0.8,5.7,0.7,8.1,2.6c-1.3,1.8-2.4,3.5-3.6,5.2c0.2,0.2,0.4,0.3,0.6,0.5c3.9-0.7,4.1-6.2,8.6-7
	c0,3,0,5.8,0,8.9c2.9-2.2,3.3-5.2,4-8.1c2.5-0.6,3.9,0.5,4.6,2.7c0.7,2.1,0.6,4.7,3.1,5.9c0.3,0.2,0.3,1.4,0,2
	c-0.7,1.3-1.5,2.6-2.5,3.8c-1.2,1.4-2.2,2.7-0.6,4.6c0.4,0.5,0.1,1.6,0.2,2.5c0.6,0.2,1.3,0.4,1.5,0.4c0.5,1.7,0.9,3,1.1,4.3
	c0.1,0.7-0.2,2.1-0.6,2.2c-2.3,0.7-4.8,1.5-7.1,1.4c-3.5-0.1-4.3-1.9-2.9-5.4c-0.8-0.5-1.6-1.2-2.6-1.5c-2-0.7-2.7,0.1-3.1,2.2
	c-0.3,1.7-1.1,3.3-1.5,5c-0.5,1.9-0.8,3.8-1.2,5.8c0.3,0.1,0.7,0.2,1,0.3c0.5-1.3,0.8-2.6,1.5-3.8c0.7-1.2,1.6-2.4,2.7-3.1
	c0.9-0.6,2.2-0.9,3,1c0.4,1,2.1,1.4,3.2,2.2c0.9,0.7,2.5,1.3,2.6,2.1c0.1,0.8-1.1,1.9-1.9,2.7c-0.7,0.6-1.6,1.1-2.4,1.5
	c-2.6,1.4-5,2.9-5.6,6.6c-1.3-0.9-2.4-1.5-3.4-2.2c-1.5-1.1-2.7-1.1-3.7,0.7c-0.4,0.7-1.1,1.3-1.7,2c0.7,2.8,6.4,4.2,2.5,8.5
	c3.2,2.5,6.6,3.5,10.6,3.1c0.4,2.6-0.8,4.4-2.4,5.8c-1.7,1.5-3.6,2.7-5.4,3.9c-1.3,0.9-2.8,1.5-4,2.6c-0.8,0.7-1.1,1.9-1.6,2.9
	c1,0.3,2,0.8,3,0.9c1.2,0.1,2.4-0.2,3.6-0.1c2.3,0.3,2.8,2.1,1.7,4.1c-1.9,3.4-3.9,6.8-5.3,10.4c-1.8,4.6-3,9.3-4.6,14.2
	c2.1,0.1,3-0.7,3-2.4c0-1.2-0.1-2.4,0-3.6c0.1-1.9,1.8-2.8,3.6-1.8c1.9,1,2.6,2.7,2.7,4.8c0.2,4.4-1.3,8.3-3.5,12.2
	c-5.2-2.2-10.4-4.3-15.5-6.5c-2.9-1.2-3.7-0.5-3.6,2.7c0.1,2.6,0.4,5,3.2,6.3c0.7,0.3,1.2,1.7,1.2,2.6c0,0.5-1.2,1.3-1.9,1.4
	c-3.1,0.3-6.4,0.9-9.5,0.4c-4.7-0.6-6.5-3.2-7.2-8.5c-2.2,0.5-4.5,0.9-6.7,1.6c-0.7,0.2-1.3,1-1.9,1.5c-1.7,1.5-3.2,3.4-5.2,4.4
	c-2.4,1.3-3.9-0.1-3.6-2.9c0-0.5,0.1-0.9,0.2-1.4c-2.3-0.7-3.7-0.3-4.2,2.3c-0.1,0.7-1.3,1.6-2.1,1.6c-0.5,0-1.6-1.2-1.6-1.9
	c-0.2-1.6,0.1-3.3,0.2-5.2c-3.2-0.2-6.5-0.4-9.4-0.6c0-3.6,0-7,0-10.7c3.3,1.5,3.5,3.9,3.6,6.5c1.3-0.6,2.4-1,3.6-1.6
	c-0.5-2.5,0.5-4.2,2.8-5.1c1.9-0.7,3.6-0.4,4.6,1.7c1.6-0.9,2.9-2.1,1.9-3.6c-0.4-0.6-2.6-0.1-3.9-0.1c0,0.3-0.1,0.5-0.1,0.8
	c-1.4-1.2-2.8-2.4-4.2-3.6c0,0.3-0.1,0.6-0.1,0.8c-1.1,0.5-2.5,1.7-3.1,1.3c-1.2-0.5-1.9-2-2.8-3.1c-0.8-1.1-1.5-2.2-2.1-3.4
	c-0.2-0.4-0.4-1-0.4-1.5c0.1-2.6,1.9-3.9,3.9-4.9c-0.5-3.6-1.6-5.2-4.2-5.6c0.5,0.8,1,1.4,1.5,2.3c-5.4,3.5-9.1-0.1-13.4-3.2
	c0,0.9-0.2,1.6,0,1.8c4.2,4.3,3.8,9.7,3.5,15.1c-0.1,1-0.2,2,0.2,3.2c0.7-1.8,1.4-3.6,2.1-5.6c2.6,1,3.4,3.1,3.7,5.6
	c0.4,2.9,0.7,5.8,1,9.2c-2,0-4.2,0-6.6,0c-0.2,0.6-0.5,1.4-0.8,2.3c-1.3,0-2.7,0-4.5,0c1.1,0.7,1.8,1.2,2.7,1.8
	c-1,2.6-3.5,1.9-5.9,2.5c0.3,1,0.5,2.6,1,2.8c1.2,0.3,2.9,0.3,3.9-0.3c2.5-1.6,4.8-3.3,8.1-1.1c0.1-1.5,0.2-2.6,0.3-3.6
	c1.9,0.2,3.6,0.1,5.3,0.5c0.8,0.2,1.4,1.1,2,1.8c1.5,1.7,3,3.4,4.7,5.4c-1.2,1.5-3.2,2.1-5.3,1.4c-1.9-0.6-2.8,0.1-3.7,1.6
	c-0.2,0.4-0.5,0.8-0.8,1.2c-2.2,3.5-2.7,3.6-6.2,1.8c-2.2-1.1-3.5-0.2-3.9,3.2c1-0.3,1.8-0.7,2.7-0.8c0.9-0.1,1.9,0.1,2.8,0.2
	c-0.2,1-0.2,2.3-0.8,3c-0.6,0.8-1.9,1.1-3.1,1.8c-0.2,1.8-0.5,3.8-0.7,6c-4.4,0.6-5.7-5.2-10.2-5.2c0.1,1.1,0.4,2,0.3,2.9
	c-0.1,1.1-0.4,2.2-0.7,3.3c-1.3-0.4-2.9-0.5-3.9-1.2c-0.8-0.6-1.2-2.1-1.2-3.2c0.1-2.3-0.8-2.9-2.8-2.2c-0.3,0.1-0.8,0-1.1,0
	c0,3,0.4,3.6,3.5,4.8c-1.7,1.4-3.2,2.7-4.8,3.8c-4,2.7-4.4,3.7-3,8.1c-3.7,2.1-7.8-0.9-8.3-6.6c1,0.3,1.8,0.5,2.4,0.7
	c0.5-3.3,1-6.7,1.5-10.1c0.4-2.7,0.7-2.9,4-3.1c-0.9-1.2-1.7-2.2-2.8-3.7c-1.3,6.6-7.8,7.3-11.1,11.6c-6.1-4.9-3.7-10.5-1.7-16.1
	c-5.2-1.5-10.3,3.6-15.5,0c0.9,1.1,2.4,2,2.6,3.2c0.2,1.1-1.1,2.3-1.7,3.5c-0.2-0.1-0.5-0.1-0.7-0.2c0.7,1.2,1.4,2.4,2,3.7
	c1.1,2.6,0.6,4.6-1.9,5.9c-2.3,1.2-4.8,1.8-7.1,2.9c-2.6,1.2-5.1,2.7-8,4.3c-1.3-1.1-1-3.2-0.6-5.2c0.3-1.3,0-1.9-1-2.6
	c-0.5-0.3-1-0.6-1.3-1.1c-2.4-3.9-6.2-4.6-10.4-4.7c-1.2,0-2.3-0.9-3.4-1.3c-0.3,7.7-2.7,9.9-9.6,8c0.3-0.9,0.5-1.7,0.8-2.6
	c-0.1-0.1-0.2-0.2-0.2-0.2c-0.8,1-1.6,2-2.5,2.9c-1.5,1.6-3.2,3-4.7,4.7c-0.6,0.6-0.8,1.7-1,2.5c-0.6,2.3,0.5,5.1-2.4,6.9
	c-2.2,1.4-1.6,4.1-1.3,6.5c0.3,2.4,0.9,4.7,0.9,7.1c0,1.2-0.6,3.3-1.3,3.5c-1.4,0.3-3.1-0.2-4.5-0.8c-1-0.5-1.6-1.7-2.8-2.9
	c-2.3,2.5-4.3,4.8-6.3,7c-0.3,0.3-0.5,0.9-0.9,1c-1,0.5-6.3-2.1-6.8-3.2c-4.8,3.7-9.3,7.8-14.4,11c-7.1,4.5-12.8,10.2-18,16.7
	c-2.4,3-5.1,5.7-7.9,8.4c-7.2,6.8-10.8,14.9-10.9,24.9c-0.1,8.3-1.1,16.6-1.3,24.9c-0.2,6,0.2,12,0.3,17.9c0,0.9,0.1,1.9,0.2,3
	c-7.2,0-14.3,0-21.5,0c0-1.2-0.1-2.3,0-3.5c2-22.6,4.8-44.9,11.1-66.8c2-6.8,2.4-13.8,0.9-20.9c-1-4.7-3.2-8.7-6.8-11.5
	c-4.2-3.3-8.8-6.1-13.3-8.9c-4.9-3-9.9-5.8-15.1-8.8c-0.4,0.3-1,0.7-1.5,1.2c-1.1,1.2-2.1,2-4.1,1.4c-0.9-0.3-2.5,0.8-3.5,1.5
	c-1.4,1.1-2.5,2.5-3.8,3.7c-2.2,2-4.7,2.6-7.7,1.9c0.6-3.8,2.7-6.5,6-8.8c-2.8-0.7-5.4-1.3-8.2-2c-2,1.7-3.2,5.3-7.2,5.7
	c-0.3-4.1-0.3-8,3.4-11.1c-1.4-1-2.7-1.9-4.6-3.2c2.3-1,4.2-1.9,6.2-2.8c0.2-5.2-3.7-7.8-7.5-11.4c-0.2,2-0.5,3.5-0.6,4.9
	c-0.1,1.5-0.5,2.6-2.3,3.1c-1.8,0.5-3.5,1.6-5.2,2.5c-1.4,0.7-2.4,0.5-3.1-1c-0.7-1.6-1.9-2.4-3.8-2.3c-0.6,0-1.5-1.2-1.8-2.1
	c-0.6-1.6-0.8-3.2-1.2-4.9c-0.2,0-0.5,0-0.7,0c-0.8,1.2-1.3,2.7-2.4,3.3c-0.5,0.3-2-1.1-3.3-1.9c0.3,1.7,0.7,3.5,1.1,5.7
	c1.9,0,3.9,0,6.1,0c-1.3,3.4-3.8,5-6.7,6.1c-0.1,0.1-0.3,0.1-0.5,0.1c-1.8,0.1-3.6,2.1-5.3,0.1c-1.4-1.6-0.9-5.4,0.6-7.4
	c0.2-0.2,0.4-0.5,0.7-0.8c-0.9-0.3-1.6-0.5-2.4-0.7c0-3.3,1.8-5.3,5.4-6.2c0.5-1.3,1-2.5,1.4-3.6c-2.2,1.2-4.6,2.5-7,3.8
	c-0.2-0.2-0.3-0.4-0.5-0.6c-0.1,1.2,0,2.4-0.5,3.4c-0.5,1.1-1.5,1.9-2.3,2.8c-0.7-1.1-2-2.3-1.8-3.2c0.4-2.2,1.5-4.2,2.4-6.5
	c-2.9-1.5-8.4-1.2-8.3-7.7c6.7,0.4,13.3,0.8,20,1.2c2.5,0.2,2.6-1.7,3.8-3.9c-1.9,0.7-3.1,1.2-4.3,1.6c-0.8,0.3-1.5,0.4-2.3,0.6
	c-0.1-0.8-0.2-1.7-0.2-2.5c0-0.5,0.2-0.9,0.4-1.8c-2.8,2.2-5.5,2.9-8.3,0.8c-0.3-0.2-1.2,0.1-1.6,0.5c-0.8,0.6-1.5,1.6-2.4,2
	c-0.9,0.4-2.6,0.7-3,0.2c-0.7-0.9-1-2.4-1-3.6c0-1,0.8-2,1.4-3.3c-3.3,0.8-5.5,2.6-7.4,4.8c-3,3.4-6.1,6.7-9,10.2
	c-0.6,0.7-0.6,2-0.8,2.7c-2.4,0.4-4.8,0.8-7.5,1.3c-0.3-1.1-0.8-2.9-1.4-4.6c-3.9,1.6-6-0.2-6.5-5.5c-8.2-2.6-16.6-5.2-25.3-2.9
	c-3.7,0.9-7.1,2.7-10.6,4.3c-4.4,2.1-8.6,4.6-13,6.7c-4.8,2.3-9.8,3.6-15.2,3.6c-2.8,0-5.7,1-8.5,1.3c-1.5,0.2-3,0.2-4.5,0.1
	c-0.5-0.1-1-0.8-1.5-1.3c0.5-0.3,1-0.8,1.5-0.9c4.9-0.8,9.8-1.5,14.7-2.2c8.6-1.1,16-5.3,23.4-9.5c1.6-0.9,3.2-1.9,4.7-2.9
	c6.6-4.4,13.9-6,21.7-4.9c0.4,0.1,0.8,0,1.4,0c-0.2-0.9-0.2-1.9-0.6-2.1c-3.9-1.9-1.2-4.6-1-7c0.1-0.5,0.4-1,0.5-1.5
	c-2-0.4-3.9-0.7-5.7-1.1c-3.6-0.6-5.5,1.3-5,4.9c0,0.3,0.1,0.6,0.2,0.9c0.6,3.6-0.2,4.5-4,4.3c-3.5-0.2-6.1-2.1-8.2-4.8
	c-0.6-0.8-1.6-1.2-2.4-1.8c-0.6,1-1.2,2-1.7,3.1c-0.1,0.2-0.1,0.5-0.1,0.5c-1.9,0.7-3.6,1.3-5.4,2c0.4,2,1.7,1.7,3,1.8
	c1.1,0.1,3,0.4,3.2,1c0.6,1.7-0.2,3.5-1.9,4.1c-2.5,0.9-5.1,1.3-8.1,2c0.3-1.6,0.4-2.6,0.6-3.6c-2.6,0.2-5,0.4-7.7,0.6
	c-0.5,0.5-1.9,2.1-2.3,1.9c-1.4-0.7-2.6-2-3.8-3.2c-0.5-0.5-0.5-1.3-0.8-2.1c-0.5,0.2-0.9,0.4-1.3,0.5c-1,0.2-2.1,0.3-3.1,0.5
	c-0.1-1-0.1-1.9-0.2-2.9c-0.1-0.5-0.1-1.3-0.4-1.4c-0.4-0.2-1.1,0-1.5,0.2c-3,1.3-3.5,1-4.1-2.2c-0.4-2.3-0.7-4.7-1.1-7.1
	c1.2-1,2.5-2.1,3.7-3c2.2,0,4.3,0.1,6.3,0c3-0.2,3.6,0.2,4.1,3.4c1.9-0.1,2.2-1.6,2.4-2.9c0.3-2.1,1.2-2.9,3.4-3
	c1.9-0.1,3.9-0.9,5.8-1.5c0.5-0.2,1-0.9,1.2-1.5c0.4-0.8,0.4-1.7,0.7-2.5c0.5-1.2,1.1-2.3,1.6-3.4c1.6,0.3,3,0.6,4.6,0.8
	c-1.8-5.3-3.4-10.3-5.1-15.3c5-1.4,10,1.1,13.7-2.1c-1.6-5-3.1-9.8-4.5-14.3c-2.5,0.7-4.5,1.3-6.5,1.9c-0.1,0.1-0.1,0.3-0.2,0.4
	c1.5,0.2,2.9,0.3,4.4,0.5c-0.2,2.9-0.3,5.8-0.6,8.7c-0.2,1.8-4.6,4-7.1,3.3c-2.1-0.6-4.1-1.7-5.9-3c-2.8-2-5.3-4.4-7.6-6.3
	c0-1.6,0-3,0-4.8c1.7-0.9,3.7-2,5.6-3.1c-4.6-3.4-8.8-4.3-13.3-2.6c-0.9-1.7-0.3-3.2,0.8-4.3c2-2.1,4.1-4.2,6.4-6
	c0.7-0.6,2.1-0.2,3.4-0.3c0.9-1.3,1.6-3.7,4.8-2.1c-1-3.2-2.7-5.2-5.4-6c-7.5-2.2-13.5-6.8-19-12.1c-0.5-0.5-1.7-0.9-2.3-0.7
	c-3,0.9-4.3,0.5-5.9-2.2c-0.7-1.2-1.2-2.6-1.9-4.1c-2.2,0.6-4.4,1.9-6.7-0.3c-0.7,0.8-1.2,1.7-2,2.2c-1.1,0.6-2.3,0.9-3.5,1.3
	c-0.2-1.2-0.5-2.4-0.4-3.6c0.1-0.8,0.8-1.5,1.3-2.3c-2-1.5-5.6-0.9-6-4.8c2.6,0,5.1,0,7.9,0c0.1-0.5,0.3-1.3,0.5-2.2
	c-1.1-0.4-2.1-0.8-3.4-1.2c1-2,1.4-4,3.7-4.7c0.4-0.1,0.8-1.2,0.7-1.9c-0.1-0.9-0.5-1.8-1-3c0.9,0.1,1.5,0.3,2.1,0.2
	c0.8-0.1,1.9-0.1,2.2-0.5c1.7-2.6,4.3-4.2,6.2-6.5c1.7-2.1,1-3.8-1.7-4.4c-1.1-0.3-2.7-0.7-3.2-1.6c-1-1.7,0-3.2,2-3.7
	c1.6-0.4,3.3-0.9,5.5-1.4c-1.9-1.5-3.3-2.7-4.7-3.8c1.7-3.2,3.3-3.7,6.3-2c2.1,1.2,4,2.7,6.1,3.8c3.4,1.8,4.2,1.4,6-1.9
	c1-1.9,2.1-3.8,4.5-4.3c1.8-0.4,2.9,0.3,2.5,2c-0.3,1.5-1.1,3.1-2.1,4.3c-0.7,0.9-2.1,1.3-3.4,1.9c0.5,0.6,1.1,1.3,1.7,2
	c4.8-4,9.5-7.9,14.2-11.8c2.4-2,3.6-1.6,4.8,1.6c0.4-0.9,0.7-1.5,1-2.2c2.8-0.5,4.7,3.7,8,1.7c-1-1.5-2-2.9-3.1-4.6
	c-1.7,0-3.6,0-5.6,0c0.7-4.2,5.3-8.1,9.4-8c0.3,0,0.6,0.1,0.9,0.3c1.8,1,3.5,2,5.7,3.2c-0.4,0.5-0.9,1.3-1.5,1.8
	c-1.5,1-1.5,2.1-0.5,3.4c0.8,1.2,1.8,2.3,2.3,3.6c0.6,1.7,0.8,3.5,1.3,5.7C78.8,121.3,82.9,120.3,87.1,119.2
	c-0.3,0.7-0.6,1.4-0.9,2.2c-0.9,2.1-1.7,4.2-2.7,6.6c4.7,0.5,9.7,1.1,14.9,1.7c0-0.9,0-1.5,0-2.3c1.7,0.3,3.2,0.6,5.3,0.9
	c-0.6-1.6-1-2.6-1.2-3.2c-3.2,0.5-6.2,0.9-9.4,1.4c0.2-1.2,0.3-1.9,0.5-2.5c-0.2,0.2-0.3,0.3-0.5,0.5C91,122.7,89,121,87.1,119.2z
	 M458.8,209.2c2-1.1,4-2.2,6-3.3c-1.5-1.3-2.8-2.4-4.2-3.6C459.9,204.8,459.4,207,458.8,209.2c-0.5,0.7-1.1,1.3-1.8,1.9
	c-1.1-0.8-2.3-1.7-3.7-2.7c-0.2,1.3-0.3,2.1-0.5,2.8c-0.2,0.7-0.4,1.4-0.7,2.5c1.5-0.7,2.7-1.5,3.8-1.5
	C458,212,458.7,211,458.8,209.2z M273.4,186.6c1.1-1.9,2.3-3.8,3.4-5.7c-0.2-0.3-0.4-0.6-0.5-0.9c-2.6,0.4-5.3,0.9-8.5,1.4
	C270.2,183.6,271.8,185.1,273.4,186.6c-2.4,3.6-6,2.4-9.6,2.3c0.6,1.7,1.2,3.1,1.7,4.5c2.4-0.9,4.5-1.7,7-2.6
	C272.8,189.7,273.1,188.1,273.4,186.6z M429,179.9c3-1.4,6.8,0.9,9-1.6c0-1.3-0.2-2.2,0-3c1.2-2.8,1.3-4.4,0.3-6.2
	C435.3,172.7,432.2,176.3,429,179.9c-2,1-4.1,1.9-5.9,2.7c0,1.7,0,3.2,0,4.8c1.7-1,3.5-2.1,5.4-3.1c-0.2-0.1-0.4-0.2-0.6-0.3
	C428.2,182.6,428.6,181.3,429,179.9z M294.8,132.5c0.6-0.4,1.2-0.6,1.7-1.1c1.6-1.8,3.6-3,5.9-2.2c1.7,0.5,3.1,1.8,4.7,2.9
	c0.2-0.3,0.5-0.9,0.7-1.2c-0.7-0.9-1.3-1.7-1.9-2.4c0.9-0.6,1.8-1.2,2.7-1.7c0.5-0.2,1.3-0.2,1.9-0.2c2.3,0.2,4.6,0.5,6.9,0.7
	c1.4,0.1,4.5-2.6,4-3.8c-0.4-0.9-1.3-1.5-2-2.3c-0.7,0.6-1.4,1.3-2.1,1.9c-0.8,0.7-1.6,1.4-2.4,2.1c-0.5-0.8-1-1.6-1.4-2.5
	c-0.2-0.5-0.2-1.1-0.4-1.6c-0.4-1-1-1.9-1.5-2.8c-0.8,1.8-0.8,3.3-1.3,4.7c-0.3,0.9-1.3,1.5-1.9,2.2c-0.7-0.6-1.7-1.1-1.9-1.9
	c-0.8-2.6-1.3-5.3-1.9-7.9c-3,0.9-6.3,2-9.7,3c0-0.1,0-0.3,0-0.4c-0.8,0.9-1.6,1.7-2.4,2.5c0.7,0.5,1.4,1,2.3,1.6
	c0.1-0.5,0-0.9,0.2-1c0.7-0.6,1.4-1.2,2.1-1.8c0.4,0.6,1.3,1.3,1.3,1.9c0,1.3,0.1,3.2-0.7,3.8C295.2,127.1,294.6,129.6,294.8,132.5
	c-1.1,1.6-2.2,3.2-3.5,4.6c-1,1-2.4,1.7-4.1,2.9C292.9,139.6,295.3,137,294.8,132.5z M351.6,242.4c-0.7,0.6-1.4,1.1-2.1,1.6
	c-0.2-0.8-0.4-1.4-0.6-2c-0.7-2.2-2.8-2.1-4.5-2.5c-0.6-0.1-1.5,1-2.2,1.6c-1.2,1-2.4,2-3.7,2.9c-1.4,0.9-2.6,0.2-3.1-1.1
	c-0.4-1.3-0.2-2.7-0.3-4.3c-2.4-0.1-2.5,5.1-5.9,2.6c-0.9,3.3,0,6.1,1.5,8.7c0.2,0.4,0.8,0.7,1.3,0.8c4.6,0.5,9.2,1,14,1.4
	c0-0.1,0.1-0.8,0.5-1.2c0.5-0.6,1.3-1.2,2-1.3c0.5,0,1.5,0.9,1.5,1.5c0,1.3-0.3,2.6-0.6,3.8c-0.2,0.6-0.8,1.1-1,1.5
	c3.1,4.5,3.9-0.8,5.9-1.1c0,0.2,0,0.4,0,0.7c1.5,0.2,3,0.4,4.6,0.6c1.1,4-4,5-4.3,8.5c1.3-0.7,2.4-1.3,3.6-2
	c1.3,6,2.6,11.6,3.8,17.2c2.2-1.4,4.4-2.8,6.8-4.3c-2.1-2.4-1.4-5.1-0.4-8c-1.5-0.2-2.8-0.4-4.1-0.5c0.7-2.7,3.9-5,6.7-5
	c2.8,0,3.5,1.3,2.5,3.8c-0.4,1-0.7,2.9-0.1,3.4c1.2,1.1,3,1.8,4.6,2.4c1.2,0.4,2,0,2.1-1.6c0.3-2.5,0.8-5.1,1.6-7.4
	c1-2.8,3.3-4.6,5.8-6.2c2-1.3,3.3,0.3,5,0.5c2.4,0.2,3.7,1.1,3.9,3.5c4.5-1.7,6.4-6.7,4.4-11.4c-0.5,0-1.1,0-1.7-0.1
	c-1.7-0.3-3.7-0.3-3.8-2.8c-0.1-2.5,1.6-3,3.5-3.4c1.2-0.2,2.5-0.4,3.6-0.7c-1.1-1.1-2-2-3.1-3.2
	C384.4,251.1,368.4,251.5,351.6,242.4z M84.6,221.3c0,0,0.3-0.3,0.7-0.3c1.2-0.1,2.9-0.6,3.6,0.1c1.4,1.2,0.7,2.9-0.3,4.3
	c-0.5,0.6-1.2,1.1-1.7,1.7c-0.6,0.8-1.2,1.6-1.9,2.7c4.4,1.9,4.6,6.4,6.8,9.9c1.4-2.9,3.1-4.7,6.4-3.8c0.1,1.1,0.2,2.2,0.2,3.1
	c2.9,0.8,5.6,1.6,8.5,2.5c0,0.8,0.1,1.8,0.2,2.9c1.8,0.1,3.2,2.1,5.7,0.8c-1.1-0.6-1.8-1-2.6-1.5c2.2-2.3,5.8-2.3,6-6
	c-2-0.2-4.5,0.3-5.6-0.7c-1-0.9-0.4-3.5-0.5-4.9c2.5-0.8,4.3-1.4,5.6-1.9c1.5,2.3,2.9,4.5,4.2,6.6c0.1-0.2,0.3-0.5,0.4-0.7
	c1.2-0.2,2.9-1,3.6-0.5c0.9,0.7,1.1,2.4,1.7,3.9c0.9-2.5,4-3.8,2.8-7.2c-2.3,0.3-4.5,0.6-6.7,0.9c-0.2-0.1-0.4-0.2-0.6-0.4
	c3.1-3,2.1-5.8,0.4-8.7c0-0.1-0.1-0.2-0.1-0.2c0.1-3.7-2.4-5.2-5.3-6.4c-1-0.4-1.8-0.9-2.8-1.4c-1.2-0.6-2.4-1.8-3.8-0.1
	c-0.1,0.1-1.4-0.4-1.6-0.8c-1.7-4.1-6.1-4.1-9.2-7.1c0,2.3,0.4,4-0.1,5.3c-0.6,1.3-2.1,2.2-3.3,3c-4.4,2.9-4.4,2.9-7.6-1.5
	c-0.1-0.1-0.3-0.1,0,0c-1.9,0.9-3.6,1.7-5.2,2.5c-0.2-0.3-0.5-0.5-0.7-0.8c0.8-2.2,1.6-4.5,2.4-6.6c-0.6,0.4-1.2,0.9-1.9,1.4
	c-1.8-2.3-1.7-4.7-1.1-7.2c0.4-1.4,0.8-2.8,0.9-4.2c0-0.8-0.5-2-1.1-2.2c-0.6-0.3-1.8,0-2.5,0.5c-1.6,1.1-3.1,2.3-4.8,3.6
	c0.4,0.9,0.9,2.1,1.4,3.4c-0.6,0.2-0.9,0.3-1.2,0.5c-3.7,1.7-3.9,3.7-0.9,6.3c0.6,0.5,1.2,1,1.8,1.5C78,215.9,81.1,218.5,84.6,221.3
	z M248.1,293.4c-1,1.5-2.2,3.5-4,6.3c1.3,6.7,1.7,15.5,6.4,23.9c1.5-5.3,4.9-8.6,8.3-11.8c4.1-3.9,8.3-7.7,12.5-11.6
	c4.4-4.1,8.9-8.1,11.6-13.6c2-3.9,4.8-7.6,3.6-12.8c-4,2.4-6.3-0.7-9.2-3.2c-0.7,2.9-1.4,5.5-2.2,8.7c-1.2-1.4-2.4-2.1-2.7-3.1
	c-0.6-2-1.8-2-3.5-1.8c-1.9,0.3-3.9,0.5-6.1,0.7c0.4-1.5,0.7-2.4,1-3.7c-1.5,0.5-2.7,0.9-3.8,1.3c-6,2.1-6.1,2.4-2.3,7.5
	c1.4,1.8,2.4,3.8,1.6,6c-0.9,2.5,0.4,3.4,2.2,3.9c2,0.6,4.2,0.6,6.4,1c-0.6,2.7-2.6,4.5-5,5.8c-2,1.1-3.8,1.3-5.7-0.3
	c-0.8-0.6-2.1-0.6-3.2-1C252.4,295.2,250.7,294.4,248.1,293.4z M258.4,101.8c2.7-0.1,5-0.7,6.9-0.1c1.5,0.4,1,3.4-0.7,6.3
	c-0.2,0.4-0.5,0.8-0.7,1.2c-0.3,0.6-0.5,1.2-0.8,2c8.2,0.8,13,5.2,14.9,12.7c0.6,2.5,1.9,2.6,3.5,1.9c1.3-0.6,2.5-1.8,3.5-3
	c0.9-1.2,0.6-2.3-1.1-2.5c-1.8-0.2-2.2-1.5-1.7-3c0.6-1.7,1.5-3.4,2.3-5.1c-1.4-0.4-3.5,0.9-4.7-1.3c1.8-1.7,1-5.8,4.5-5
	c0.9-2.3,1.4-4.4,2.4-6.2c0.4-0.7,1.9-1.4,2.6-1.1c0.7,0.2,1.2,1.6,1.4,2.5c0.2,0.9-0.1,1.9-0.2,2.8c1.6,1.4,2.5,1,3-1
	c0.2-0.8,0.7-1.6,1.3-3c2,3.2,3.4,5.8,2.5,8.5c1.3,3,3.7,2.9,6.2,3.1c1,0.1,1.9,1.5,2.4,1.9c1.3,0.1,2.8-0.3,3.5,0.3
	c2.8,2.5,4.1,2.5,6.2-0.6c1.2-1.8,2.5-2.7,4.8-1.5c-1-2.4-1-2.4-6.7-1c-0.1-0.4-0.1-1.1-0.4-1.3c-2.4-1.7-1-3.4,0.2-4.9
	c0.9-1.2,2.2-2.1,3.5-2.9c2.1-1.2,4.3-2.1,5.7-2.9c2.9,1,5.2,1.8,7.9,2.8c0.2-2.4,0.3-4.2,0.4-5.6c-2.9-0.3-5.7-0.7-7.6-0.9
	c-5.1,1.5-9.7,2.9-14.2,4.3c1.6,0.5,3,0.4,4.5,0.6c0.6,0.1,1.2,0.6,1.8,0.9c-0.3,0.5-0.6,1.1-1,1.5c-1,1-2.1,1.9-3.2,2.9
	c-2,1.9-4.6,1.8-6.4-0.4c-0.6-0.7-1.1-1.6-1.6-2.4c-1.3,0.6-2.5,1.1-4,1.8c-2.1-3.4-4.1-6.7-6.2-10.1c-0.6-0.1-1.6-0.1-2.3-0.4
	c-2-1-2.9-0.3-3.5,1.7c-0.4,1.6-1.3,2.6-3.3,2.1c-1.4-0.4-3-0.1-4.4-0.1c-1.9,5.3-4.4,7.2-9.1,7.1c-1.4,0-2.2-0.3-2.6-1.8
	c-0.4-1.3-1.4-2.3-1.9-3.1c-1.7,0.4-3,1.1-4,0.9c-2.1-0.4-3.6-3.9-3.2-6.6c0.4-2.7,2-4.4,4.5-4.5c0.2,0.7,0.3,1.5,0.5,2.3
	c3.7-0.4,5.9-2.3,7.1-5.6c2.6,1.9,3,1.8,3.9-1.2c0.5-1.5,0.8-3.1,0.9-4.7c0.2-2.2,0-4.4-1.5-6.4c-1.2,0.6-2.4,1-3.3,1.7
	c-2.6,1.7-5.1,3.6-7.6,5.4c-1.6,1.1-2.7,0.9-3.6-0.8c-0.5-0.8-1.4-1.4-2.1-2.1c-0.1,0.2-0.3,0.3-0.4,0.5c2.6,1.8,2.6,2.5-0.2,4.2
	c-1.8,1.1-3.8,1.9-5.6,2.8c-0.2,1.1-0.4,2.1-0.6,3.3c3.2-1.3,6.2-4,10.5-1.1c-1.8,1.8-3.5,3.5-5.2,5.1c-1.5,1.5-3.5,2.7-4.6,4.5
	c-2.5,4.2-2.1,4.4,1.8,7.3c1.5-1.7,3-3.4,4.8-5.4C258.1,100.8,258.4,101.6,258.4,101.8z M260.1,352.7c0.2,0.1,0.4,0.2,0.6,0.2
	c1.8-2,3.7-3.9,5.3-6c4.6-5.8,10-10.5,16.9-13.3c8-3.3,11.7-10.2,14.9-17.6c-2.7-1.9-2.6-4.6-2.5-7.2c0.1-1.1,0.6-2.2,0.9-3.3
	c0.9,0.6,1.8,1.2,2.6,1.8c0.1,0.1,0.3,0,0.4,0c0.2-4.5-4-8.6-9.6-9.5c-3,4.1-5.9,8.1-8.8,12.1c-4.9,6.8-10.1,13.4-14.4,20.6
	c-2.8,4.6-4.3,9.9-6,15C259.8,347.7,260.2,350.3,260.1,352.7z M324.6,124c-2.6,3.5-4.6,6.7-3.9,10.9c0.5,2.9,0.2,5.7-2,8.3
	c0.9,0.1,1.8-0.1,2.5-0.3c0.9-0.3,1.8-0.6,3.3-1.1c-0.5,2.7-0.9,4.7-1.5,7.6c2.8-5.7,7.3-5.5,11.8-5.2c1.2,0.1,2.5-0.2,3.8-0.4
	c-0.4-1.3-0.7-2-1-2.8c2.3-0.7,4.7-1,6.6-2.2c2-1.2,3.6-3.3,4.9-4.5c-0.5-3-0.9-5.5-1.4-8.3c-2.2-0.3-4.8-1.3-7.2-0.9
	c-2.7,0.5-3.9-0.7-4.1-2.6c-0.5-3.8-0.5-7.7,1.6-11.1c0.3-0.5,0.9-0.8,1.4-1.1c0.4,0.5,0.7,1.1,1.2,1.6c0.5,0.6,1.1,1.7,1.7,1.7
	c2,0.1,4-0.2,6.1-0.4c0.9-3.7,2.4-5.5,5.5-5.4c2.8,0,5.6,0.7,8.5,1.1c-0.3-1.6-0.6-3.2-1-5.3c1.3,0.5,2.2,0.8,3,1.1
	c-0.4-1.2-0.7-2.3-1-3.4c-1.2,0.6-2.4,1.2-3.3,1.6c-0.9-1.3-1.6-2.4-2.3-3.4c-0.1,0.3-0.2,0.6-0.2,0.9c-2.2,0.3-4.3,0.7-6.5,1
	c0.1,0.3,0.2,0.6,0.2,1c0.6,3,0.1,3.7-2.9,3.4c-3.1-0.3-6.1-0.8-9.2-1.3c-1.5,5.2-3.4,6.1-7.8,3.4c-0.9,2.6-1.4,5.4-2.7,7.9
	c-1,2-0.7,3.2,0.3,4.9c0.9,1.4,1.6,3.4,1.3,4.9c-0.3,1.5-1.9,2.8-3,4.2c-0.9-1.3-1.9-2.5-2.8-3.8C324.7,125.4,324.8,124.9,324.6,124
	z M149,151.3c-0.6-5.2-0.2-6.4,3.5-10.6c1.6-1.8,3-3.7,4.6-5.7c-1.5-0.4-2.6-0.6-3.7-1c-2.6-1-3.1-3.7-1.1-5.5
	c1-0.9,2.3-1.3,3.6-1.9c1.1-0.5,2.3-0.9,3.6-1.4c-2.9-3.6-6.4-4.8-10.6-3.8c-1.5,0.4-2.9,0.8-4.4,1.1c-3.5,0.5-7,0.9-11.3,1.5
	c0,0.9-0.1,2.6-0.2,4.7c-1.1,0.5-3.1,1-4.3,2.2c-1.1,1.1-1.4,3-2,4.5c0.2,0.1,0.5,0.2,0.7,0.4c2.7-1.2,5.4-2.4,8.1-3.6
	c0.3,0.2,0.5,0.4,0.8,0.7c-0.8,2.4-1.3,5.1-2.6,7.2c-0.7,1.1-2.9,1.2-4.5,1.8c-0.7,0.3-1.7,0.4-2,0.9c-0.8,1.5-1.3,3.1-1.9,4.9
	c5.7-1.1,11.1-2.2,16.2-3.1c0-2.5-0.2-5,0.1-7.4c0.1-0.9,1.7-2.3,2.5-2.2c1.1,0.1,2.4,1.2,3,2.2c0.6,0.9,0.6,2.3,0.5,3.5
	c-0.2,2-0.4,4-1,5.9C145.9,149,146.8,150.4,149,151.3z M228.3,287.3c-2.1,2.1-4.3,3.6-7.1,2.8c-1.6-0.4-2.4-0.1-3,1.3
	c-0.7,1.7-2.1,2.1-3.8,1.5c-1.7-0.6-3.4-1.3-5.6-2.2c2,3.3,0,5.6-1.9,8.2c10,5.7,18.6,13.4,30.2,17.3
	C236.3,305.5,233.7,296.1,228.3,287.3z M242.7,272.4c0.1,0.1,0.1,0.1,0.2,0.2c4-2.2,8-4.3,12-6.5c4-2.2,8-4.6,11.9-6.8
	c-0.7-1.4-1.2-2.4-1.9-3.8c-0.8,3.8-2.4,4.4-4.8,2.2c-0.9-0.8-1.5-2-2-2.5c-1.9-0.1-3.7,0.2-5-0.4c-1.8-0.8-3.6-2.1-4.8-3.6
	c-0.3-0.4,1.8-2.6,2.7-3.9c0.1-0.1,0.3-0.2,0.4-0.3c1.1-1.4,2.1-2.7,3.2-4.1c-0.2-0.2-0.4-0.4-0.6-0.6c-0.9,0.6-1.8,1.2-2.8,1.7
	c-1.5,0.8-3.2,1.1-4.1-0.8c-0.4-0.8-0.4-2-0.1-2.9c1-2.6,2.2-5.1,3.4-7.8c-3.4-0.1-5.5,2.1-7.8,3.9c-0.7,0.5-1.2,1.7-1.1,2.6
	c0.1,2.1-0.4,3.3-2.7,3.7c-1.4,0.2-2.1,1.1-1.4,2.6c1.1-0.8,1.9-1.4,2.8-2c0.2,0.1,0.5,0.3,0.7,0.4c-0.3,2.9-0.6,5.8-0.9,8.7
	c-0.2,1.6-0.6,3.1-2.9,2.7c1.2,3.4,2.4,6.6,3.5,9.9c1.4-0.4,2.6-1,3.8-1.1c1.1-0.1,2.9,0.1,3.2,0.7c0.5,0.9,0.1,2.5-0.4,3.5
	c-0.4,0.9-1.5,1.6-2.3,2.3C244.1,271.3,243.4,271.8,242.7,272.4z M144.9,152.8c-0.4,1.3-0.6,2.1-0.9,2.9c-1.4,2.7-1.4,3.8-0.5,6.6
	c0.6,1.8,1,3.7,1.3,5.6c0.3,1.6,1.2,2,2.5,1.4c1.5-0.7,2.2,0,2.7,1.3c0.8,2.2,1.7,4.4,2.7,6.9c2.1-2.1,5.4-2.6,6.4-5.7
	c-3.4-1.7-3.5-3.8-0.5-6.1c2.6-2,5.4-2.1,8.3-0.5c2.2-2.5,4.4-5,6.4-7.2c-1.4-2.8-2.8-5.4-4.1-8.1c0.2-0.2,0.4-0.3,0.7-0.5
	c-1.2-0.4-2.4-0.9-3.6-1.1c-1.6-0.3-2.7,0-2.1,2.2c0.3,1,0,2.4-0.5,3.4c-1.6,3.4-5.9,5.4-9.6,4.8c-0.7-0.1-1.5,0.3-2.2,0.6
	c-1,0.5-2.1,1.8-2.7,1.5c-1.1-0.4-2.1-1.5-2.7-2.6C145.6,156.6,145.4,154.9,144.9,152.8z M358.2,239.8c11.8,7.6,28,6.1,39.9-4.1
	c-0.6-0.6-1.2-1.3-1.7-1.9c-0.9,0.7-1.7,1.3-2.5,1.9c-0.4-0.6-0.6-0.9-0.8-1.3c-2.6-4.2-2.7-4.2-7.5-3.4c-1.2,0.2-2.6-0.6-4-0.9
	c0.3-1.2,0.4-2.6,1-3.7c0.5-1.1,1.3-2-0.4-2.8c-0.2,0.6-0.4,1-0.6,1.5c-3.6,8.7-8.4,11.7-17.6,10.9c-0.6,0-1.3,0.1-1.7,0.4
	C360.9,237.6,359.6,238.8,358.2,239.8z M166.7,218.4c-0.2,0.2-0.5,0.4-0.7,0.6c0.1,0.6,0.1,1.2,0.2,1.9c1.5,7.3,3.2,14.5,4.6,21.8
	c0.5,2.6,0.4,5.3,3.8,6.3c1.4,0.4,2.5,1.7,1.1,3.5c-0.4,0.5,0.1,1.7,0.3,2.6c0.3,0,0.5-0.1,0.8-0.1c0.4-1.4,0.5-3,1.2-4.3
	c0.6-0.9,1.9-1.6,3-1.8c0.3-0.1,1.1,1.5,1.6,2.4c0.2,0.4,0.1,1,0.3,2.4c3.2-1.6,6.1-2.9,8.9-4.3c-0.1-0.4-0.3-0.8-0.4-1.1
	c-1,0.2-2,0.2-2.9,0.6c-2.4,1.2-2.5,1.2-3.2-1.5c-0.3-1.2-0.8-2.3-1.2-3.5c-0.8,0.5-1.1,0.9-1.2,1.2c-0.7,1.7-2,2.5-3.8,2.3
	c-0.6-0.1-1.6-0.8-1.6-1.1c0.3-1.5,0.8-2.9,1.4-4.3c0.1-0.3,0.6-0.5,0.9-0.7c1-0.6,2-1.2,3.1-1.8c-2.7-4.1-5.2-8.1-7.8-12
	c0.2-0.2,0.3-0.4,0.5-0.6c2.4,0.2,4.8,0.4,7.3,0.6c-0.5-0.9-0.9-1.7-1.2-2.5c-1.1-2.8-3.5-3.6-6.2-4.2c-2.5-0.6-2.7,1.8-4.1,3.1
	C169.7,221.9,168.2,220.2,166.7,218.4z M217.3,239.5c1.5,1,2.3,1.7,3.3,2.2c0.8,0.4,1.7,0.5,2.5,0.8c0.1-0.9,0.5-1.9,0.3-2.7
	c-0.7-3.8-1.4-7.5-2.4-11.2c-1.1-3.9-1.8-8-5.2-11c-1.5-1.3-2.5-1.6-4.2-1c-1.3,0.5-2.7,1.2-4.1,1.1c-2.4,0-2.2,1.5-2.7,3
	c1.5-0.2,2.5-0.3,4.1-0.5c0,4-0.1,7.6,0,11.3c0.1,3.7,0.9,7.4,2.7,10.8c1.4-0.6,2.6-1.1,3.7-1.6c1.2,1.4-1.6,3.9,1.9,4.4
	C217.3,243.4,217.3,241.9,217.3,239.5z M471.9,233.4c0.3-0.2,0.5-0.4,0.8-0.6c-0.4-1.4-0.7-2.8-1.3-4.1c-0.6-1.3-0.5-2.3,0.7-3.1
	c1.4-0.9,2.8-1.9,4.3-2.6c4.3-1.9,6.8-1.2,9.3,2.5c0.6-1.5,0.6-1.5-3.5-5.4c2.9-1.8,5.6-3.4,8.3-5.1c0.5-0.3,1.3-0.8,1.3-1.3
	c0.1-2,0.1-4,0.1-6c-0.3-0.1-0.6-0.1-0.9-0.2c-0.4,1.1-0.8,2.3-1.4,3.4c-0.3,0.6-0.9,1.4-1.5,1.6c-0.4,0.1-1.2-0.6-1.6-1.1
	c-0.6-1.1-1.1-2.3-1.5-3.5c-1.1-2.8-1.2-2.9-3.9-1.8c-3.5,1.5-7,3.1-10.6,4.8c0.6,1.5,1.4,3.2,1.9,5.1c0.5,1.8,0.8,3.8,0.7,5.6
	c-0.2,2-1.6,3.3-3.4,3.9c-0.7-1.4-1.4-2.7-2.2-4.2c-2.2,2.7-2.4,3.6-0.1,9C467.9,231.7,470.3,232.4,471.9,233.4z M429.7,98.8
	c-3.1-1-5.8-2.1-8.7-2.8c-2-0.5-1.9-1.7-1.4-3c0.4-0.9,1.2-1.7,1.9-2.4c3.5-3.2,3.6-4.3,0.5-7.8c-1.5,0.4-2.8,0.9-4.1,1.2
	c-1.5,0.3-2,1-1.8,2.7c0.3,2.3,0.3,4.6,0,6.9c-0.2,2.3-0.9,4.5-1.3,6.7c1.3-0.4,2.5-0.8,3.7-1.1c0.1,0.2,0.2,0.5,0.4,0.7
	c-1.6,1.2-3.5,2.1-4.5,3.6c-1,1.5-1.1,3.7-1.4,4.8c3,2.3,5.5,4.1,8.1,6.1c-0.4-0.8-0.7-1.5-1-2.3
	C425.7,109.4,426.1,103.1,429.7,98.8z M144.1,209.8c0.2-0.2,0.3-0.3,0.5-0.5c0-1.3-0.1-2.7,0.1-4c0.1-0.5,0.6-1.1,1.1-1.4
	c0.2-0.1,1,0.4,1.2,0.8c1.3,2.3,2.6,4.6,3.6,6.9c0.4,1.1,0.2,2.4,0.3,3.6c2.9-0.1,5.5,0.2,7.4,2.5c1.6,2,1.2,3-1.1,3.8
	c-0.6,0.2-1.2,0.5-1.9,0.8c0.9,1.6,1.7,2.9,2.4,4c-1.3,2.3-2.5,4.4-4,7.1c4,0.2,7.6,0.4,11.4,0.7c-0.8-6.7-1.6-13.1-2.3-19.2
	c-2.1-0.3-3.8-0.5-5.7-0.7c1.5-3.1,2.5-5.8,1-8.7c-0.1,0.2-0.3,0.3-0.4,0.5c-1.1-0.2-2.1-0.4-3.2-0.7c-0.2,0.9-0.4,1.7-0.7,2.7
	c-5.2-1-5.4-5.9-7.6-9.1c-2.4,1.8-4.5,6-3.8,8.3C142.6,208.3,143.5,209,144.1,209.8z M261.6,181.2c4.5-1,8.6-2,12.7-3
	c0.7-0.2,1.3-0.8,1.7-1.4c1.1-1.5,2.1-3.1,3.3-4.8c-0.2-0.2-0.4-0.9-0.9-1c-3.6-0.6-7.3-1.1-11.3-1.7c0.7-1.2,1.4-2.4,1.8-3.2
	c-1.6-1.6-3-2.9-4.3-4.3c-1.2-1.4-2.3-2-3.9-0.4c-1.3,1.3-2.9,2.3-4.4,3.2c-1.8,1-3.2,2.1-3,4.1c1.6-0.3,3.3-0.7,5.2-1
	c0.1,1.9,0.2,3.4,0.4,5.2c0.9-0.4,1.4-0.7,1.9-0.8c0.9-0.2,1.9-0.2,2.9-0.3c0,0.9,0.2,1.9-0.1,2.8
	C263.1,177,262.3,179.2,261.6,181.2z M440.9,182.6c-5.7,2.7-11.1,5.2-16.5,7.9c-2.9,1.5-5.8,3.1-8.6,4.8c-1.1,0.7-1.9,1.9-2.9,2.8
	c-0.6,0.5-1.6,1.4-1.8,1.3c-2.1-1.3-3.5,0.5-5.2,1c-2.3,0.7-2.5,2-1.3,4.2c5.2-1.6,10.4-3.2,15.4-4.8c-0.7-0.8-1.9-1.5-1.8-2.2
	c0.1-1,0.8-2.1,1.6-2.7c0.7-0.5,2-0.7,3-0.6c1.7,0.2,3.4,0.9,5.2,1c1.8,0.1,3.6-0.1,6.1-0.3c1.5,1.7,4,0.6,6.6-0.4
	c-1.5-1.1-3.2-1.9-4.8-2.8c-0.7-0.4-1.9-1.2-1.8-1.5c0.3-0.9,1-1.8,1.7-2.4c0.9-0.6,2.1-0.9,3.1-1.3
	C440.2,186,441.3,185,440.9,182.6z M489.6,116.4c-2-1.6-1.9-3.5-0.7-5.5c-0.2-0.1-0.4-0.2-0.6-0.3c-2.9,1.5-5.8,2.9-9,4.6
	c-0.4,6.5-2.2,8.9-9.1,11.5c-1.2-2.1-0.8-4.1,0.3-6.1c0.8-1.4,1.8-2.6,2.5-4.1c0.6-1.2,0.8-2.5,1.1-3.8c-0.3-0.1-0.5-0.3-0.8-0.4
	c-2.2,2.2-4.4,4.4-7.3,7.3c-0.8,3.7-2.5,4.7-6.2,2c-0.4,2-0.7,3.9-1.1,6.1c1.4,0.1,2.4,0.2,3.4,0.1c2.3-0.1,4.8-0.9,6.9-0.4
	c2.9,0.8,4.8,0.1,6.8-1.8c0.1-0.1,0.3,0,0.4,0c0.4,0.7,0.9,1.4,1.6,2.5c0.7-3,0.6-6.2,4.6-5.8C482.3,117.4,486.2,117.4,489.6,116.4z
	 M245.7,225.4c-2.3,2.5-3.8,5.7-7.8,6.1c0.6,0.8,1,1.3,1.5,2.1c2.5-2.6,6.9-3.2,7.1-7.8c0-0.6,0.7-1.3,1-1.9
	c1.3-2.1,2.7-4.1,4.2-6.3c1.6,0.3,3.7,0.8,5.7,1.2c1.8,1.3,1.5,5,5.4,4.8c-0.4-1.1-0.5-2-1-2.6c-1.5-2-0.4-3,1.3-3.9
	c1.1-0.6,2.1-1.3,3.2-2c-3.8-0.8-4.5-6.8-9.4-5.2c-0.4-0.7-0.7-1.5-1-2c-2.8,1.1-5.4,2.1-8.6,3.4c3,1.8,2.7,3.6,1.8,5.8
	c-0.6,1.5-0.7,3.3-1.2,5.4c-1.3,0.5-3.1,1.1-5.5,1.9C243.9,224.8,244.7,225,245.7,225.4z M195.6,255.5c-3.3,0.1-6,0.2-8.7,0.3
	c-0.5,0-1.1,0.2-1.4,0.6c-1,1.4-1.9,2.8-3,4.5c2.8-0.6,1.7,1.8,2.6,2.7c2.8-2.1,4.3-5.8,8.8-6.8c-0.7,4.7-1.3,8.9-2,13.6
	c-1.1,0.1-2.6,0.2-4.5,0.3c2.6,4.5,7.1,0.8,10,2.9c-0.6,0.9-1.1,1.8-1.8,3c2,0.8,3.8,1.5,5.2,2.1c1.1-1.8,2-3.3,2.9-4.9
	c-2-0.7-4.6-0.3-5.3-3.2c-0.6-2.4,1.6-2.6,2.8-3.7c-3.6-2.6,1.5-2.9,1-5.2c-2.1,0.2-4.3,0.4-5.9,0.6
	C196.1,259.5,195.8,257.2,195.6,255.5z M28.3,168.9c5.2,6.7,12.8,9.1,20.2,11.8c0.7-1.1,1.3-2,2.1-3.1c-0.8-0.9-1.9-2-3-3.2
	c-0.5-1-1.2-2.2-1.6-3.5c-1.1-3.8-2.4-4.2-5.6-2c-1.2,0.9-2.5,1.8-3.9,2.2c-2.3,0.6-3.2-0.7-2.7-2.9c0.6-2.4,2.4-3.5,5.1-4
	c-0.9-1.6-1.6-3-2.5-4.8C33.5,162.8,30.9,165.8,28.3,168.9z M433.1,91.1c4.8-1.8,8.9-5,14.3-3.1c0-3.6,2.5-3.7,4.8-3.9
	c3.4-0.4,3.7-0.7,3.6-4.5c-1,0.2-2,0.2-2.9,0.5c-1.5,0.5-2.7,0.6-3.9-1c-1.3-1.7-3.3-2.7-5.5-1.1c0.1,0.6,0.3,1.1,0.4,1.7
	c0.1,0.6,0.3,1.3,0.3,1.9c0.1,2.1-1.2,3.1-3,2.1c-1.2-0.6-2-1.9-2.9-3c-1-1.3-1.9-2.7-2.9-4c-0.2,0.1-0.5,0.2-0.7,0.3
	C433.3,81.4,431.3,85.8,433.1,91.1z M108,202.6c1,3.7,3.5,1.5,5.4,1.8c3.2,0.5,3.1-2.6,4.6-3.8c-4.9-4.8-10.2-7.2-17.2-6
	c-2.8,0.5-3.8,1.9-5.2,4.2c1.4,0,2.6-0.2,3.6,0.1c0.9,0.2,2.2,0.7,2.5,1.4c0.3,0.8-0.3,1.9-0.6,3.1c1.4,0.8,3.1,1.7,4.9,2.7
	C106.5,205,107.1,204,108,202.6z M316.3,182.6c-1.2,0-2.4,0-3.5,0c-1.6,0-3.2-0.3-4.8,0.1c-0.9,0.2-1.8,1.2-2.3,2
	c-0.2,0.3,0.7,1.3,1.1,2c0.5,0.7,1.3,1.2,1.4,1.9c0.2,1,0.2,2.3-0.3,2.9c-0.4,0.6-1.8,0.6-2.7,0.6c-0.9,0-1.8-0.4-2.7-0.7
	c0,2.8,0,5.3,0,7.7c0.4,0.3,0.7,0.6,1.1,0.9c0.4-0.8,0.6-1.7,1.1-2.4c1.8-2.5,2.7-2.4,4.6,0c0.4,0.5,1.4,1,1.9,0.9
	c0.7-0.2,1.7-1,1.7-1.6c0.1-3.4,1.4-6,4.3-7.6c-0.4-1.3-0.9-2.2-1-3.2C316.1,184.9,316.3,183.8,316.3,182.6z M131.4,249.7
	c0.6,1.1,1,2,1.6,2.9c0.6,0.9,1.4,1.7,2.1,2.6c2.6-2.2,2.7-2.2,7,2.2c0.6-1.6,1.1-3.1,1.4-3.9c-1.1-1.8-1.8-3.2-2.6-4.4
	c-0.5-0.8-1.4-2.1-1.9-2c-3.2,0.6-4.7-1.4-6.1-3.6c-0.5-0.8-0.9-1.6-1.6-2.7c-0.7,1.3-1.1,2.3-1.8,3c-0.9,1-2,1.9-3,2.8
	c-0.8-0.9-1.7-1.9-2.5-2.8c-0.1-0.1-0.3-0.2,0.1,0.1c-1.5,1-2.8,2-4.2,3C124.8,249.9,127.2,250.5,131.4,249.7z M91.2,185.6
	c1.2-0.7,1.8-1,2.5-1.4c1.3,3.7,1.3,3.7,3.7,4.1c0.9-3,1.9-6,2.6-8.4c2.2-0.6,3.9-1.1,5.8-1.6c-1.2-2.1-1.9-3.6-2.7-5
	c-5.3,2.7-10.6,2.8-16.4,0.1c0.4,2.3,0.7,4.2,1.1,6.1c0.7-0.2,1.2-0.3,1.7-0.4c2.6-0.5,3.2,0.1,2.6,2.7
	C91.6,182.9,91.5,183.9,91.2,185.6z M352.2,213.1c0.9,1.1,1.6,2.1,2.4,3.1c0.2,0.2,0.4,0.6,0.6,0.6c2.7-0.1,5.5,0.1,8.1-0.6
	c2.3-0.6,4.4-2.1,6.6-3.3c0.6-0.3,1.3-0.9,1.4-1.4c0.2-2.1,0.7-4.3-1.1-6.1c-1.1,0.4-2.2,0.8-3.4,1.2c-3,1.2-6,2.7-9.2,3.4
	C355.2,210.4,353.5,211.3,352.2,213.1z M301.4,211.1c1.2,5.3,2.3,10.5,3.4,15.6c0.3-0.1,0.5-0.1,0.8-0.2c-0.1-0.6-0.2-1.3-0.3-2.1
	c3-0.4,6.3-0.1,6.3-4.4c-1.1,0.1-2.2,0.2-3.5,0.3c-0.7-7,4.2-9.1,8.8-10.7c-1-1.8-1.9-3.4-2.9-5.1c-2.3,0.6-2.1,3.1-2.8,5
	c-0.4,1-1.2,2.6-1.9,2.7c-1.1,0-2.3-1-3.4-1.6c-0.3-0.2-0.5-0.5-0.8-0.8C304.1,210.3,303,210.6,301.4,211.1z M320.3,179.8
	c3.4-1.6,4-2.3,3.5-5c-3.2-0.1-3.5-2.7-4.2-4.9c-1-3.2-2-3.8-5.3-3c0.2,2.4-0.9,3.9-3.5,3.7c0.2,2.3,0.2,2.3-2.6,7.7
	c2-0.6,4-1.4,6.1-1.8C318,175.7,319,176.3,320.3,179.8z M425.9,221.7c-1.2-2.4-2.4-4.5-3.3-6.7c-0.2-0.6,0.5-1.6,0.7-2.5
	c0.1,0,0.3,0.1,0.4,0.1c-0.1-1.9-0.2-3.8-0.3-5.7c-0.3,0-0.6,0-0.9-0.1c-0.4,1.6-1,3.1-1.3,4.7c-0.5,2.3-1.9,3.4-4.2,3.4
	c-1.6,0-4.7,2.4-4.8,4c-0.2,2.1,0,4.3,0.1,6.5c3.1-0.6,3.7-1.8,2.4-4.1c-0.4-0.6-0.4-1.4-0.5-2.1c-0.2-2.2,0.7-2.9,2.6-1.8
	c1.5,0.9,2.7,2.2,4,3.4c1.2,1,2.3,2,3.5,3C425,222.8,425.6,222.1,425.9,221.7z M498.6,238.9c6-8,6-8,5.6-10.1
	c-1.5,0.8-3.1,1.6-4.7,2.4c0,4.1,0,4.1-4.2,5.4c-0.2,0.1-0.5,0.1-0.7,0.2c-1.7,0.7-2.9,0.2-3.8-1.4c-0.5-0.9-1.3-1.6-2-2.4
	c-0.1,0.1-0.3,0.3-0.4,0.4c1.2,2,2.4,4.1,3.6,6.1c3.6-1.4,5.1-0.2,5.5,4.7c2,0.2,3.9,0.4,5.8,0.6C505.8,239.6,501,240.1,498.6,238.9
	z M322.8,216c-2,3.2-4.4,6.8-6.6,10.6c-0.3,0.5-0.1,1.4-0.1,2.2c0.7-0.1,1.5,0.1,2-0.2c3-1.8,7-2.7,6.8-7.5c0-0.6,0.8-1.3,1.3-1.9
	c0.6,0.4,1.2,0.9,1.8,1.3c0.3,0.2,0.5,0.6,0.7,0.9c0.7-0.5,1.3-0.9,2-1.5c-0.7-1.2-1.3-2.4-1.9-3.5c-0.1,0.2-0.2,0.4-0.4,0.6
	C326.8,216.7,325.1,216.4,322.8,216z M227.9,257.4c-3.3,2.2-6.3,4.2-9.7,6.6c1.4,1.4,2.5,3.4,3.9,3.7c2.7,0.6,5.6,0.2,8.8,0.2
	C229.9,264.3,229,261.1,227.9,257.4z M264.1,267c2.5-0.5,4.8-0.7,7-1.3c1.9-0.5,3.3-1.7,3.5-3.8c0.1-0.8-0.1-2-0.6-2.3
	c-1-0.5-2.7-1.1-3.5-0.7c-4.4,2.8-8.6,6-12.9,9.1C261.1,270,263.4,269.5,264.1,267z M315.5,294.3c-0.1-0.4-0.3-0.7-0.4-1.1
	c-4.9-0.4-9.8-0.9-14.8-1.3c-1.2,2.1-0.8,3,1.7,3.8c0.5,0.2,1.1,0.3,1.6,0.3c2,0.1,3.5,0.8,2.6,3.6c2.3-0.8,3.6-0.3,3.8,2.3
	C311.8,299.4,313.7,296.8,315.5,294.3z M189.8,204.8c2.8-2.8,7.3-2.7,11.4-3.9c-7.7-4.9-14.7-4.9-18.4,0
	C185,202.1,187.2,203.3,189.8,204.8z M261.1,148.3c0.2,0.2,0.4,0.4,0.5,0.6c0.9-0.5,2-0.9,2.5-1.6c0.3-0.5-0.3-1.7-0.8-2.3
	c-1.7-2-1.1-4.4,1.5-4.8c1.6-0.2,3.3,0.1,5,0.2c1.3,0.1,2.6,0.4,3.8,0.2c0.7-0.1,1.4-1,1.9-1.7c0.2-0.2,0-0.8-0.1-1.2
	c-0.7,0.1-1.5,0.1-2.2,0.3c-2.8,1.2-5.6,1.6-8.8,1c0.7-1.2,1.2-2.1,1.7-3.1c-0.1-0.2-0.2-0.4-0.3-0.6c-2.9,0.8-5.8,1.7-9.3,2.6
	c0.9,1.6,1.4,3.1,2.4,4.1C260.9,143.8,261.9,145.7,261.1,148.3z M278.5,241.5c-0.8-5.3-2.3-6.5-9.6-7.7c0.4,4.8-5.3,4.2-7.2,7.9
	c1.4-0.2,2.4-0.2,3.3-0.4c2.1-0.5,4.1-1.2,6.2-1.7c2-0.5,3.6,0.1,4.9,1.7c1.6,2,3,1.9,4.7-0.4C280,241.2,279.3,241.4,278.5,241.5z
	 M309.8,261.2c-4.1-1.7-3.3-5.8-4.1-9.7c-3.2,5.3-3.5,10.7-4.1,16.2c1.8,0,3.3,0,4.7,0C307.4,265.4,308.5,263.4,309.8,261.2z
	 M390.8,127.4c0.2,0.2,0.3,0.4,0.5,0.6c1-0.1,2-0.2,3.1-0.2c1,0,2.1,0.1,3.1,0.2c1.4,0.2,2.1-0.4,2.4-1.7c0.3-1.5,0.6-3,1.1-4.4
	c0.7-1.9,2.7-2.3,4.3-1.1c0.6,0.5,1,1.1,1.7,1.9c1.1-1.4,2.4-2.6,3-4c0.6-1.6,0.5-3.4-1.6-4.2c-0.8,2-1.6,3.9-2.6,6.3
	c-1.2-1.7-1.9-2.7-2.3-3.3c-1.6,1.4-2.9,3-4.6,4.2c-1.3,0.9-3,1.2-4.3,2.1C393.1,124.8,392,126.2,390.8,127.4z M381.4,178
	c-2.3-1.7-4.3-1.7-6.5,0.3c-0.8,0.7-2.1,0.7-3.1,1c-0.6-1.7-1-3-1.6-4.7c-2,2.6-1.3,4.5-0.4,6.6c0.8,2,2.1,0.9,3.4,0.9
	c1,0,2.1,0.1,3,0.5c1.6,0.7,3.1,1.7,5.2,2.9C381.4,182.7,381.4,180.3,381.4,178z M472.2,157.9c3.5-0.8,6.3-4.1,10.6-2.1
	c-1.5,2.5-2.8,4.9-4.2,7.2c3.4-1.5,5.9-7.3,5.4-12.6c-0.6,0.5-1.1,1.1-1.8,1.6c-3.5,2.1-4.4,2.4-5.5-2.2c-0.4-1.5-0.2-3.1-0.4-5.1
	c-1.7,0.3-3.1,0.5-5,0.8C475.3,150.6,475.4,153.5,472.2,157.9z M501,191.7c-1.8-0.9-3.6-1.7-5.7-2.7c4.3-3.3,4.4-3.5,3.4-5.5
	c-1.2,0.9-2.4,1.8-3.6,2.6c-3.5,2.1-3.6,2.8-0.6,5.3c0.3,0.3,0.6,0.5,0.9,0.8c1.1,1.3,1.7,2.5-0.4,3.5c-1.8,0.9-2.7,2.6-2.6,4.9
	c2.5-1.4,4.8-2.7,7.4-4.1C500.1,195.4,500.5,193.5,501,191.7z M377.1,131c3.8-3.2,5.1-7.5,5.8-12.4c-3.4-0.6-6.1,0.3-7.7,2
	c0.1,2.7,0.4,4.6,0.3,6.5C375.4,128.7,375.3,130.1,377.1,131z M107.5,181.2c-0.2,0-0.4,0.1-0.6,0.1c-0.4,4.4-2.7,7.9-5.4,10.5
	c4.3,0.6,8.6,1.2,13.3,1.9c-1-0.8-1.9-1.6-2.4-2C110.8,188.1,109.2,184.6,107.5,181.2z M477.8,250.7c-2.4-0.5-4.4-1-6.5-1.5
	c-0.4-0.1-0.9,0-1.3,0.2c-3.7,2.4-3.3,9.6,0.8,11.9c0.1-1.6,0-3.2,0.4-4.6c0.4-1.4,1.3-2.8,2.2-4c0.3-0.4,1.5-0.5,1.9-0.2
	c0.4,0.3,0.5,1.2,0.5,1.9c0,0.8-0.3,1.7-0.6,3C479.1,255.6,477.3,252.6,477.8,250.7z M449.8,122.2c-0.2-0.2-0.4-0.5-0.6-0.7
	c-1.5,1.6-3.2,2.9-5.7,2.1c1.4,1.5,3,2.5,4.5,3.6c1.3,1,2.9,1.8,3.9,3c1.7,2.1,1.2,4.5-0.4,5.8c-1,0.9-1.6,2.3-2.4,3.5
	c1.2,0.7,2.4,1.4,4,2.2c0.5-3.7,1-6.7,1.2-9.7c0.1-1.5-0.4-3.1-0.8-4.6c-0.3-1.1-1-1.9-2.5-1.3c-0.8,0.3-1.8-0.1-3.1-0.2
	C448.8,124.3,449.3,123.3,449.8,122.2z M119.1,264.5c-0.3-5.1,1.4-9.4,4.1-13.4c-3.9-0.3-6.4,1.4-7,4.9c-0.4,2.4-0.3,4.9,0.2,7.3
	c0.7,3.4,1.2,3.6,4.5,2.7c0.3-0.1,0.6-0.2,1-0.3c-0.3-0.7-0.6-1.4-0.8-2.1C120.4,263.9,119.9,264.1,119.1,264.5z M331.5,271.9
	c3.4,2,0.7,4.2,0.2,6.7c1.8-0.1,3.5-0.3,5.4-0.4c-1-3.7,0.6-5.9,3-7.8c0.8-0.6,1.2-1.8,1.8-2.7c-0.2-0.2-0.4-0.4-0.6-0.6
	C338.6,269.8,333.4,266.7,331.5,271.9z M367.6,128.4c-1-0.2-1.8-0.3-2.5-0.4c-1.4,2.9-2.7,5.8-4.3,9c4-1.5,5.9,4.2,10.1,2.3
	C367.6,136.3,367.5,132.5,367.6,128.4z M357.8,162.3c-1.9-1.8-3.7-3.5-5.1-4.8c-1.1,0.9-2.4,1.8-3.8,2.9c0.1,0.6,0.1,1.5,0.2,2.5
	c4.7,0,1.6,3,1.9,4.6C354.7,167.9,356.1,165.1,357.8,162.3z M195.2,177.9c-2.8,1-5.1,1.8-7.4,2.6c1.4,4.3,5,5.8,10.6,4.3
	C197.3,182.4,196.2,180.2,195.2,177.9z M462.6,231.4c-1.6-1.2-3.4-2-4.2-3.4c-1.7-2.8-4.6-1.9-6.9-2.8c1.1,2.2,2.3,4.4,3.4,6.6
	c1.7,1,3.6,2.2,5.7,3.4C461.4,233.9,462.1,232.5,462.6,231.4z M186.5,222.5c1.8,2.3,3.5,4.4,5.1,6.4c1.2-1.6,2.5-3.2,3.6-4.7
	c-1.2-1.4-2.5-2.7-3.5-4.2c-2.1-3.1-2.1-3.2-4.2-2.9C188.9,219.2,188.4,221,186.5,222.5z M94.5,134c-0.8,3.2-4.5,5.5-1.3,9.1
	c3.1-1.3,6.3-2.3,7.6-5.8C98.7,136.2,96.8,135.2,94.5,134z M377.7,132.2c-1.7,2.9-3.2,5.5-4.8,8.2c2.7,1.7,6.3,0.7,8-2.1
	C381.7,136.8,379.9,133.4,377.7,132.2z M509.9,128c-1.1,0.2-2.2,0.2-2.9,0.7c-2.4,1.7-4.7,3.6-7,5.3c0.9,0.8,1.9,1.6,2.9,2.5
	C508.1,134.4,510,132.3,509.9,128z M197.6,284.3c0.1,0.2,0.4,0.5,0.5,0.8c0.8,2.9,1.9,3.2,4,1.1c2-1.9,3.2-1.7,4.8,0.9
	c0.4,0.7,1.1,1.3,1.6,2c0.2-0.2,0.4-0.3,0.6-0.5c-2-2.4-1.7-4.9-0.1-7.5c-1.9-0.3-3.4-0.6-4.8-0.8c-0.1,0.8,0,1.9-0.3,2
	C201.8,283.2,199.7,283.7,197.6,284.3z M485.5,175.4c-4.1,0-7.9,0-12.3,0c1.9,1.8,3.5,3.4,5.1,5c1.2,1.2,2.2,0.6,3.1-0.3
	C482.7,178.7,483.9,177.1,485.5,175.4z M388.2,178.9c1.4,0.4,3.9-0.4,2.4,2.6c2.8-1,5.3-7.4,3.9-9.6c-0.2-0.4-1.6-0.4-2-0.1
	c-1.2,0.9-2,2.1-3.2,3.1C388.1,175.9,387.7,177.2,388.2,178.9z M179.7,56.9c-1.3,0-2.5,0-4,0c0.3,0.8,0.5,1.5,0.9,2
	c0.9,1,1.9,1.9,2.8,2.9c0.9,1,1.7,2.1,2.5,3.1c0.3-0.2,0.6-0.3,0.9-0.5c-0.3-1.5-0.6-3-1-4.8c1.6,0.2,3.1,0.4,4.3,0.6
	c0.4-2,0.8-3.9,1.2-6c-0.7,0.6-1.3,1-1.8,1.4c-0.6,0.6-1,1.3-1.6,1.8C182.3,59.1,180.7,58.9,179.7,56.9z M399.9,109.7
	c1.7-0.9,3.4-1.9,5.1-2.8c2.4-1.4,2.7-3,1.5-4.9c-3.2,1.4-6.3,2.7-9.4,4C398.1,107.3,398.9,108.3,399.9,109.7z M207.3,173.5
	c-2.9-0.2-2.5-1.8-1.9-3.4c0.3-0.7,0.7-1.5,0.8-2.3c0.1-0.6,0-1.7-0.4-1.9c-0.5-0.3-1.6-0.3-2.1,0c-1.7,1.1-3.2,2.4-4.7,3.6
	c1.6,1.4,3.3,2.7,4.7,4.2C204.9,175.2,205.8,174.8,207.3,173.5z M458.6,105.8c0.6,2.3-0.3,3.4-2.1,4.1c-0.5,0.2-1,0.4-1.6,0.5
	c-1.4,0.2-1.5,1.2-1.3,2.3c0.2,1.3,1,1.9,2.2,1.5c2-0.7,3.9-1.5,5.9-2.3c-0.3-0.2-0.5-0.4-0.8-0.5c0.3-1.3,0.6-2.6,1-3.9
	C460.8,106.9,459.7,106.4,458.6,105.8z M101.8,155.2c2.6,1.3,4.9,2.5,7.3,3.5c1.2,0.5,2.5,0.7,3.8,1c0.1-1.4,0.2-2.9,0.4-4.6
	C109.3,156,105.6,152.3,101.8,155.2z M349,174.2c-0.1-0.2-0.2-0.4-0.3-0.6c-3.2,1.6-6.4,3.1-9.8,4.8c0,0.8,0,2,0,3.4
	C343.4,180.6,347,178.4,349,174.2z M60.3,252.6c-0.8-2.6-3.3-2.2-5.2-2.6c-2.2-0.4-2.4,1.9-3.1,3c-0.5,0.9,0,2.3,0.1,3.8
	C55.1,255.3,57.6,254,60.3,252.6z M186,144.1c-1-2.3-1.9-4.3-2.9-6.4c-1.3,0.7-2,1.1-3.2,1.7c2.7,3,5.2,5.8,7.9,8.7
	c1.3-0.9,2.6-1.8,3.8-2.6c0-0.3-0.1-0.6-0.1-0.9C189.6,144.5,187.6,144.2,186,144.1z M420.2,173.8c-1.9,0.9-3,1.9-3.6,3.9
	c-0.6,2.4-2.2,4.6-3.4,6.9c0.1,0.2,0.3,0.4,0.4,0.6c2.3-1.1,4.5-2.2,7.1-3.5C415.9,179.2,421.1,176.6,420.2,173.8z M166.3,239.9
	c-2.8,0.2-5.2,0.3-8,0.5c2.3,2.9,4.1,5.8,8.3,5.2C166.5,243.8,166.4,241.9,166.3,239.9z M330,157.9c2,1.1,6.7-2.6,7.3,3.4
	c0.7-1.7,1.4-3.4,1.8-4.3c-1.5-1.3-2.5-2.2-3.6-3c-0.5-0.4-1.2-1-1.8-0.9c-0.4,0-0.8,0.9-1.2,1.4C331.7,155.6,330.9,156.7,330,157.9
	z M271.5,201.2c-1.4-0.1-2.6-0.2-3.8-0.2c-0.1,0.6-0.1,0.9-0.3,1.2c-0.5,0.8-1,1.5-1.5,2.3c-0.7-0.5-1.4-0.9-2-1.5
	c-0.6-0.6-1.1-1.2-1.7-2c-0.6,2.1-1.1,3.9-1.6,5.7c2,0.1,4,0.2,5.7,0.3C268,205,269.6,203.2,271.5,201.2z M436.8,125.8
	c1.7-3.9-0.2-6.7-4.3-6.3c-0.8,1.7-1.6,3.2-2.2,4.4C432.3,124.6,434.5,125.2,436.8,125.8z M471.9,138c-5-1.4-5-1.4-5.6-0.6
	c2.3,1.2,2.7,2.6,1.6,4.7c-0.6,1.1-1.2,2.3-1.5,3.5c-0.2,0.6,0.3,1.4,0.5,2.2c0.3-0.1,0.6-0.1,0.8-0.2c0.1-1.4,0.1-2.7,0.2-4.4
	c1.1,0.5,1.8,0.8,2.9,1.3C471.2,142.3,471.5,140.2,471.9,138z M447,115.7c-0.8-3.1-1.6-5.9-2.4-8.9c-2.8,1.7-2.8,1.7-2.9,7
	C443.3,114.4,444.9,115,447,115.7z M392.2,160c-0.4,0.7-0.9,1.3-1.1,2c-0.6,1.7-1.1,2.4-3,1.2c-1.6-0.9-3.8-0.9-5.7-1.2
	c-0.4-0.1-1,0.6-1.5,0.9c0.1,0.2,0.2,0.4,0.2,0.7c0.6,0,1.2,0.1,1.8,0c3.2-0.7,3.2-0.7,3.5,2.5c0,0.1,0.2,0.2,0.3,0.3
	C392.4,166.2,393.7,164.8,392.2,160z M515.6,141.2c1-2.2,1.8-4.1,2.7-6c-0.2-0.2-0.4-0.4-0.5-0.6c-1.7,0.3-3.4,0.6-4.6,0.8
	c-1,1.6-1.8,2.8-2.7,4.3C512.2,140.2,513.8,140.7,515.6,141.2z M302,312.9c-1.5,3.9-2.9,7.8-4.4,11.6c0.2,0.2,0.4,0.3,0.6,0.5
	c2.2-2.2,4.4-4.3,6.8-6.7C301.5,317.4,303.1,314.8,302,312.9z M324.6,291.6c-4.1,2.4-8.7,3.7-10.2,8.6
	C318.8,299.4,323.5,295.7,324.6,291.6z M184.1,196.7c0.1,0,0.3,0,0.4,0c0.6-1.6,1.4-3.2,1.8-4.9c0.2-1.1,0.2-3-0.5-3.5
	c-1.4-1-3.1-0.4-4.2,1c-1.1,1.4-2,2.9-3.2,4.8c2.1-1.2,3.7-2.1,5.8-3.3C184.1,193.3,184.1,195,184.1,196.7z M202,157.7
	c-1.5-0.3-2.7-0.5-3.9-0.8c-1.6-0.4-3,0.6-2.8,1.8c0.3,1.5,1.5,2.8,2.6,4c0.2,0.2,1.7-0.2,2-0.7C200.8,160.6,201.3,159.1,202,157.7z
	 M118,187.3c-0.2,0-0.5,0-0.7,0c-0.3,0.9-1,2-0.8,2.6c1.2,2.6,2.7,5,4.4,7.8c1.2-1.8,2.3-3.3,3.3-4.8c-2.1,1.3-3.1,0.6-3.9-1.4
	C119.8,190.1,118.9,188.7,118,187.3z M405.9,47.1c-0.3,1.2-0.6,2.5-1,4.3c1.8-0.5,3.3-1,4.6-1.4c0.8,0.9,1.5,1.6,2.3,2.5
	c1.1-1.4,1.9-2.5,2.8-3.8C411.4,48.1,408.7,47.6,405.9,47.1z M120,274.3c-0.1-1.2-0.2-2.1-0.3-3.2c-1.8,0.6-3.4,1.1-5.2,1.7
	c1.5,1.7,2.9,3.3,4.3,4.9c1.4-1.2,2.9-2.5,4.4-3.8c-0.2-0.2-0.4-0.4-0.6-0.6C121.8,273.6,121,273.9,120,274.3z M234.3,171.7
	c1.2,1,2.3,1.8,3.9,3c1-0.6,2.5-1.4,3.9-2.3c-0.1-0.4-0.1-0.7-0.2-1.1c-2.2-0.6-4.4-1.2-6.7-1.8
	C234.8,170.6,234.5,171.3,234.3,171.7z M51.7,197.4c0.9,1.8,2,1.2,3.1,0.9c1.9-0.5,3.8-0.9,5.9-1.3c-0.3-1.6-1.1-3.5-3.9-4
	C55.6,194.9,55.4,198,51.7,197.4z M78.9,190.8c2,0,3.7,0,6,0c-1.1-1.4-1.9-2.4-2.7-3.3c-0.1,0.2-0.2,0.5-0.3,0.7
	c-1.1-0.2-2.3-0.3-3.4-0.7c-1.9-0.8-3.7-1.2-5.3,0.8C75.1,189.3,78.5,186.9,78.9,190.8z M296.8,237.8c-3.6,2.3-3.4,6.2-5,9.3
	C296.1,245.9,297.4,243.4,296.8,237.8z M213.9,99.1c2.7-2.1,5.3-4.2,8.1-6.3c-0.4-0.6-0.9-1.1-1.2-1.5c-0.9,0.7-1.6,1.7-2.2,1.7
	c-2.3-0.2-2.9,1-2.9,3.1c-1-0.1-1.8-0.2-2.7-0.3C213.4,97,213.7,98.1,213.9,99.1z M247.1,179.2c-2-1.4-3.7-2.7-5.5-4
	c0.3,2.7,0.5,5.2,0.8,8.6C244.4,181.9,245.9,180.4,247.1,179.2z M28.1,150.1c0.2,1.3,0.5,3,0.7,4.7c3-1.1,4.9-4.4,4.4-7.2
	C31.7,148.3,30,149.2,28.1,150.1z M272,123.1c-1.5,0.8-3,1.6-4.4,2.3c1.9,3.6,2,3.6,6.3,2.4C273.4,126.4,272.8,124.9,272,123.1z
	 M430.1,68.2c1.6,3.9,3.4,5.2,6.5,4.5C436.8,69.1,435.7,68.4,430.1,68.2z M110.3,208.7c2.5,2.2,3.3,2.3,6.1,0.9
	c1.5-0.8,2.3-1.8,1.9-3.9C115.5,206.8,112.9,207.7,110.3,208.7z M362.1,147.6c-1.5-1-2.8-1.9-4.3-2.8c-1.1,2.5-3.7,3.5-3.6,6.4
	C356.7,150.1,359.1,149,362.1,147.6z M366.8,152.9c0.8-0.6,2.3-1.2,3.1-2.4c0.8-1.3,1.1-3,1.1-4.5c0-0.5-1.7-1-2.4-1.3
	C367.9,147.8,367.3,150.5,366.8,152.9z M511.3,172.4c0.5,0.9,0.9,1.6,1.1,2.1c1.7-1.9,3.2-3.8,4.9-5.8c-1.4-0.8-2.8-1.7-4.3-2.6
	c-0.2,0.2-0.4,0.4-0.6,0.5C513.9,168.9,513.5,170.8,511.3,172.4z M423.7,266c-2.3,0-4-0.3-5.5,0.1c-0.7,0.2-1.2,1.6-1.7,2.5
	c0.8,0.4,1.5,1.1,2.3,1.1C421,269.8,422.2,268.4,423.7,266z M326.3,115.7c0.9-2.8,1.7-5.1,2.7-7.9
	C323,110.1,322.8,110.7,326.3,115.7z M53.4,176c1.6,1.7,2.8,3.1,4.1,4.3c0.4,0.4,1.4,0.6,1.8,0.4c0.4-0.3,0.7-1.2,0.6-1.8
	c-0.2-1.1-0.7-2.1-1-2.8C57.1,176,55.5,176,53.4,176z M200,250.1c1.8-2.3-0.6-3.2-1.5-4.3c-0.6-0.7-2-1.4-2.7-1.2
	c-0.8,0.3-1.2,1.7-1.8,2.6c0.1,0.2,0.2,0.5,0.3,0.7C197.4,245.9,197.8,249.5,200,250.1z M202,210.9c2.2,0.4,4,0.7,6.3,1.1
	c-1.5-4.3,1.8-2.8,3.8-3.8c-3.7-1.2-6,0.6-8.4,1.9c-0.4-0.7-0.7-1.3-1-1.9c-0.2,0.1-0.4,0.1-0.6,0.2
	C202.1,209.1,202.1,209.8,202,210.9z M274.5,143c1.1,1.5,0.4,3.8,2.6,3.7c1.2-0.1,2.4-1.3,3.5-2.2c0.3-0.2,0.3-1,0.1-1.5
	c-0.1-0.2-0.8-0.3-1.2-0.2C278.2,142.8,276.7,142.9,274.5,143z M105.1,261.3c3.3,0.3,5-1.7,5.1-5.9c-1.6,0.8-3.3,1.6-4.7,2.3
	C105.3,259.1,105.2,260.2,105.1,261.3z M373.7,280.4c-2,1.9-3.8,3.4-5.7,5.2c2,0.3,3.6,0.5,5.3,0.7
	C373,284.2,375.4,282.3,373.7,280.4z M345,147.6c-1.4-1.1-2.3-2.3-3.3-2.4c-1.1,0-2.5,0.8-3.2,1.8c-0.3,0.4,0.5,1.8,0.8,2.8
	C341.2,149,342.7,148.5,345,147.6z M441.5,162.5c1.9-1,3.6-1.9,4.8-2.5c0.2-1.9,0.4-3.2,0.5-4.7c-0.8,0-1.8,0-2.1,0
	C443.6,157.9,442.6,160,441.5,162.5z M248,192.1c-1.3,1.6-2.3,2.7-3.2,3.8c1.5,1.6,2.9,3,5.3,1.8C249.4,196,248.8,194.3,248,192.1z
	 M412.1,249c-0.3-1.3-0.1-2.4-0.6-2.8c-1.4-1.4-5.4-0.2-6.4,2C407.4,248.4,409.5,248.7,412.1,249z M187.2,169.3c0.6,3.5,1,4,2.2,3.7
	c1.9-0.4,2.8-3.1,2.1-6.6C190.8,168.7,189.8,170.3,187.2,169.3z M279.4,209.3c0,3.8,0.6,4.5,4.5,5
	C284.1,211.4,283.1,210.2,279.4,209.3z M499.1,174.2c2.8,1.3,5.6,2.6,8.7,4C506.3,174.2,502,172.5,499.1,174.2z M32,131
	c0,0.1,0,0.3,0,0.4c2.1,1.1,4.3,2.2,7.1,3.6c-0.3-1.9-0.5-3.1-0.6-4C36.2,131,34.1,131,32,131z M392.6,216.3
	c-2.1,0.8-3.9,1.5-5.6,2.1c0,0.2-0.1,0.4-0.1,0.5c2,0.5,3.9,1,6.4,1.7C393,218.9,392.8,217.8,392.6,216.3z M442.3,220.9
	c2-2.9,0.7-5.8-2.8-7.2c-0.4,1.2-0.7,2.5-1.2,4c1.6-0.2,2.8-0.3,4-0.4C442.3,218.4,442.3,219.4,442.3,220.9z M319.7,82.6
	c-0.8,2.7-1.3,4.6-2,6.8c1.7-0.5,3.1-0.9,4.8-1.4C321.5,86.2,320.7,84.7,319.7,82.6z M336,209.3c0.5,2.4,0.8,4.5,1.3,7.1
	c1-2.8,1.8-5,2.8-7.8C338.4,208.9,337.3,209.1,336,209.3z M177.3,94.2c-2.5,3.3-1.1,5.6,3.1,6.4C179.4,98.4,178.5,96.6,177.3,94.2z
	 M418.8,274.9c-5.4-0.1-5.9,0.2-6,2.6C416.2,277.9,418.1,277.1,418.8,274.9z M171,137.9c-0.4,4.1,0.4,5.2,3.1,4.6
	C173.8,139.1,173,137.8,171,137.9z M273.4,58.1c-2,1.8-3.8,3.2-5.7,4.9c2.9,0.8,4.5-1,6.5-2.2C273.9,59.7,273.6,58.8,273.4,58.1z
	 M489.6,181.6c0.3,0.2,0.6,0.3,0.9,0.5c0.7-0.9,2.1-1.9,2-2.6c-0.3-1.8-1.2-3.6-2-5.3c-0.1-0.3-1-0.2-1.6-0.3
	c-0.2,0.2-0.4,0.3-0.6,0.5C494.3,176,488.8,179.2,489.6,181.6z M246.5,188.7c-3.9-0.2-7.4-0.5-11-0.7c-0.1,0.3-0.3,0.9-0.6,1.7
	c3.7,0.4,7.5-2.1,11,1.4C246.2,190.1,246.4,189.3,246.5,188.7z M341.8,158.8c1.1,2.5,2.1,4.8,3.1,7.1c0.2-0.1,0.3-0.2,0.5-0.2
	c-0.1-2.2-0.2-4.5-0.3-6.9C344.2,158.8,343.2,158.8,341.8,158.8z M288.3,34.7c0.4,0.2,0.7,0.3,1.1,0.5c0.6-1.2,1.5-2.4,1.7-3.6
	c0.1-1.1-0.6-2.3-0.9-3.4c-0.3,0.1-0.6,0.1-0.9,0.2C289,30.4,288.6,32.5,288.3,34.7z M97.4,265.5c0,0.1,0,0.3,0,0.4
	c2.4,0.4,4.9,0.7,8,1.2c-1.3-1.6-2-2.5-2.9-3.5C100.9,264.2,99.2,264.9,97.4,265.5z M360.1,185.2c-0.3-0.3-0.5-0.6-0.8-0.9
	c-4.1-0.5-5.1,0.7-4,4.1C356.7,187.5,358.4,186.4,360.1,185.2z M252.3,116c-1.1,1.6-2,2.9-2.8,4.2c1.1,0.5,2.4,1.1,3.8,1.8
	c0-1.6,0-3,0-4.3c0.2,0,0.4-0.1,0.5-0.1C253.3,117,252.7,116.5,252.3,116z M349.9,28.3c-2.8-1.7-5.1-3-7.9-4.7
	C345,28.5,346.5,29.5,349.9,28.3z M454.8,97.7c1.2-2.3,1.7-4.1,0-5.6c-0.5-0.4-1.6-0.1-2.8-0.1C453.1,94.1,453.8,95.7,454.8,97.7z
	 M401.1,99.2c-2.3-1.1-4.2-2.1-6.2-3.1c-0.7,1,1,2.8,5,5C400.2,100.5,400.6,99.9,401.1,99.2z M81.6,246.6c1.7,1.6,3.5,0.7,4.1-0.4
	c0.5-0.9-0.4-2.6-0.7-4.1C83.7,243.9,82.7,245.2,81.6,246.6z M472.8,102.8c2.4,0.7,4.6,2.5,7.6,1.1C478,101,475.3,102.4,472.8,102.8
	z M190.8,161.2c-0.5-3.9-1.3-4.9-4.5-5.6C186.7,158.4,188.2,160.2,190.8,161.2z M342.2,256.7c0.1,0.3,0.1,0.6,0.2,0.9
	c1.6,0.4,3.2,0.8,4.7,1.2c0.1-0.2,0.3-0.4,0.4-0.6c-0.5-1.1-1.1-2.2-1.7-3.5C344.4,255.5,343.3,256.1,342.2,256.7z M493.6,224.8
	c0.5-1.7,1-3.2,1.5-5c-2,0.9-3.6,1.7-5.5,2.5C491.1,223.2,492.3,224,493.6,224.8z M130.1,213c-0.2,1.2-0.2,2.1-0.6,2.6
	c-0.5,0.6-1.5,0.9-2.4,1.5c1.7,1.4,2.9,0.6,3.9-0.3c0.6-0.6,1.2-1.6,1.2-2.4C132.1,213.9,130.8,213.5,130.1,213z M424.9,137.5
	c2.2,0.3,3.5,0.1,3.8-1.8c0.3-2.1-1.4-1.8-2.7-2.4C425.6,134.8,425.3,136,424.9,137.5z M371.7,204.2c0.9-1.2,1.7-2,2-3
	c0.2-0.5-0.5-1.5-1-2c-0.2-0.3-1.3-0.4-1.4-0.3c-0.4,0.6-0.8,1.3-0.7,2C370.8,201.9,371.2,202.8,371.7,204.2z M158.1,280.4
	c2.1-0.5,3.9-1,3.9-3.8c-1,0-2,0-2.8,0C158.8,277.9,158.4,279,158.1,280.4z M247.9,119.7c-0.2,0-0.8,0.1-0.8,0.2
	c0.1,2.8,0.3,5.7,0.5,8.7c2.1-1.2,1.2-2.7,0.9-4.1C248.2,123.1,248.1,121.5,247.9,119.7z M99,147.2c1.9,0.4,3.4-0.6,4-2.6
	c0.6-2-1.2-1.8-1.6-2.2C100.6,144,99.8,145.6,99,147.2z M465.3,93.7c-1.3,1.9-2.5,3.5-3.8,5.3C465.8,98,466.8,96.7,465.3,93.7z
	 M144.3,264.2c0.2,0.3,0.3,0.6,0.5,0.9c1.8-0.9,3.6-1.9,5.4-2.8c-0.1-0.3-0.3-0.5-0.4-0.8C147.5,261.7,145.4,262,144.3,264.2z
	 M123.2,262.2c2.3,0.6,4.5,1.1,6.7,1.6C124.2,260.1,124.2,260.1,123.2,262.2z M417.3,54.3c0.5,1.7,0.9,3.2,2.9,3.2
	c0.4,0,1.1-1,1.1-1.4C421,54,419.4,53.9,417.3,54.3z M173.2,47.2c-1.6-0.4-3.1-0.7-5-1.2c0.4,1.3,0.6,2,0.9,2.8
	c2.7-2,2.1,1.7,3.7,1.9C172.9,49.5,173,48.4,173.2,47.2z M331.3,228.2c1.5,2.3,2.9,2.2,7.9-0.5C336.3,227.9,333.9,228.1,331.3,228.2
	z M292,177c-2.4,0.1-3.5,1-3.2,3.2c1.2,0,2.3,0,3.4,0C292.2,179.1,292.1,178.2,292,177z M242.4,286.6c-0.7,4.5-0.4,4.9,3.2,4.4
	C244.5,289.4,243.4,288,242.4,286.6z M160.3,203.3c1.1,0.9,2.1,1.7,3.3,2.7c-0.3-2.2-0.1-4.3-2.3-5.8
	C161,201.4,160.6,202.4,160.3,203.3z M137.7,260.7c-1.3-1.2-2.2-2.1-3.2-2.9c-0.1-0.1-1.1,0.5-1.1,0.6c0.3,1.1,0.8,2.3,1.2,3.5
	C135.6,261.5,136.3,261.2,137.7,260.7z M306.9,282.7c1.6,2.7,3.3,1.4,4.8,1c0.3-0.1,0.7-0.7,0.6-1.1c-0.1-0.3-0.7-0.8-1-0.8
	C309.9,282.1,308.6,282.4,306.9,282.7z M314.1,26.3c-0.3-1.5-0.6-2.8-0.9-4.1c-0.7,1.1-1.4,2.2-2.1,3.3c-0.1,0.2,0,0.4,0,0.8
	C311.9,26.3,312.7,26.3,314.1,26.3z M173.9,56.2c-2.3-0.3-3.9-2.5-6.7-1.1C169.6,56,171,59.1,173.9,56.2z M119.9,144.4
	c-1.2,0.6-2.3,1.1-3.3,1.6c0.7,0.9,1.3,1.7,1.9,2.5C120.3,147.6,121.1,146.5,119.9,144.4z M30.1,134.3c0-0.1-0.1-0.3-0.1-0.4
	c-1.9-0.5-3.9-1.1-6.1-1.7c0.5,1.3,0.9,2.2,1.3,3C26.8,134.9,28.5,134.6,30.1,134.3z M375.7,75.7c0.8,1.6,1.3,2.8,2.2,4.7
	c0.4-1.9,0.7-3.3,1-4.7C377.7,75.7,376.6,75.7,375.7,75.7z M219.3,257.4c-0.2-0.2-0.3-0.4-0.5-0.6c-1,0.7-2.5,1.1-2.8,2
	c-0.3,0.8,0.8,2,1.5,3.5C218.2,260.3,218.7,258.9,219.3,257.4z M119.5,132.5c-0.2,0.2-0.4,0.3-0.6,0.5c0.3,1.3,0.5,2.6,0.9,4.4
	c1.2-0.8,2.1-1.4,3.1-2.1C121.5,134.2,120.5,133.3,119.5,132.5z M414.8,159.7c0.6,1.9,1.1,3.7,1.8,5.7
	C418.5,162.9,417.8,160.9,414.8,159.7z M222.5,65c0.9-2.2-0.6-3.5-5.2-3.9C219.3,62.7,220.9,63.8,222.5,65z M411.6,183.5
	c-0.8-1.1-1.6-2.2-2.5-3.3c-0.4,0.4-1.1,0.9-1.1,1.3C408,183.3,409.2,184,411.6,183.5z M353.4,228.3c-0.2-0.2-0.3-0.3-0.5-0.5
	c-1.5,0.5-2.9,0.9-4.4,1.4c0,0.2,0.1,0.5,0.1,0.7c1.2,0.3,2.4,0.7,3.7,1C352.7,229.9,353,229.1,353.4,228.3z M72.8,256.6
	c3.5-0.6,5-2.2,5.1-4.5C76.4,253.4,74.7,254.9,72.8,256.6z M371.3,157.4c-0.3-0.2-0.5-0.3-0.8-0.5c-0.8,1.7-3.8,2.1-2.9,4.8
	c0.3,0.2,0.5,0.3,0.8,0.5C369.3,160.6,370.3,159,371.3,157.4z M290.7,294.8c1.7-0.5,3-0.8,4.6-1.3c-0.9-1.2-1.6-2-2.4-3.1
	C292.1,292,291.5,293.2,290.7,294.8z M305.5,28c-1.9-0.1-2.3-2.8-4-1.2c-0.4,0.4,0.3,2,0.5,3.2C303.3,29.3,304.1,28.8,305.5,28z
	 M332.5,97.5c-0.6,4.4-0.6,4.4,2.8,4.4C334.3,100.3,333.4,98.9,332.5,97.5z M445.6,97.5c-0.3-0.3-0.6-0.5-0.9-0.8
	c-1.2,1.2-2.4,2.5-3.5,3.8c-0.1,0.1,0.5,0.8,0.8,1.3C443.4,100.2,444.5,98.9,445.6,97.5z M355.6,137.4c-3.6-2-3.8,0.9-5.2,1.8
	c0.1,0.2,0.2,0.5,0.4,0.7C352.2,139.2,353.7,138.4,355.6,137.4z M192.4,43.1c-0.1-0.3-0.3-0.6-0.4-0.9c-1.3,0.6-2.7,1.2-4,1.8
	c0.1,0.2,0.2,0.5,0.3,0.7C190.1,45.3,191.6,45.3,192.4,43.1z M319.5,192.5c3,0.8,3.7,0.1,3.7-3C321.7,190.7,320.6,191.6,319.5,192.5
	z M416.6,261.4c-2.5-2-4-1.5-5.3,1C412.9,262.1,414.5,261.8,416.6,261.4z M418.9,135.7c-0.1,0.3-0.3,0.6-0.4,0.9
	c1,0.5,1.9,1,2.9,1.5c0.1-1.1,0.2-2.1,0.3-3.6C420.3,135.1,419.6,135.4,418.9,135.7z M216.1,104.1c-0.5-1.4-0.9-2.5-1.2-3.6
	c-0.2,0.1-0.5,0.1-0.7,0.2c-0.4,1.1-0.8,2.1-1.2,3.3c0.5,0.1,0.8,0.2,1.1,0.2C214.6,104.2,215,104.1,216.1,104.1z M252,136.6
	c3.7,0.3,4.3-0.4,3.2-3.4C254.2,134.3,253.3,135.3,252,136.6z M284.3,22.3c-0.4-0.1-0.8-0.2-1.2-0.3c-0.6,1.9-1.2,3.8-1.7,5.8
	c0.3,0.1,0.6,0.2,0.9,0.3C282.9,26.1,283.6,24.2,284.3,22.3z M128.5,92.9c1.3-2.8,1.3-2.8,0-3.6c-0.8,1-1.6,2-2.4,3.1
	C127,92.6,127.7,92.7,128.5,92.9z M247.4,132.6c-0.5,3.7-0.1,4.2,2.8,3.9C249.4,135.3,248.6,134.2,247.4,132.6z M290.7,131.8
	c-2-1.9-4.1-1.9-6,0C286.7,131.8,288.5,131.8,290.7,131.8z M330.2,196.5c-0.2-0.2-0.3-0.5-0.5-0.7c-1.2,0.7-2.4,1.3-3.5,2.1
	c-0.3,0.2-0.1,1.1-0.2,2.4C327.8,198.7,329,197.6,330.2,196.5z M299.4,90.4c-2.1-0.1-3.6-0.2-5-0.3c0,0.2-0.1,0.4-0.1,0.6
	c1.1,0.6,2.2,1.1,3.4,1.7C298.2,91.8,298.6,91.4,299.4,90.4z M420.8,282.1c0.1,0.5,0.3,1,0.4,1.5c1-0.3,1.9-0.5,2.8-0.9
	c0.1,0-0.2-1-0.3-1.5C422.8,281.5,421.8,281.8,420.8,282.1z M325.3,70.4c-0.3,0-0.5,0.1-0.8,0.1c-0.5,3.7-0.5,3.7,1.5,4.8
	C325.7,73.4,325.5,71.9,325.3,70.4z M439.2,106.9c0.2,0.1,0.4,0.2,0.6,0.3c1-0.8,2.1-1.5,3.1-2.3c-0.1-0.3-0.2-0.6-0.4-0.8
	c-0.9,0.3-1.9,0.5-2.6,1C439.5,105.5,439.4,106.3,439.2,106.9z M472.2,198.9c-1.4-2.4-2-2.7-3.8-1.7
	C469.6,197.9,470,200,472.2,198.9z M449.7,115.4c1.2,2.9,2.5,3.2,4,1.5C452.5,116.4,451.3,116,449.7,115.4z M15,151.3
	c0.3,0.1,0.5,0.2,0.8,0.4c0.8-2.1,1.6-4.2,2.4-6.3c-0.2-0.1-0.5-0.2-0.7-0.3C16.7,147.1,15.8,149.2,15,151.3z M52.2,159.6
	c0.2,0.1,0.3,0.3,0.5,0.4c1-0.7,2-1.4,3-2.1c-0.1-0.2-0.2-0.3-0.3-0.5c-0.9,0-1.8,0-2.8,0C52.5,158.3,52.3,158.9,52.2,159.6z
	 M469.9,213.8c-2.8,1.9-3.5,3.6-2.5,5.4C468.2,217.5,468.9,215.9,469.9,213.8z M82.2,184.9c2-3.1,2-3.1,0-4
	C82.2,182.3,82.2,183.6,82.2,184.9z M394,267.6c1.1,0.7,2.1,1.2,3.3,1.9C397.2,266.5,396.4,266.1,394,267.6z M315.3,277
	c1.9-2.2,1.7-2.7-0.7-3.4C314.9,274.8,315.1,275.9,315.3,277z M199.3,219.8c-0.1-1.3-0.3-2.3-0.4-3.7c-1,1.1-1.8,1.9-2.8,3
	C197.5,219.4,198.4,219.6,199.3,219.8z M364.2,100.7c1.4-0.5,2.3-0.9,3.3-1.2c0-1,0-1.9,0-3.4C366.3,97.8,365.4,99,364.2,100.7z
	 M254.8,72.1c-0.2,0.2-0.5,0.4-0.7,0.6c-0.7-1.1-1.4-2.2-2.5-3.8c0.6,1.9,1,3.1,1.5,4.6C253.9,72.9,254.3,72.5,254.8,72.1z
	 M480.3,94.5c-2-0.8-2.9-0.6-3.1,0.9c-0.1,0.4,0.2,0.9,0.4,1.4C478.4,96.1,479.2,95.4,480.3,94.5z M140.1,151.8
	c-1.4-0.7-2.6-1.2-3.7-1.8c-0.1,0.2-0.2,0.3-0.4,0.5c0.7,0.9,1.4,1.7,2.2,2.7C138.9,152.8,139.4,152.4,140.1,151.8z"/>
</svg>
